<svg version="1.2" xmlns="http://www.w3.org/2000/svg" viewBox="0 0 2716 640" width="2716" height="640">
	<style>
		.s0 { fill: #556bae } 
	</style>
	<path id="Path 0" fill-rule="evenodd" class="s0" d="m1672.5 82.11c1.65-0.06 4.8 0.4 7 1.01 2.29 0.63 5.5 2.66 7.5 4.75 1.92 2 4.57 5.89 5.88 8.64 1.31 2.74 11.13 27.94 21.82 55.99 10.68 28.05 23.05 60.22 27.48 71.5 4.44 11.28 11.86 29.72 16.51 41 4.65 11.27 13.24 31.3 19.09 44.5 5.84 13.2 16.8 36.38 24.35 51.5 7.55 15.12 17.64 34.48 22.42 43 4.79 8.52 11.4 20 14.71 25.5 3.3 5.5 11.27 17.87 17.71 27.5 6.44 9.62 20.62 29.65 31.53 44.5 10.9 14.85 24.81 33.51 30.91 41.48 6.1 7.96 18.08 21.91 26.62 31 8.54 9.08 15.96 16.85 16.5 17.25 0.53 0.4 1.76-0.16 2.72-1.25 1.69-1.92 1.49-2.36-6.09-13.73-4.31-6.46-11.87-18.27-16.79-26.25-4.92-7.98-11.46-19-14.52-24.5-3.06-5.5-8.29-15.18-11.62-21.5-3.33-6.32-9.08-18.25-12.77-26.5-3.69-8.25-9.07-21.07-11.96-28.5-2.89-7.43-7.51-20.48-10.27-29-2.75-8.52-7.07-23.82-9.59-34-2.52-10.18-5.72-25.02-7.11-33-1.38-7.98-3.42-22.6-4.53-32.5-1.1-9.9-2.29-27.45-2.64-39-0.38-12.71-0.16-28.5 0.56-40 0.65-10.45 2.1-26.2 3.21-35 1.11-8.8 3.12-22.07 4.48-29.5 1.35-7.43 4.06-20.47 6.01-29 1.95-8.53 4.89-19.55 6.52-24.5 1.64-4.95 4.26-11.03 5.83-13.5 1.56-2.47 4.57-5.83 6.68-7.46 2.12-1.62 6.55-3.87 9.85-5 5.87-1.99 8.32-2.05 224-2.69l-1.6 2.33c-0.88 1.27-4.99 7.95-9.13 14.82-4.14 6.88-11.4 19.7-16.13 28.5-4.73 8.8-11.92 23.43-15.98 32.5-4.07 9.07-10.1 23.7-13.42 32.5-3.31 8.8-7.7 21.4-9.75 28-2.05 6.6-5.7 19.88-8.12 29.5-2.41 9.63-5.74 25.6-7.38 35.5-1.65 9.9-3.69 24.3-4.54 32-0.85 7.7-1.81 26.15-2.13 41-0.36 16.57-0.14 33.57 0.57 44 0.64 9.35 2.08 24.43 3.21 33.5 1.12 9.07 3.15 22.57 4.51 30 1.36 7.43 3.81 19.57 5.45 27 1.64 7.42 4.57 19.35 6.52 26.5 1.94 7.15 6.04 20.88 9.09 30.5 3.06 9.63 7.54 22.9 9.96 29.5 2.42 6.6 4.39 12.34 4.38 12.75 0 0.41-25.11 0.64-111.56 0.25l-6.47-3.17c-4.33-2.12-10.46-6.79-18.48-14.08-6.6-6-17.81-16.95-24.9-24.33-7.1-7.38-18.16-19.72-24.59-27.42-6.42-7.7-15.87-19.63-20.99-26.5-5.12-6.87-12.77-17.68-17.01-24-4.24-6.32-11.07-16.9-15.2-23.5-4.12-6.6-11.1-18.3-15.51-26-4.42-7.7-12.79-23.23-18.6-34.5-5.82-11.27-13.8-27.48-17.74-36-3.94-8.52-11.11-24.5-15.95-35.5-4.84-11-19.36-45.2-32.27-76-12.92-30.8-25.08-59.15-27.03-63-1.95-3.85-4.24-7.9-5.1-9-0.85-1.1-1.56-1.78-1.58-1.5-0.02 0.28 31.69 95.34 70.47 211.25 38.77 115.91 70.5 211.2 70.5 211.75 0 0.66-39 1-230 1l-2.21-9.25c-1.87-7.83-2.21-12.09-2.2-27.75 0-15.39 0.38-20.26 2.26-29 1.24-5.77 3.82-15.23 5.74-21 1.92-5.77 6.6-16.8 10.4-24.5 3.8-7.7 10-18.73 13.78-24.5 3.78-5.77 10.55-15.11 15.05-20.75 4.5-5.64 13.02-15.26 18.93-21.39 5.91-6.13 16.19-15.69 22.83-21.25 6.65-5.56 16.21-13.04 21.26-16.61 5.05-3.57 13.34-9.12 18.42-12.33 5.08-3.2 9.83-6.13 10.55-6.5 0.98-0.5-10.25-35.48-45.82-142.67-25.92-78.1-46.76-142.32-46.31-142.71 0.45-0.39 2.62-1.13 4.82-1.65 2.2-0.52 5.35-0.98 7-1.03zm-988 3.08c17.05-0.07 55.98 0.29 86.5 0.8 30.52 0.51 58.77 1.28 62.76 1.72 3.99 0.43 7.14 1.19 7 1.69-0.14 0.49-3.18 1.5-6.76 2.24-3.58 0.74-9.2 2.26-12.5 3.37-3.3 1.11-9.15 3.77-13 5.92-3.85 2.15-10.04 6.42-13.75 9.49-3.71 3.07-9.44 8.84-12.72 12.83-3.28 3.99-8.61 11.75-11.85 17.25-3.24 5.5-7.71 14.28-9.94 19.5-2.23 5.23-5.48 14-7.23 19.5-1.74 5.5-4.26 14.5-5.6 20-1.34 5.5-3.51 16.53-4.83 24.5-1.32 7.98-2.67 16.53-2.98 19-0.32 2.48-1.06 9.68-1.64 16-0.58 6.32-1.51 22.07-2.05 35-0.55 12.93-1.39 27.55-1.87 32.5-0.48 4.95-0.91 64.69-1.04 256.5l3.25 0.56c1.79 0.31 3.35 0.42 3.47 0.25 0.12-0.17 0.91-3.8 1.75-8.06 1.27-6.41 1.52-17.5 1.5-64-0.02-33.97 0.39-59.22 1.02-63.75 0.58-4.12 1.67-9.98 2.43-13 0.76-3.02 2.77-9.1 4.46-13.5 1.69-4.4 5.27-11.37 7.96-15.5 2.69-4.12 7.99-10.35 11.78-13.83 4.33-3.99 9.85-7.79 14.88-10.24 4.4-2.15 10.7-4.63 14-5.5 3.3-0.87 10.95-1.84 17-2.15 8.03-0.41 13.84-0.09 21.5 1.18 5.77 0.96 15 3.21 20.5 5 5.5 1.8 15.85 5.97 23 9.28 7.15 3.31 22 10.32 33 15.57 11 5.24 23.6 10.74 28 12.22 4.4 1.47 11.26 3.3 15.25 4.07 3.99 0.77 9.61 1.4 12.5 1.41 2.89 0 7.95-0.71 11.25-1.58 3.3-0.87 7.99-2.78 10.42-4.26 2.44-1.47 6.43-4.92 8.87-7.67 2.45-2.75 5.7-7.48 7.23-10.5 1.52-3.02 3.72-8.31 4.88-11.75 1.15-3.44 2.79-9.51 3.64-13.5 0.85-3.99 2.21-15.35 3.03-25.25 1.35-16.2 1.77-18.49 4.21-22.86 1.5-2.67 3.17-5.25 3.72-5.73 0.55-0.48 2.47-0.55 7.55 0.59l-0.04 97.5c-0.04 78.31-0.32 99.27-1.44 106.5-0.77 4.95-1.86 11.02-2.42 13.5-0.57 2.48-2.24 7.88-3.71 12-1.48 4.13-3.84 9.52-5.26 12-1.42 2.48-4.22 6.75-6.23 9.5-2.01 2.75-5.4 6.59-7.55 8.53-2.14 1.94-5.92 4.91-8.4 6.61-2.48 1.7-6.75 4.22-9.5 5.61-2.75 1.38-8.83 3.72-13.5 5.19-4.67 1.48-13 3.34-18.5 4.14-6.82 0.99-26.24 1.76-61 2.4-28.05 0.52-86.1 0.96-129 0.98-42.9 0.02-98.7 0.51-124 1.09-25.3 0.58-46.31 0.69-46.69 0.25-0.38-0.44 2.72-5.3 6.88-10.8 4.16-5.5 11.27-15.62 15.79-22.5 4.52-6.87 10.97-17.45 14.34-23.5 3.36-6.05 8.55-16.4 11.53-23 2.98-6.6 7.09-16.5 9.14-22 2.04-5.5 5.26-15.62 7.14-22.5 1.89-6.87 4.51-18.35 5.82-25.5 1.32-7.15 2.88-17.95 3.47-24 0.6-6.05 1.09-17.75 1.08-26 0-8.25-0.46-19.95-1.02-26-0.55-6.05-1.94-16.62-3.08-23.5-1.14-6.87-3.59-18.35-5.45-25.5-1.85-7.15-5.14-18.18-7.29-24.5-2.15-6.32-5.81-16.23-8.12-22-2.31-5.77-7.67-17.48-11.92-26-4.25-8.52-10.37-20-13.59-25.5-3.22-5.5-9.45-15.4-13.84-22-4.39-6.6-12.36-17.85-17.71-25-5.35-7.15-15.36-19.52-22.26-27.5-6.89-7.97-17.74-19.68-35.65-37.5l2.61-3.5c1.45-1.92 4.24-5.25 6.22-7.38 1.98-2.13 6.75-5.97 10.6-8.52 3.85-2.56 10.15-5.83 14-7.27 3.85-1.44 10.37-3.32 14.5-4.16 4.12-0.85 13.8-2.07 21.5-2.73 7.7-0.65 22.33-1.51 32.5-1.9 10.17-0.39 32.45-0.77 49.5-0.85zm-451 4.28c18.61 0.29 26.36 0.82 34.5 2.37 5.77 1.1 13.43 2.68 17 3.51 3.57 0.82 10.77 2.87 16 4.53 5.23 1.67 14 4.9 19.5 7.18 5.5 2.29 12.7 5.51 16 7.17 3.3 1.66 11.18 6.43 17.5 10.6 8.44 5.57 14.84 10.94 24.02 20.13 8.44 8.45 14.69 15.8 19.15 22.54 3.65 5.5 8.63 14.05 11.08 19 2.45 4.95 5.64 12.15 7.09 16 1.46 3.85 3.57 10.15 4.69 14 1.13 3.85 2.94 11.28 4.04 16.5 1.1 5.23 2.65 15.35 3.45 22.5 0.81 7.15 1.46 18.85 1.47 26 0 7.15-0.68 20.65-1.5 30-0.83 9.35-2.6 26.23-3.94 37.5-1.34 11.27-2.73 23.43-3.73 33.5l14.34 7.16c7.89 3.93 19.52 10.62 25.84 14.85 6.32 4.24 14.2 9.94 17.5 12.68 3.3 2.74 10.05 8.9 15 13.69 4.95 4.8 12.06 12.52 15.8 17.17 3.75 4.65 8.74 11.38 11.11 14.95 2.36 3.58 6.58 10.55 9.37 15.5 2.79 4.95 6.73 12.83 8.76 17.5 2.03 4.68 5.38 13.45 7.46 19.5 2.08 6.05 4.93 15.73 6.35 21.5 1.41 5.77 3.28 14.55 4.15 19.5 0.87 4.95 2.23 15.08 3.03 22.5 0.8 7.42 1.45 15.64 1.47 23l-208.5 0.02 5.11-5.26c2.81-2.89 8.37-9.09 12.34-13.76 3.98-4.67 10.52-13.45 14.53-19.5 4-6.05 9.53-15.5 12.28-21 2.74-5.5 6.62-14.39 8.61-19.75 2-5.36 4.75-14.36 6.13-20 1.37-5.64 3.22-15.42 4.1-21.75 1.23-8.81 1.49-16.54 1.12-33-0.32-14.5-1.09-25-2.35-32.23-1.03-5.91-2.15-10.41-2.48-10-0.34 0.4-2.73 7.93-5.32 16.73-2.59 8.8-7.21 22.52-10.26 30.5-3.06 7.98-8.34 20.35-11.73 27.5-3.39 7.15-8.61 17.05-11.59 22-2.98 4.95-7.44 11.92-9.91 15.5-2.47 3.58-6.81 9.42-9.64 13-2.83 3.58-8.47 10.06-12.54 14.41-4.07 4.35-11 10.9-15.4 14.55-4.4 3.65-11.38 8.92-15.5 11.7-4.13 2.78-9.07 5.98-11 7.12-1.93 1.14-8.11 4.36-13.75 7.15-5.64 2.79-16.89 7.29-25 10-8.11 2.71-19.47 5.83-25.25 6.94-5.78 1.1-15.22 2.49-21 3.08-5.78 0.58-14.78 1.06-20 1.06-5.22 0-14.45-0.48-20.5-1.07-6.05-0.59-15.5-1.98-21-3.09-5.5-1.11-13.6-3.16-18-4.56-4.4-1.39-11.6-4.2-16-6.22-4.4-2.03-12.03-6.36-16.95-9.63-4.93-3.27-12.58-9.56-17-13.99-4.43-4.43-10.61-11.85-13.74-16.5-3.13-4.65-7.46-12.28-9.62-16.95-2.17-4.67-5.31-12.77-6.98-18-1.67-5.23-4-14.45-5.16-20.5-1.17-6.05-2.38-16.4-2.7-23-0.4-8.24-0.09-15.6 0.97-23.5 0.86-6.32 2.73-15.55 4.16-20.5 1.44-4.95 5.23-14.4 8.42-21 3.2-6.6 8.47-15.69 11.71-20.2 3.24-4.5 9.29-11.93 13.45-16.5 4.16-4.56 12.04-11.91 17.5-16.33 5.47-4.41 13.99-10.54 18.94-13.61 4.95-3.06 12.15-7.16 16-9.09 3.85-1.94 12.4-5.65 19-8.25 6.6-2.6 17.85-6.22 25-8.06 7.15-1.83 19.53-4.31 27.5-5.52 11.21-1.69 19.15-2.19 35-2.22 13.96-0.03 24.49 0.5 33 1.66 6.87 0.94 17.45 2.83 23.5 4.2 6.05 1.37 16.4 4.28 23 6.47 6.6 2.2 17.85 6.84 25 10.32 7.15 3.48 17.73 9.5 23.5 13.37 5.77 3.88 15.56 11.37 33 26.26v-11.75c-0.01-6.46-0.7-16.02-1.55-21.25-0.84-5.23-3.04-14-4.87-19.5-1.83-5.5-5.15-13.6-7.36-18-2.22-4.4-6.42-11.37-9.34-15.5-2.92-4.12-8.7-11.03-12.84-15.35-4.15-4.32-10.69-10.26-14.54-13.2-3.85-2.95-10.6-7.41-15-9.92-4.4-2.51-11.6-5.95-16-7.65-4.4-1.69-12.05-4.14-17-5.43-4.95-1.3-13.73-2.87-19.5-3.49-5.92-0.64-14.64-0.85-20-0.48-5.23 0.37-14 1.55-19.5 2.63-5.5 1.08-13.6 3.13-18 4.56-4.4 1.42-10.7 3.69-14 5.04-3.3 1.35-10.05 4.51-15 7.02-4.95 2.52-12.82 7.13-17.5 10.26-4.68 3.13-12.55 9.08-17.5 13.23-4.95 4.14-12.82 11.53-17.5 16.41-4.68 4.88-11.88 13.04-16 18.14-4.13 5.1-7.72 9.25-8 9.23-0.28-0.02-18.14-37.26-39.7-82.77-21.56-45.5-39.33-83.38-39.5-84.18-0.2-0.96 4.56-4.05 14.2-9.22 7.97-4.28 21.47-10.99 30-14.92 8.53-3.94 21.58-9.53 29-12.43 7.42-2.9 18.45-6.86 24.5-8.81 6.05-1.94 15.28-4.66 20.5-6.04 5.22-1.38 13.55-3.26 18.5-4.17 4.95-0.92 13.5-2.27 19-3.01 6.87-0.93 17.5-1.24 34-0.98zm48.5 276.04c-4.12 0.89-11.77 2.97-17 4.64-5.23 1.67-14.45 5.41-20.5 8.33-6.05 2.91-14.37 7.54-18.5 10.29-4.12 2.76-10.43 8.09-14.02 11.87-3.58 3.77-7.95 9.34-9.7 12.36-1.75 3.02-4.13 8.2-5.28 11.5-1.16 3.3-2.47 8.93-2.91 12.5-0.45 3.57-0.42 9.88 0.06 14 0.64 5.42 1.96 9.72 4.76 15.5 2.89 5.94 5.52 9.55 10.24 14.03 3.5 3.32 9.27 7.48 12.85 9.24 3.57 1.77 10.32 4.2 15 5.4 6.99 1.81 11.25 2.19 24 2.17 10.91-0.02 17.72-0.53 23-1.73 4.13-0.93 11.55-3.05 16.5-4.7 4.95-1.64 13.73-5.36 19.5-8.26 5.77-2.9 13.65-7.36 17.5-9.91 3.85-2.55 10.6-7.52 15-11.04 4.4-3.53 11.99-10.64 16.86-15.8 4.88-5.17 11.71-13.67 15.2-18.9 3.48-5.23 7.9-12.88 9.82-17 1.91-4.13 4.19-10.09 5.05-13.25 0.99-3.64 1.29-6.91 0.82-8.9-0.41-1.73-1.87-4.23-3.25-5.55-1.37-1.32-5.65-3.7-9.5-5.29-3.85-1.59-12.62-4.51-19.5-6.5-6.87-1.99-17.68-4.5-24-5.59-6.32-1.08-17.35-2.15-24.5-2.38-7.15-0.22-16.82-0.01-21.5 0.48-4.68 0.49-11.87 1.61-16 2.49zm969.5-276.05c18.36 0.28 26.58 0.84 35 2.36 6.05 1.1 14.6 2.92 19 4.04 4.4 1.13 13.4 3.9 20 6.15 6.6 2.26 17.4 6.69 24 9.85 6.6 3.17 15.38 7.92 19.5 10.56 4.13 2.64 11.75 8.24 16.93 12.44 5.19 4.2 12.78 11.46 16.86 16.14 4.09 4.68 10.13 12.55 13.44 17.5 3.3 4.95 7.82 12.6 10.02 17 2.21 4.4 5.58 12.05 7.48 17 1.9 4.95 4.74 13.95 6.29 20 1.56 6.05 3.66 15.73 4.66 21.5 1.48 8.55 1.82 15.9 1.8 39.5-0.02 27.11-0.26 31.05-3.75 60.5-2.05 17.32-3.95 33.19-4.23 35.25-0.49 3.68-0.41 3.79 4.25 5.66 2.61 1.05 9.92 4.69 16.25 8.09 6.33 3.4 15.33 8.72 20 11.83 4.67 3.1 12.96 9.25 18.41 13.66 5.45 4.4 13.72 12.06 18.38 17.01 4.66 4.95 11.05 12.38 14.19 16.5 3.15 4.13 7.72 10.65 10.17 14.5 2.45 3.85 6.39 10.6 8.74 15 2.36 4.4 6 12.05 8.09 17 2.09 4.95 5.18 13.05 6.86 18 1.68 4.95 4.17 13.27 5.52 18.5 1.35 5.23 3.59 16.48 4.97 25 1.38 8.52 2.79 19.1 3.13 23.5 0.33 4.4 0.82 10.36 1.54 18.5h-104c-57.2 0-104.01-0.34-104.01-0.75-0.01-0.41 2.07-2.77 4.62-5.25 2.55-2.48 8.03-8.55 12.19-13.5 4.16-4.95 10.69-13.73 14.53-19.5 3.83-5.77 9.77-16.35 13.19-23.5 3.43-7.15 7.45-16.6 8.94-21 1.49-4.4 3.75-12.5 5.02-18 1.28-5.5 2.93-14.05 3.67-19 0.82-5.43 1.31-16.73 1.25-28.5-0.05-10.73-0.62-23.32-1.26-28-0.63-4.68-1.68-11.43-3.48-21.5l-1.87 6.5c-1.03 3.57-3.69 12.35-5.91 19.5-2.22 7.15-6.79 19.98-10.14 28.5-3.35 8.52-9.07 21.35-12.7 28.5-3.64 7.15-9.52 17.63-13.07 23.28-3.56 5.66-9.52 14.21-13.25 19-3.74 4.8-10.94 12.93-16 18.07-5.07 5.14-12.37 11.92-16.22 15.07-3.85 3.16-10.37 8-14.5 10.76-4.12 2.76-10.87 6.87-15 9.12-4.12 2.26-12.45 6.18-18.5 8.72-6.05 2.53-16.4 6.18-23 8.1-6.6 1.92-17.17 4.38-23.5 5.48-6.33 1.09-18.25 2.25-26.5 2.58-8.94 0.35-19.85 0.11-27-0.59-6.6-0.66-16.72-2.11-22.5-3.23-5.78-1.13-14.55-3.4-19.5-5.06-4.95-1.66-12.6-4.81-17-7-4.4-2.19-11.15-6.06-15-8.61-3.85-2.55-11.11-8.69-16.13-13.66-5.23-5.17-11.65-12.88-15.02-18.03-3.25-4.95-7.77-13.27-10.06-18.5-2.29-5.23-5.34-13.55-6.78-18.5-1.44-4.95-3.54-14.4-4.67-21-1.73-10.05-1.98-14.84-1.58-29.5 0.42-15.38 0.85-18.89 3.53-29 1.67-6.32 4.72-15.32 6.77-20 2.05-4.68 5.76-11.87 8.24-16 2.48-4.12 7.32-11.1 10.75-15.5 3.43-4.4 10-11.68 14.6-16.18 4.59-4.5 10.38-9.84 12.85-11.87 2.47-2.03 8.78-6.53 14-9.99 5.22-3.46 14.45-8.76 20.5-11.78 6.05-3.01 15.28-7.06 20.5-9.01 5.22-1.94 14.22-4.86 20-6.49 5.78-1.63 16.13-3.91 23-5.06 6.88-1.16 19.03-2.59 27-3.19 7.97-0.59 19.67-0.79 26-0.45 6.33 0.35 16.67 1.31 23 2.13 6.33 0.82 16.45 2.58 22.5 3.92 6.05 1.34 15.95 4.08 22 6.09 6.05 2.01 15.5 5.65 21 8.08 5.5 2.44 14.05 6.84 19 9.78 4.95 2.94 12.15 7.56 16 10.28 3.85 2.73 11.16 8.62 16.25 13.1 5.09 4.48 9.59 7.87 10 7.54 0.41-0.32 0.92-2.91 1.12-5.75 0.21-2.83-0.12-10.1-0.73-16.15-0.61-6.05-2.19-15.27-3.5-20.5-1.31-5.23-4.12-13.55-6.25-18.5-2.13-4.95-5.64-11.93-7.79-15.5-2.16-3.57-5.98-9.2-8.51-12.5-2.52-3.3-7.51-8.97-11.09-12.59-3.57-3.63-10.1-9.26-14.5-12.52-4.4-3.26-12.5-8.23-18-11.04-5.5-2.82-13.37-6.32-17.5-7.79-4.12-1.46-11.78-3.51-17-4.55-5.22-1.03-13.55-2.19-18.5-2.56-5.12-0.38-13.74-0.18-20 0.48-6.05 0.64-14.6 2.01-19 3.05-4.4 1.04-12.05 3.21-17 4.83-4.95 1.62-13.72 5.16-19.5 7.87-5.78 2.72-14.33 7.38-19 10.36-4.67 2.98-12.31 8.36-16.97 11.94-4.66 3.59-12.98 11.03-18.5 16.55-5.52 5.51-14.08 14.88-19.03 20.81-4.95 5.93-9.28 10.42-9.62 9.97-0.33-0.44-18.22-37.93-39.75-83.31-21.53-45.37-39.14-83.06-39.14-83.75 0.01-0.69 10.25-6.39 22.76-12.66 12.51-6.28 29.28-14.2 37.25-17.61 7.97-3.41 19.45-7.98 25.5-10.15 6.05-2.17 16.17-5.46 22.5-7.3 6.33-1.84 17.13-4.53 24-5.98 6.88-1.44 17.22-3.26 23-4.04 7.41-1 17.57-1.31 34.5-1.05zm49 276.03c-4.4 0.91-12.72 3.22-18.5 5.14-5.78 1.92-15.45 5.99-21.5 9.04-6.05 3.06-13.7 7.38-17 9.61-3.3 2.23-8.92 7.06-12.5 10.73-3.58 3.67-8.2 9.56-10.28 13.08-2.07 3.53-4.7 9.34-5.84 12.91-1.14 3.58-2.31 10.33-2.6 15-0.38 6.19-0.07 10.27 1.16 15 0.93 3.58 2.9 8.96 4.38 11.98 1.47 3.01 5.38 8.23 8.68 11.6 4.44 4.54 8.21 7.19 14.5 10.19 4.67 2.24 12.1 4.88 16.5 5.87 5.67 1.28 12.07 1.79 22 1.78 9.69-0.01 16.61-0.58 22.5-1.84 4.67-1 11.88-2.93 16-4.29 4.13-1.36 12.22-4.71 18-7.44 5.78-2.73 15.45-8.28 21.5-12.33 6.05-4.05 14.68-10.66 19.17-14.69 4.49-4.03 10.95-10.48 14.34-14.33 3.4-3.85 8.24-9.92 10.76-13.5 2.52-3.57 6.78-10.77 9.45-16 2.68-5.22 5.58-11.97 6.45-15 0.95-3.35 1.33-7.06 0.96-9.5-0.33-2.2-1.4-4.85-2.37-5.89-0.97-1.05-4.01-2.9-6.76-4.13-2.75-1.23-10.62-4.04-17.5-6.24-6.87-2.2-17.22-4.95-23-6.1-5.78-1.15-15.22-2.55-21-3.12-5.78-0.57-13.42-0.97-17-0.89-3.58 0.08-10.1 0.5-14.5 0.93-4.4 0.44-11.6 1.53-16 2.43zm864.25-190.48c0.41 0 4.79 6.42 9.73 14.25 4.93 7.83 11.52 17.62 14.64 21.74 3.12 4.13 10.78 12.47 17.03 18.56 7.35 7.15 15.41 13.75 22.85 18.69 6.32 4.21 15.55 9.53 20.5 11.83 4.95 2.3 14.18 5.93 20.5 8.07 6.32 2.13 16.68 4.97 23 6.3 6.32 1.33 16.68 3.12 23 3.97 6.32 0.84 17.8 1.98 25.5 2.51 7.7 0.54 26.82 1.25 42.5 1.58 15.68 0.33 37.28 1.05 48 1.6 10.72 0.55 23.32 1.68 28 2.5 5.27 0.93 11.54 2.96 16.5 5.32 4.73 2.25 9.78 5.59 12.35 8.19 2.4 2.41 5.39 6.41 6.65 8.88 1.26 2.48 3.11 7.2 4.11 10.5 1.42 4.64 1.81 9.17 1.77 20-0.04 8.47-0.75 17.95-1.8 24-0.95 5.5-2.39 14.28-3.2 19.5-0.81 5.23-1.72 17.83-2.03 28-0.49 16.25-0.3 19.72 1.52 28.5 1.23 5.92 3.49 12.86 5.55 17 1.92 3.85 5.43 9.03 7.82 11.5 2.38 2.48 6.56 5.98 9.29 7.79 2.74 1.8 7.44 4.2 10.47 5.32 3.03 1.12 8.43 2.71 12 3.53 3.89 0.89 14.34 1.72 26 2.05 11.72 0.34 24.89 0.1 33-0.61 7.43-0.65 26.55-2.73 42.5-4.63 15.95-1.9 29.56-3.45 30.25-3.45 0.99 0 1.25 13.27 1.25 63 0 49.73-0.26 63-1.25 63.01-0.69 0.01-10.47-1.81-21.75-4.04-11.28-2.22-28.6-5.37-38.5-6.98-9.9-1.61-24.53-3.84-32.5-4.94-7.97-1.11-22.37-2.9-32-3.98-9.62-1.07-26.05-2.65-36.5-3.5-10.45-0.85-28.45-2-40-2.56-11.55-0.56-35.18-1.01-52.5-1.01-17.32 0-40.95 0.45-52.5 1.01-11.55 0.56-29.32 1.69-39.5 2.52-10.18 0.82-24.8 2.18-32.5 3.02-7.7 0.84-22.32 2.66-32.5 4.03-10.18 1.38-26.37 3.83-36 5.45-9.62 1.61-26.28 4.7-37 6.85-10.72 2.16-20.74 4.19-25 5.12v-128l3.25 0.51c1.79 0.28 16.53 2.04 32.75 3.92 16.22 1.88 35.13 3.91 42 4.51 6.88 0.59 14.86 1.3 17.75 1.57 2.89 0.27 10.54 0 17-0.6 6.46-0.6 16.03-2.18 21.25-3.53 5.22-1.34 12.43-3.89 16-5.66 3.9-1.93 9.16-5.82 13.16-9.72 5.11-4.99 7.59-8.47 10.7-15 2.22-4.67 4.77-12.1 5.66-16.5 0.95-4.71 1.61-12.93 1.61-20 0-7.26-0.65-15.16-1.65-20-0.91-4.4-2.59-10.25-3.73-13-1.15-2.75-4.15-8.12-6.67-11.93-2.52-3.82-6.83-8.9-9.58-11.31-2.75-2.4-9.05-6.38-14-8.83-4.95-2.46-13.5-5.68-19-7.15-9.3-2.5-11.44-2.69-30.5-2.71-17.53-0.01-22.02 0.31-31 2.24-5.78 1.24-16.12 3.87-23 5.86-6.87 1.98-19.03 6.03-27 8.98-7.97 2.96-14.61 5.37-14.75 5.36-0.14 0-0.25-42.53-0.25-94.51 0-51.97 0.34-94.5 0.75-94.49zm238.25-85.49c9.63 0.21 22.22 1.12 28 2 5.78 0.89 14.32 2.47 19 3.51 4.68 1.04 11.43 2.84 15 4.01 3.57 1.16 9.88 3.94 14 6.17 4.13 2.23 10.2 5.96 13.5 8.31 3.3 2.34 8.77 7.12 12.15 10.62 3.96 4.1 7.44 9.02 9.79 13.86 2.9 5.99 3.76 9.11 4.24 15.5 0.39 5.09 0.14 10-0.68 13.5-0.7 3.03-2.68 8.37-4.39 11.88-1.71 3.51-5.47 9.25-8.36 12.75-2.89 3.51-8.29 8.89-12 11.96-3.71 3.08-9.22 7.29-12.25 9.37-3.03 2.07-9.1 5.6-13.5 7.83-4.4 2.23-11.37 5.38-15.5 6.99-4.12 1.62-10.65 3.86-14.5 4.98-3.85 1.13-11.05 2.97-16 4.09-4.95 1.13-13.95 2.72-20 3.55-6.05 0.82-16.62 1.79-23.5 2.15-7.27 0.39-17.52 0.18-24.5-0.48-6.6-0.63-16.28-2.03-21.5-3.12-5.22-1.08-14.45-3.62-20.5-5.65-6.05-2.02-15.05-5.74-20-8.27-4.95-2.53-11.47-6.43-14.5-8.65-3.03-2.23-7.37-6.26-9.66-8.96-2.29-2.71-5.55-7.84-7.24-11.42-1.82-3.84-3.57-9.78-4.28-14.5-0.96-6.44-0.93-9.46 0.16-15.5 0.76-4.25 2.86-10.53 4.84-14.5 2.53-5.04 5.91-9.39 12.09-15.57 4.73-4.71 12.87-11.4 18.09-14.87 5.22-3.46 14.45-8.7 20.5-11.63 6.05-2.93 16.4-7.12 23-9.31 6.6-2.18 17.18-5.12 23.5-6.51 6.32-1.4 15.1-2.98 19.5-3.52 4.4-0.53 15.88-0.79 25.5-0.57zm-12 17.79c-3.27 1.35-2.21 1.48 16.5 2 11.33 0.32 23.69 1.24 28.5 2.13 4.68 0.86 11.88 2.5 16 3.64 4.13 1.14 10.88 3.61 15 5.49 4.13 1.89 7.61 3.2 7.75 2.93 0.14-0.28-0.99-1.34-2.5-2.37-1.51-1.03-5-3-7.75-4.38-2.75-1.37-8.6-3.7-13-5.16-4.4-1.47-12.28-3.52-17.5-4.56-5.22-1.05-13.55-2.12-18.5-2.39-4.95-0.27-11.7-0.11-15 0.36-3.3 0.47-7.57 1.51-9.5 2.31z"/>
</svg>