<svg width="1469" height="301" viewBox="0 0 1469 301" fill="none" xmlns="http://www.w3.org/2000/svg">
<path fill-rule="evenodd" clip-rule="evenodd" d="M1311 0.00978075C1315.68 -0.0702192 1325.35 0.349825 1332.5 0.929825C1339.65 1.50982 1350.22 2.8998 1356 4.0298C1361.78 5.1498 1370.1 7.37977 1374.5 8.99977C1378.9 10.6098 1384.86 13.4898 1387.75 15.3998C1390.64 17.3198 1394.85 20.7898 1397.12 23.1298C1399.38 25.4698 1402.39 29.6298 1403.81 32.3798C1405.22 35.1298 1406.53 38.0498 1406.72 38.8798C1406.9 39.6998 1407.28 41.9498 1407.55 43.8798C1407.82 45.7998 1407.58 49.8498 1407.01 52.8798C1406.45 55.8998 1404.78 60.8498 1403.31 63.8798C1401.61 67.3798 1397.53 72.4897 1392.07 77.9497C1387.36 82.6597 1381.47 87.8198 1379 89.4198C1376.53 91.0198 1369.55 94.6397 1363.5 97.4597C1356.62 100.67 1347.82 103.75 1340 105.7C1333.13 107.41 1323.45 109.29 1318.5 109.88C1313.55 110.47 1306.35 111.14 1302.5 111.37C1298.65 111.59 1290.32 111.34 1284 110.8C1277.68 110.26 1271.38 109.62 1270 109.36C1268.63 109.11 1266.49 108.67 1265.25 108.39C1264.01 108.11 1262.21 107.69 1261.25 107.45C1260.29 107.21 1256.35 105.93 1252.5 104.61C1248.65 103.28 1241.45 100.13 1236.5 97.5997C1231.55 95.0697 1225.21 90.8298 1222.4 88.1898C1219.6 85.5398 1216.09 81.1298 1214.61 78.3798C1213.12 75.6298 1211.71 72.2498 1211.45 70.8798C1211.2 69.4998 1210.72 66.1298 1210.39 63.3798C1209.98 60.1098 1210.35 56.1298 1211.43 51.8798C1212.35 48.2998 1214.39 43.3498 1215.97 40.8798C1217.56 38.3998 1221.47 33.8598 1224.68 30.7798C1227.88 27.6998 1233.65 23.1598 1237.5 20.6898C1241.35 18.2198 1246.75 15.0197 1249.5 13.5897C1252.25 12.1597 1258.32 9.65982 1263 8.04982C1267.68 6.43982 1274.88 4.37974 1279 3.46974C1283.13 2.55974 1290.1 1.43975 1294.5 0.979751C1298.9 0.519751 1306.32 0.0797808 1311 0.00978075ZM1311.5 10.6398C1310.03 11.3998 1314.11 11.7998 1327 12.1598C1341.33 12.5598 1346.22 13.0998 1354 15.1298C1359.22 16.4998 1365.41 18.5698 1367.75 19.7498C1370.09 20.9198 1372 21.4298 1372 20.8798C1372 20.3298 1368.96 18.4698 1365.25 16.7398C1361.54 15.0098 1354.22 12.5297 1349 11.2197C1343.78 9.91974 1335.45 8.64981 1330.5 8.40981C1325.55 8.16981 1319.7 8.33981 1317.5 8.78981C1315.3 9.23981 1312.6 10.0698 1311.5 10.6398ZM911.43 7.84975C913.12 8.20975 915.62 9.32974 917 10.3397C918.37 11.3597 920.23 13.8098 921.13 15.7798C922.02 17.7598 923.1 20.2798 923.53 21.3798C923.95 22.4798 924.41 23.8298 924.55 24.3798C924.69 24.9298 925.37 26.7298 926.05 28.3798C926.74 30.0298 927.42 31.8298 927.56 32.3798C927.71 32.9298 928.95 36.2998 930.32 39.8798C931.7 43.4498 933.39 47.7298 934.07 49.3798C934.75 51.0298 935.42 52.8298 935.55 53.3798C935.68 53.9298 936.91 57.2998 938.29 60.8798C939.66 64.4498 941.36 68.7298 942.06 70.3798C942.76 72.0298 943.39 73.5998 943.46 73.8798C943.53 74.1498 944.18 76.1798 944.9 78.3798C945.63 80.5798 946.85 83.3898 947.61 84.6298C948.38 85.8698 948.78 86.8798 948.5 86.8798C948.22 86.8798 948.62 88.1198 949.38 89.6298C950.14 91.1398 951.2 93.4998 951.74 94.8798C952.29 96.2498 953.76 100.08 955.02 103.38C956.28 106.68 961.11 118.15 965.76 128.88C970.42 139.6 978.07 156.03 982.77 165.38C987.48 174.73 991.61 182.6 991.97 182.88C992.32 183.15 993.26 184.86 994.06 186.67C994.85 188.48 995.84 189.94 996.25 189.92C996.66 189.9 997.21 190.89 997.47 192.13C997.73 193.37 1001.81 200.45 1006.55 207.88C1011.28 215.3 1015.57 221.49 1016.08 221.63C1016.58 221.77 1017 222.55 1017 223.38C1017 224.2 1017.34 224.87 1017.75 224.85C1018.16 224.84 1019 225.85 1019.62 227.1C1020.24 228.35 1028.13 239.28 1037.17 251.38C1046.21 263.48 1057.63 277.56 1062.55 282.68C1067.47 287.79 1072.06 291.95 1072.75 291.93C1073.44 291.9 1074.18 291.54 1074.4 291.13C1074.63 290.72 1072.13 286.33 1068.87 281.38C1065.6 276.43 1060.09 267.65 1056.63 261.88C1053.16 256.1 1047.86 246.43 1044.84 240.38C1041.82 234.33 1038.55 227.58 1037.57 225.38C1036.59 223.18 1035.93 221.38 1036.1 221.38C1036.27 221.38 1035.68 220.03 1034.79 218.38C1033.9 216.73 1032.16 212.45 1030.92 208.88C1029.68 205.3 1028.22 201.25 1027.67 199.88C1027.12 198.5 1026.59 197.15 1026.5 196.88C1026.4 196.6 1026.07 195.7 1025.75 194.88C1025.43 194.05 1024.83 192.03 1024.43 190.38C1024.02 188.73 1023.59 186.93 1023.47 186.38C1023.35 185.83 1022.52 183.24 1021.62 180.63C1020.73 178.02 1020 174.75 1020 173.38C1020 172 1019.6 169.87 1019.1 168.63C1018.61 167.39 1017.91 164.35 1017.55 161.88C1017.19 159.4 1016.43 154.45 1015.86 150.88C1015.29 147.3 1014.64 143.03 1014.41 141.38C1014.18 139.73 1013.82 128.03 1013.61 115.38C1013.3 96.9298 1013.59 89.6098 1015.09 78.3798C1016.12 70.6798 1017.17 63.2498 1017.43 61.8798C1017.68 60.4998 1018.39 56.8998 1018.99 53.8798C1019.59 50.8498 1020.21 47.6998 1020.36 46.8798C1020.52 46.0498 1020.93 44.4798 1021.28 43.3798C1021.63 42.2798 1022.15 40.2498 1022.43 38.8798C1022.7 37.4998 1023.47 34.3498 1024.13 31.8798C1024.79 29.3998 1026.33 25.7998 1027.54 23.8798C1028.75 21.9498 1030.59 19.5898 1031.62 18.6298C1032.74 17.5898 1036.73 16.3798 1041.5 15.6298C1047.5 14.6898 1063.45 14.5098 1160.99 15.3798L1157.37 21.3798C1155.39 24.6798 1153.33 28.2798 1152.8 29.3798C1152.27 30.4798 1150.33 34.0798 1148.48 37.3798C1146.63 40.6798 1144.12 45.3998 1142.89 47.8798C1141.67 50.3498 1139.54 54.8498 1138.17 57.8798C1136.79 60.8998 1135.07 64.6198 1134.33 66.1298C1133.6 67.6398 1133.22 68.8798 1133.5 68.8798C1133.78 68.8798 1133.32 69.9998 1132.5 71.3798C1131.68 72.7498 1130.95 74.2198 1130.88 74.6298C1130.81 75.0398 1130.36 76.3898 1129.88 77.6298C1129.4 78.8698 1129.01 80.4398 1129.03 81.1298C1129.04 81.8198 1128.71 82.7597 1128.28 83.2097C1127.85 83.6697 1127.39 84.4597 1127.25 84.9597C1127.11 85.4697 1127 86.0998 1127 86.3798C1127 86.6498 1126.85 87.2198 1126.66 87.6298C1126.48 88.0398 1126.04 89.0498 1125.69 89.8798C1125.34 90.6998 1123.75 96.0998 1122.15 101.88C1120.55 107.65 1118.94 114.4 1118.58 116.88C1118.21 119.35 1117.74 121.6 1117.54 121.88C1117.33 122.15 1116.9 124.63 1116.58 127.38C1116.26 130.13 1115.76 133.5 1115.47 134.88C1115.18 136.25 1114.73 139.18 1114.47 141.38C1114.21 143.58 1113.5 151.45 1112.9 158.88C1112.3 166.3 1112.09 177.33 1112.43 183.38C1112.78 189.43 1113.29 197.08 1113.57 200.38C1113.85 203.68 1114.28 207.95 1114.54 209.88C1114.79 211.8 1115.27 215.85 1115.6 218.88C1115.93 221.9 1116.35 224.6 1116.54 224.88C1116.74 225.15 1117.16 227.4 1117.49 229.88C1117.82 232.35 1118.54 236.18 1119.1 238.38C1119.65 240.58 1120.36 243.95 1120.67 245.88C1120.99 247.8 1122.1 252.3 1123.15 255.88C1124.19 259.45 1125.22 263.05 1125.43 263.88C1125.64 264.7 1126.14 266.73 1126.54 268.38C1126.95 270.03 1127.78 271.96 1128.39 272.67C1129 273.39 1129.16 273.95 1128.75 273.92C1128.34 273.9 1128.9 276.47 1130.01 279.63C1131.12 282.79 1132.32 286.05 1132.67 286.88C1133.03 287.7 1133.48 288.72 1133.66 289.13C1133.85 289.54 1134 290.1 1134 290.38C1134 290.65 1134.12 291.22 1134.26 291.63C1134.41 292.04 1135.19 293.85 1136.01 295.64C1136.83 297.43 1137.28 299.07 1137 299.29C1136.72 299.51 1127.05 299.88 1115.5 300.1C1103.95 300.33 1089.55 300.15 1083.5 299.7C1073.98 299 1071.96 298.53 1068.5 296.2C1066.3 294.72 1058.43 287.36 1051 279.84C1043.57 272.32 1036.15 264.47 1034.5 262.4C1032.85 260.32 1030.15 256.99 1028.5 255C1026.85 253.01 1025.05 250.87 1024.5 250.25C1023.95 249.63 1022.83 248.11 1022 246.88C1021.17 245.65 1019.94 244.02 1019.25 243.26C1018.56 242.5 1018 241.77 1018.01 241.63C1018.01 241.49 1014.2 235.53 1009.54 228.38C1004.89 221.23 1000.61 214.82 1000.04 214.13C999.47 213.44 999 212.65 999 212.38C999 212.1 997.12 208.62 994.82 204.63C992.52 200.64 986.71 189.5 981.91 179.88C977.12 170.25 969.38 153.6 964.72 142.88C960.06 132.15 951.01 110.78 944.61 95.3798C938.2 79.9798 931.89 66.0298 930.57 64.3798C928.85 62.2298 939.34 94.7998 967.6 179.38C989.29 244.28 1007.03 297.83 1007.02 298.38C1007.01 299.04 985.12 299.38 879.81 299.38L878.45 295.38C877.47 292.53 877.17 287.37 877.41 277.38C877.59 269.68 878.02 262.37 878.37 261.13C878.72 259.89 879.18 258.09 879.39 257.13C879.61 256.17 881.18 251.78 882.89 247.38C884.6 242.98 887.91 235.91 890.25 231.66C892.59 227.41 897.2 220.26 900.5 215.77C903.8 211.27 912.19 202.14 919.14 195.49C927.77 187.22 935.44 181 943.32 175.88C949.66 171.75 954.89 167.93 954.93 167.38C954.97 166.83 943.3 131.28 929 88.3798C914.7 45.4798 902.91 10.0797 902.8 9.70973C902.69 9.34973 903.9 8.62978 905.48 8.12978C907.07 7.61978 909.75 7.49975 911.43 7.84975ZM376 10.1398C407.07 10.1298 435.65 10.4497 439.5 10.8497C443.35 11.2397 445.37 11.6297 444 11.7097C442.62 11.7897 439.03 12.6797 436 13.6997C432.97 14.7197 428.47 16.7198 426 18.1398C423.53 19.5598 419.06 23.1198 416.07 26.0498C413.08 28.9798 409.06 33.8498 407.13 36.8798C405.21 39.8998 402.42 45.0798 400.94 48.3798C399.46 51.6798 397.12 57.7498 395.74 61.8798C394.37 65.9998 392.52 72.9798 391.63 77.3798C390.75 81.7798 389.8 86.9498 389.53 88.8798C389.26 90.7998 388.59 95.7498 388.05 99.8798C387.5 104 386.55 116.15 385.94 126.88C385.32 137.6 384.63 178.22 384 287.88H386.5C388.23 287.88 389.2 287.19 389.66 285.63C390.02 284.39 390.61 266.28 390.96 245.38C391.56 210.18 391.77 206.9 393.76 200.88C394.94 197.3 397.73 191.57 399.95 188.13C402.18 184.69 406.14 180.33 408.75 178.43C411.36 176.54 416.65 173.99 420.5 172.77C426.43 170.89 428.95 170.64 437 171.11C442.52 171.43 449.44 172.59 453.5 173.87C457.35 175.08 468.37 179.82 478 184.41C487.62 188.99 497.97 193.7 501 194.88C504.03 196.05 510.1 197.28 514.5 197.61C521.63 198.14 523.04 197.94 527.43 195.79C530.15 194.47 533.81 191.58 535.58 189.38C537.35 187.18 539.45 183.8 540.26 181.88C541.06 179.95 542.44 175 543.31 170.88C544.19 166.75 545.17 159.55 545.49 154.88C545.9 149.06 546.7 145.36 548.04 143.13C549.27 141.09 550.56 140.07 551.5 140.38C552.8 140.81 553.03 147.53 553.2 191.63C553.31 219.54 553.4 243.5 553.4 244.88C553.4 246.25 553.12 249.85 552.77 252.88C552.43 255.9 551.84 259.95 551.46 261.88C551.08 263.8 549.28 268.53 547.47 272.38C545.65 276.23 542.17 281.4 539.74 283.88C537.3 286.35 533.1 289.6 530.4 291.08C527.71 292.57 521.9 294.76 517.5 295.95C509.67 298.06 507.35 298.13 410.75 298.99C356.44 299.48 311.55 300.1 311 300.38C310.45 300.65 310 300.43 310 299.88C310 299.33 312.75 295.17 316.12 290.63C319.48 286.09 324.63 278.33 327.55 273.38C330.47 268.43 334.86 259.88 337.31 254.38C339.76 248.88 342.73 241.23 343.92 237.38C345.1 233.53 346.3 229.25 346.59 227.88C346.87 226.5 347.22 224.93 347.37 224.38C347.52 223.83 347.93 222.03 348.3 220.38C348.66 218.73 349.22 216.03 349.53 214.38C349.84 212.73 350.59 206.2 351.19 199.88C351.99 191.42 351.98 184.95 351.13 175.38C350.5 168.23 348.9 157.65 347.57 151.88C346.25 146.1 343.53 136.65 341.53 130.88C339.52 125.1 334.8 114.08 331.02 106.38C327.24 98.6798 320.56 86.9798 316.17 80.3798C311.78 73.7798 304.38 63.6498 299.71 57.8798C295.05 52.0998 287.34 43.3298 282.6 38.3798C277.85 33.4298 273.95 29.1498 273.94 28.8798C273.92 28.5998 275.73 26.4698 277.96 24.1298C280.18 21.7898 283.91 18.7897 286.25 17.4597C288.59 16.1297 292.97 14.3297 296 13.4597C299.03 12.5897 305.55 11.4898 310.5 11.0198C315.45 10.5398 344.92 10.1498 376 10.1398ZM109 11.5498C114.22 11.7598 119.85 12.1398 121.5 12.3998C123.15 12.6598 125.62 13.0598 127 13.2798C128.37 13.5098 131.75 14.2198 134.5 14.8698C137.25 15.5198 140.62 16.4298 142 16.8898C143.37 17.3498 147.65 18.9398 151.5 20.4298C155.35 21.9098 161.42 24.5998 165 26.3998C168.57 28.1998 173.3 31.0897 175.5 32.8197C177.7 34.5497 182.39 38.7598 185.92 42.1698C189.45 45.5898 194.29 51.2998 196.68 54.8798C199.07 58.4498 201.47 61.9398 202.02 62.6298C202.56 63.3198 202.7 64.0998 202.33 64.3798C201.97 64.6498 202.19 64.8798 202.83 64.8798C203.48 64.8798 203.78 65.3298 203.5 65.8798C203.22 66.4298 203.52 66.8798 204.17 66.8798C204.81 66.8798 205.05 67.2198 204.7 67.6298C204.35 68.0398 204.72 69.6198 205.53 71.1298C206.34 72.6398 207.06 74.2198 207.14 74.6298C207.22 75.0398 208.13 77.8498 209.16 80.8798C210.2 83.8998 211.79 90.1998 212.7 94.8798C213.84 100.7 214.35 108.42 214.32 119.38C214.3 129.29 213.47 142.14 212.14 153.13C210.96 162.89 210 172 210 173.38C210 175.5 211.03 176.35 216.75 178.94C220.46 180.63 227.78 184.85 233 188.33C238.22 191.81 246.05 198.2 250.38 202.52C254.71 206.84 260.49 213.53 263.22 217.38C265.95 221.23 270.11 228.2 272.47 232.88C274.82 237.55 277.95 244.75 279.43 248.88C280.91 253 283.2 261.78 284.54 268.38C285.87 274.98 287.31 284.32 288.5 297.9L230.5 297.93C174.96 297.97 172.56 297.89 174 296.19C174.82 295.21 176.56 293.27 177.86 291.89C179.15 290.51 182.77 286 185.89 281.88C189 277.75 193.6 270.33 196.1 265.38C198.6 260.43 201.44 253.9 202.42 250.88C203.41 247.85 204.39 244.59 204.6 243.63C204.82 242.67 205.25 240.87 205.56 239.63C205.86 238.39 206.5 234.9 206.97 231.88C207.44 228.85 207.67 219.85 207.48 211.88C207.29 203.9 206.85 195.58 206.51 193.38C206.16 191.18 205.68 189.15 205.44 188.88C205.2 188.6 204.78 188.6 204.51 188.88C204.25 189.15 203.79 190.73 203.49 192.38C203.2 194.03 202.56 196.28 202.08 197.38C201.59 198.48 199.76 203.65 198 208.88C196.25 214.1 192.46 223.33 189.58 229.38C186.71 235.43 181.8 244.32 178.68 249.13C175.56 253.94 169.29 261.63 164.75 266.22C160.21 270.8 154.03 276.39 151 278.63C147.97 280.87 141.67 284.71 137 287.16C132.32 289.62 124.9 292.77 120.5 294.17C116.1 295.56 108.67 297.42 104 298.3C99.04 299.24 90.3 299.9 83 299.9C76.12 299.9 68.03 299.45 65 298.92C61.97 298.38 58.37 297.73 57 297.48C55.62 297.23 51.8 296.07 48.5 294.9C45.2 293.73 39.8 291.34 36.51 289.58C33.21 287.82 27.36 283.4 23.51 279.75C19.52 275.98 14.78 270.17 12.5 266.29C10.3 262.53 7.47998 256.51 6.22998 252.92C4.97998 249.32 3.23999 242.55 2.35999 237.88C1.23999 231.89 0.919978 226.28 1.28998 218.88C1.62998 212.16 2.61002 205.86 4.02002 201.38C5.24002 197.53 7.36 192.13 8.75 189.38C10.14 186.63 12.95 181.9 14.99 178.88C17.03 175.85 21.58 170.5 25.1 166.98C28.62 163.47 34.2 158.67 37.5 156.32C40.8 153.97 47.1 150.2 51.5 147.94C55.9 145.68 63.55 142.53 68.5 140.94C73.45 139.35 81.55 137.25 86.5 136.27C92.8 135.04 100.45 134.49 112 134.46C123.99 134.42 130.96 134.9 137.5 136.2C142.45 137.18 149.87 139.12 154 140.49C158.12 141.87 163.97 144.14 167 145.53C170.03 146.93 174.97 149.55 178 151.37C181.03 153.19 187.32 157.7 200.5 168.1L201.24 165.24C201.65 163.67 201.75 161.03 201.48 159.38C201.2 157.73 200.79 154.8 200.56 152.88C200.33 150.95 199.84 147.58 199.48 145.38C199.11 143.18 197.48 138.23 195.86 134.38C194.23 130.53 191.8 125.69 190.45 123.63C189.1 121.57 187.21 118.91 186.25 117.72C185.29 116.54 182.92 113.78 181 111.6C179.07 109.42 173.9 105.28 169.5 102.41C165.1 99.5298 158.46 95.9798 154.75 94.5298C151.04 93.0698 144.96 91.3898 141.25 90.7898C137.54 90.1898 130.45 89.7198 125.5 89.7598C119.75 89.7998 113.61 90.5798 108.5 91.9298C104.1 93.0898 97.35 95.3398 93.5 96.9298C89.65 98.5198 82.45 102.49 77.5 105.74C72.55 109 65.3199 114.75 61.4399 118.52C57.5499 122.29 52.04 128.19 44 137.88L41.14 131.63C39.56 128.19 29.66 107.27 19.14 85.1298C8.61001 62.9898 0 44.6498 0 44.3798C0 44.0998 6.64 40.5598 14.75 36.5098C22.86 32.4498 34.67 27.0897 41 24.5897C47.32 22.0897 57.67 18.6898 64 17.0298C70.32 15.3698 78.87 13.5198 83 12.9298C87.12 12.3398 92.53 11.6998 95 11.5098C97.47 11.3198 103.78 11.3398 109 11.5498ZM122.25 168.9C117.44 170.55 110.18 173.82 106.13 176.15C102.07 178.47 96.43 182.85 93.59 185.88C90.36 189.32 87.59 193.53 86.21 197.13C84.71 201.03 84 205.05 84.01 209.63C84.02 214.6 84.64 217.7 86.36 221.38C87.64 224.13 90.23 227.9 92.1 229.76C93.97 231.61 97.75 234.19 100.5 235.49C103.25 236.79 109.32 238.35 114 238.96C120.87 239.86 124.13 239.79 131 238.6C135.67 237.79 143.1 235.73 147.5 234.03C151.9 232.33 159.1 228.59 163.5 225.72C167.9 222.86 174.93 217.11 179.11 212.95C183.3 208.79 188.61 202.45 190.9 198.88C193.2 195.3 195.96 190.02 197.04 187.13C198.12 184.24 199.01 180.87 199.03 179.63C199.04 178.39 198.03 176.42 196.78 175.24C195.52 174.07 191.12 171.95 187 170.54C182.87 169.13 176.12 167.25 172 166.37C167.87 165.48 159.78 164.58 154 164.37C148.22 164.16 140.69 164.42 137.25 164.93C133.81 165.45 127.06 167.24 122.25 168.9ZM678 11.5298C683.22 11.7398 689.07 12.1198 691 12.3898C692.92 12.6498 695.4 13.0498 696.5 13.2698C697.6 13.4998 701.42 14.4297 705 15.3497C708.57 16.2697 713.3 17.6298 715.5 18.3898C717.7 19.1398 722.2 20.8198 725.5 22.1098C728.8 23.4098 732.85 25.3697 734.5 26.4597C736.15 27.5597 738.85 29.1098 740.5 29.9198C742.15 30.7198 748.25 36.0998 754.05 41.8798C760.85 48.6498 766.04 54.8698 768.66 59.3798C770.9 63.2298 773.41 67.9498 774.25 69.8798C775.08 71.7998 776.26 74.7298 776.86 76.3798C777.47 78.0298 778.68 82.0798 779.56 85.3798C780.44 88.6798 781.39 92.9498 781.67 94.8798C781.96 96.7998 782.56 100.4 783 102.88C783.44 105.35 783.67 113.68 783.49 121.38C783.32 129.08 782.46 141 781.58 147.88C780.71 154.75 779.65 163.8 778.5 175.59L783.5 177.72C786.25 178.9 789.17 180.32 790 180.89C790.82 181.45 792.63 182.47 794 183.15C795.38 183.83 799.19 186.18 802.46 188.38C805.74 190.58 809.47 193.28 810.75 194.38C812.03 195.48 816.33 199.68 820.29 203.71C824.26 207.75 829.43 213.6 831.78 216.71C834.13 219.83 838.19 226.65 840.79 231.88C843.39 237.1 846.3 243.18 847.25 245.38C848.2 247.58 849.16 250.28 849.39 251.38C849.61 252.48 850.54 256.08 851.44 259.38C852.34 262.68 853.3 266.28 853.57 267.38C853.84 268.48 854.29 271.18 854.57 273.38C854.85 275.58 855.27 278.28 855.49 279.38C855.71 280.48 856.15 285.09 857 297.88L799.25 297.92C743.82 297.97 741.56 297.9 742.98 296.17C743.8 295.19 746.5 292.11 748.98 289.34C751.47 286.57 755.57 281.17 758.11 277.34C760.64 273.51 764.31 267.23 766.25 263.38C768.19 259.53 770.92 252.55 772.32 247.88C773.72 243.2 775.35 236.12 775.93 232.13C776.52 228.14 777 220.27 777 214.63C777 208.99 776.44 200.66 775.75 196.12C775.06 191.57 774.28 187.85 774 187.85C773.72 187.85 772.2 192.24 770.62 197.61C769.03 202.99 765.74 212.33 763.31 218.38C760.87 224.43 756.92 232.98 754.52 237.38C752.12 241.78 747.87 248.64 745.08 252.63C742.28 256.62 736.51 263.4 732.25 267.71C727.99 272.01 722.92 276.67 721 278.05C719.07 279.43 713.9 282.65 709.5 285.19C705.1 287.73 697.67 291.21 693 292.93C688.32 294.66 680.11 296.92 674.75 297.97C668.21 299.25 660.72 299.88 652 299.88C642.9 299.88 635.92 299.27 628.75 297.83C621.63 296.41 615.6 294.38 609 291.2C601.14 287.4 598.1 285.21 591.4 278.49C585.05 272.13 582.41 268.55 579.15 261.88C576.86 257.2 574.05 249.78 572.9 245.38C571.68 240.67 570.6 232.65 570.3 225.88C569.86 216.27 570.13 212.9 571.95 205.38C573.18 200.26 576.01 192.71 578.5 187.88C580.91 183.2 584.57 177.35 586.64 174.88C588.72 172.4 592.91 167.98 595.96 165.04C599 162.11 605.1 157.3 609.5 154.37C613.9 151.43 620.42 147.7 624 146.09C627.57 144.48 634.32 141.94 639 140.46C643.67 138.97 652.45 136.91 658.5 135.87C665.41 134.69 673.96 134.02 681.5 134.07C688.1 134.11 697.1 134.76 701.5 135.51C705.9 136.27 712.87 137.74 717 138.78C721.12 139.83 728.55 142.44 733.5 144.58C738.45 146.73 745.65 150.52 749.5 153.01C753.35 155.5 759.54 160.09 770 168.88L770.02 160.13C770.03 153.67 769.36 149.02 767.46 142.38C766.04 137.43 763.38 130.68 761.55 127.38C759.71 124.08 756.22 118.9 753.78 115.88C751.35 112.85 746.46 108.19 742.93 105.52C739.39 102.84 733.35 99.0798 729.5 97.1498C725.65 95.2198 719.12 92.7798 715 91.7298C710.34 90.5398 704.09 89.8197 698.5 89.8197C693.55 89.8197 687.36 90.0597 684.75 90.3497C682.14 90.6397 679.44 91.1698 678.75 91.5398C678.06 91.8998 676.37 92.3798 675 92.6098C673.62 92.8398 669.12 94.3298 665 95.9298C660.87 97.5198 654.12 100.91 650 103.45C645.87 105.99 639.39 110.61 635.6 113.72C631.8 116.83 625.28 123.34 621.1 128.17C616.92 133.01 613.28 136.96 613 136.96C612.72 136.96 611.31 134.35 609.86 131.17C608.4 127.98 598.62 107.27 588.11 85.1298C577.6 62.9898 569 44.6498 569 44.3798C569 44.0998 575.64 40.5598 583.75 36.5098C591.86 32.4598 603.67 27.0698 610 24.5398C616.32 22.0198 626.45 18.6398 632.5 17.0498C638.55 15.4498 647.55 13.6298 652.5 12.9998C657.45 12.3698 663.07 11.6998 665 11.5098C666.92 11.3198 672.78 11.3298 678 11.5298ZM695 167.44C691.97 168.3 685.22 171.07 680 173.59C672.64 177.14 669.02 179.66 663.91 184.77C658.91 189.78 656.78 192.83 655.09 197.38C653.86 200.69 652.83 205.85 652.78 208.88C652.74 211.9 653.29 216.18 654.01 218.38C654.73 220.58 656.48 224.11 657.91 226.23C659.33 228.35 662.53 231.41 665 233.03C667.47 234.65 671.75 236.6 674.5 237.37C677.25 238.14 682.42 239.04 686 239.38C689.98 239.75 695.6 239.44 700.5 238.56C704.9 237.78 711.65 235.89 715.5 234.37C719.35 232.85 725.42 229.91 729 227.84C732.57 225.76 738.63 221.44 742.45 218.22C746.27 215.01 751.77 209.45 754.67 205.88C757.57 202.3 761.56 196.23 763.52 192.38C765.49 188.53 767.35 183.58 767.65 181.38C768.09 178.06 767.79 177.02 765.84 175.24C764.55 174.07 760.12 171.95 756 170.54C751.87 169.13 745.12 167.25 741 166.37C736.87 165.48 728.78 164.58 723 164.37C717.22 164.16 709.8 164.41 706.5 164.93C703.2 165.45 698.03 166.58 695 167.44ZM1184 74.3798L1187 77.8798C1188.65 79.7998 1190 81.8298 1190 82.3798C1190 82.9298 1191.14 84.7298 1192.53 86.3798C1193.92 88.0298 1195.05 89.7198 1195.03 90.1298C1195.01 90.5398 1198.71 94.6297 1203.25 99.2097C1207.79 103.79 1213.64 108.96 1216.25 110.71C1218.86 112.45 1221.34 113.86 1221.75 113.84C1222.16 113.81 1223 114.37 1223.62 115.09C1224.23 115.8 1227.6 117.58 1231.12 119.05C1234.63 120.52 1238.4 122.05 1239.5 122.45C1240.6 122.85 1241.95 123.34 1242.5 123.52C1243.05 123.71 1246.65 124.72 1250.5 125.77C1254.35 126.82 1260.2 128 1263.5 128.4C1266.8 128.8 1270.62 129.28 1272 129.46C1273.37 129.64 1278.32 130.06 1283 130.37C1287.68 130.69 1304.1 131.37 1319.5 131.88C1338.95 132.52 1349.26 133.27 1353.25 134.34C1356.41 135.19 1360.69 136.98 1362.75 138.33C1364.81 139.67 1367.61 142.71 1368.97 145.08C1370.33 147.44 1371.61 150.05 1371.82 150.88C1372.02 151.7 1372.28 155.98 1372.38 160.38C1372.48 164.78 1372.02 170.85 1371.36 173.88C1370.69 176.91 1369.79 182.3 1369.35 185.88C1368.91 189.45 1368.58 196.88 1368.61 202.38C1368.65 209.43 1369.22 214 1370.55 217.88C1371.9 221.83 1373.85 224.74 1377.47 228.18C1380.43 231.02 1384.76 233.87 1388 235.13C1392.73 236.97 1395.94 237.3 1411 237.55C1423.44 237.75 1433.71 237.26 1446.5 235.85C1456.4 234.76 1465.51 233.87 1469 233.88V298.88L1466.25 298.36C1464.74 298.07 1462.15 297.64 1460.5 297.4C1458.85 297.15 1452.78 296.08 1447 295.01C1441.22 293.93 1434.03 292.75 1431 292.37C1427.97 291.99 1424.37 291.53 1423 291.36C1421.62 291.18 1418.47 290.76 1416 290.42C1413.53 290.08 1409.47 289.6 1407 289.35C1404.53 289.1 1401.37 288.68 1400 288.41C1398.62 288.15 1393.68 287.66 1389 287.32C1384.32 286.98 1378.25 286.46 1375.5 286.17C1372.75 285.88 1352.95 285.51 1331.5 285.37C1310.05 285.22 1287.1 285.5 1280.5 285.99C1273.9 286.48 1262.2 287.58 1254.5 288.44C1246.8 289.29 1238.47 290.2 1236 290.45C1233.53 290.7 1229.03 291.37 1226 291.93C1222.97 292.5 1218.7 293.18 1216.5 293.46C1214.3 293.74 1211.37 294.21 1210 294.52C1208.62 294.82 1206.37 295.26 1205 295.48C1203.62 295.7 1200.93 296.17 1199 296.53C1197.07 296.89 1194.82 297.31 1194 297.47C1193.18 297.64 1190.81 298.02 1185 298.88V265.88C1185 234.95 1185.11 232.91 1186.75 233.32C1187.71 233.56 1192.1 234.03 1196.5 234.35C1200.9 234.68 1205.18 235.14 1206 235.38C1206.82 235.61 1215.6 236.51 1225.5 237.38C1235.4 238.24 1244.18 238.73 1245 238.46C1245.82 238.2 1249.2 237.7 1252.5 237.36C1255.8 237.01 1258.95 236.47 1259.5 236.15C1260.05 235.83 1261.62 235.38 1263 235.14C1264.37 234.91 1266.85 234 1268.5 233.13C1270.15 232.25 1272.11 231.05 1272.85 230.46C1273.59 229.87 1275.54 228.03 1277.17 226.38C1278.81 224.73 1280.96 221.8 1281.95 219.88C1282.94 217.95 1284.26 214.02 1284.88 211.13C1285.49 208.24 1286 203.52 1286.01 200.63C1286.01 197.74 1285.32 192.68 1284.47 189.38C1283.63 186.08 1281.26 180.96 1279.22 178.01C1277.17 175.05 1274.6 172.17 1273.5 171.61C1272.4 171.04 1271.28 170.26 1271 169.86C1270.72 169.47 1268.7 168.23 1266.5 167.11C1264.3 165.99 1259.8 164.39 1256.5 163.54C1253.2 162.7 1247.35 161.7 1243.5 161.33C1238.93 160.89 1232.68 161.21 1225.5 162.25C1219.45 163.13 1209.1 165.46 1202.5 167.44C1195.9 169.42 1190.07 171.46 1189.55 171.96C1189.03 172.47 1187.56 172.88 1184 172.88V74.3798Z" fill="#4D6AB4"/>
</svg>
