<svg width="900" height="130" viewBox="0 0 900 130" fill="none" xmlns="http://www.w3.org/2000/svg">
<g clip-path="url(#clip0_1229_702)">
<path d="M0 1.49425L21.5 12.1035C43 22.6379 86 43.8563 128.8 48.7873C171.7 53.7931 214.3 42.5862 257.2 33.3966C300 24.1322 343 16.9598 385.8 9.93677C428.7 2.9885 471.3 -3.73563 514.2 5.60345C557 14.9425 600 40.3448 642.8 46.4713C685.7 52.523 728.3 39.3736 771.2 28.3908C814 17.408 857 8.74137 878.5 4.33332L900 0V130H878.5C857 130 814 130 771.2 130C728.3 130 685.7 130 642.8 130C600 130 557 130 514.2 130C471.3 130 428.7 130 385.8 130C343 130 300 130 257.2 130C214.3 130 171.7 130 128.8 130C86 130 43 130 21.5 130H0V1.49425Z" fill="#4D6AB4"/>
</g>
<defs>
<clipPath id="clip0_1229_702">
<rect width="900" height="130" fill="white"/>
</clipPath>
</defs>
</svg>
