<svg id="visual" viewBox="0 0 900 600" width="900" height="600" xmlns="http://www.w3.org/2000/svg" xmlns:xlink="http://www.w3.org/1999/xlink" version="1.1"><path d="M0 429L21.5 443.2C43 457.3 86 485.7 128.8 492.3C171.7 499 214.3 484 257.2 471.7C300 459.3 343 449.7 385.8 440.3C428.7 431 471.3 422 514.2 434.5C557 447 600 481 642.8 489.2C685.7 497.3 728.3 479.7 771.2 465C814 450.3 857 438.7 878.5 432.8L900 427L900 601L878.5 601C857 601 814 601 771.2 601C728.3 601 685.7 601 642.8 601C600 601 557 601 514.2 601C471.3 601 428.7 601 385.8 601C343 601 300 601 257.2 601C214.3 601 171.7 601 128.8 601C86 601 43 601 21.5 601L0 601Z" fill="#496BBB" stroke-linecap="round" stroke-linejoin="miter"></path></svg>