<svg xmlns="http://www.w3.org/2000/svg" xmlns:xlink="http://www.w3.org/1999/xlink" id="visual" viewBox="0 0 896 222" width="896" height="222" version="1.1"><path d="M0 106L21.5 108.5C43 111 86 116 128.8 134.2C171.7 152.3 214.3 183.7 257.2 200.3C300 217 343 219 385.8 205.5C428.7 192 471.3 163 514.2 139.2C557 115.3 600 96.7 642.8 102C685.7 107.3 728.3 136.7 771.2 153.5C814 170.3 857 174.7 878.5 176.8L900 179L900 0L878.5 0C857 0 814 0 771.2 0C728.3 0 685.7 0 642.8 0C600 0 557 0 514.2 0C471.3 0 428.7 0 385.8 0C343 0 300 0 257.2 0C214.3 0 171.7 0 128.8 0C86 0 43 0 21.5 0L0 0Z" fill="#496BBB" stroke-linecap="round" stroke-linejoin="miter"/></svg>