<svg width="896" height="222" viewBox="0 0 896 222" fill="none" xmlns="http://www.w3.org/2000/svg">
<g clip-path="url(#clip0_1229_700)">
<path d="M0 64.2767L21.5 65.7926C43 67.3086 86 70.3405 128.8 81.3767C171.7 92.3522 214.3 111.393 257.2 121.459C300 131.585 343 132.798 385.8 124.612C428.7 116.426 471.3 98.8405 514.2 84.4086C557 69.916 600 58.6373 642.8 61.8511C685.7 65.065 728.3 82.8926 771.2 93.0799C814 103.267 857 105.935 878.5 107.209L900 108.543V0H878.5C857 0 814 0 771.2 0C728.3 0 685.7 0 642.8 0C600 0 557 0 514.2 0C471.3 0 428.7 0 385.8 0C343 0 300 0 257.2 0C214.3 0 171.7 0 128.8 0C86 0 43 0 21.5 0H0V64.2767Z" fill="#4D6AB4"/>
</g>
<defs>
<clipPath id="clip0_1229_700">
<rect width="896" height="222" fill="white"/>
</clipPath>
</defs>
</svg>
