<svg width="900" height="130" viewBox="0 0 900 130" fill="none" xmlns="http://www.w3.org/2000/svg">
<g clip-path="url(#clip0_1229_717)">
<path d="M900 128.506L878.5 117.897C857 107.362 814 86.1437 771.2 81.2127C728.3 76.2069 685.7 87.4138 642.8 96.6034C600 105.868 557 113.04 514.2 120.063C471.3 127.012 428.7 133.736 385.8 124.397C343 115.057 300 89.6552 257.2 83.5287C214.3 77.477 171.7 90.6264 128.8 101.609C86 112.592 43 121.259 21.5 125.667L0 130V-4.05312e-06H21.5C43 -4.05312e-06 86 -4.05312e-06 128.8 -4.05312e-06C171.7 -4.05312e-06 214.3 -4.05312e-06 257.2 -4.05312e-06C300 -4.05312e-06 343 -4.05312e-06 385.8 -4.05312e-06C428.7 -4.05312e-06 471.3 -4.05312e-06 514.2 -4.05312e-06C557 -4.05312e-06 600 -4.05312e-06 642.8 -4.05312e-06C685.7 -4.05312e-06 728.3 -4.05312e-06 771.2 -4.05312e-06C814 -4.05312e-06 857 -4.05312e-06 878.5 -4.05312e-06H900V128.506Z" fill="#7C7F37"/>
</g>
<defs>
<clipPath id="clip0_1229_717">
<rect width="900" height="130" fill="white" transform="matrix(-1 0 0 -1 900 130)"/>
</clipPath>
</defs>
</svg>
