<svg width="3516" height="320" viewBox="0 0 3516 320" fill="none" xmlns="http://www.w3.org/2000/svg">
<path d="M2769.79 22.0225C2776.63 20.2447 2781.52 20.2447 2787.57 22.0225C2793.86 23.8447 2797.55 27.0444 2802.59 35C2807.01 41.9554 2809.28 48.3998 2809.26 53.8887C2809.26 58.4664 2807.57 66.467 2805.53 71.667C2803.48 76.867 2797.21 87.5554 2791.63 95.4219C2786.03 103.289 2772.94 118.289 2762.54 128.756C2752.12 139.222 2736.63 152.311 2728.09 157.866C2719.54 163.4 2709.56 169.222 2699.22 173.688L2701.02 188.511C2702.07 197.066 2705.53 208.978 2709.25 216.667C2712.78 224 2718.98 233.889 2723 238.645C2727.05 243.4 2734.85 249.844 2740.34 252.978C2747.83 257.222 2753.41 258.622 2762.56 258.533C2772.12 258.444 2777.81 256.777 2802.5 243.333L2801.08 217.777C2799.84 195.511 2800.26 190.222 2804.35 176.667C2806.93 168.111 2812.68 155.111 2817.13 147.777C2821.57 140.444 2829.02 129.955 2833.66 124.444C2838.33 118.955 2847.49 111.156 2854.02 107.134C2864.27 100.823 2867.13 100.045 2874.8 101.378C2880.2 102.311 2886.09 105.422 2889.8 109.244C2895.34 114.955 2895.91 117.089 2895.89 131.667C2895.87 140.534 2894.36 152.023 2892.56 157.223C2890.74 162.423 2886.62 171.911 2883.42 178.333C2880.22 184.755 2873.33 196 2868.09 203.333C2862.87 210.666 2851 223.911 2824.79 248.889L2829.79 257.889C2832.55 262.844 2838.55 269.355 2843.13 272.333C2848.84 276.066 2854.62 277.777 2861.47 277.777C2867.56 277.777 2876.45 275.489 2884.25 271.911C2891.27 268.689 2903.03 261.978 2910.36 256.978C2917.69 251.978 2931.05 240.867 2940.08 232.289C2949.08 223.689 2958.41 212.666 2960.86 207.777C2963.88 201.689 2964.83 196.6 2963.92 191.667C2963.06 186.912 2960.66 183.489 2956.9 181.667C2951.92 179.245 2949.99 179.6 2941.52 184.444C2932.87 189.422 2931.47 189.645 2928.23 186.667C2926.23 184.845 2924.65 182.089 2924.72 180.556C2924.76 179.022 2928.56 174.778 2933.14 171.089C2939.59 165.933 2943.74 164.4 2951.48 164.355C2958.14 164.311 2963.52 165.8 2967.59 168.822C2970.95 171.289 2975.19 176.333 2977.04 180C2978.88 183.667 2980.37 190.667 2980.37 195.556C2980.37 200.445 2978.12 209.155 2975.37 214.889C2972.61 220.644 2963.37 232.222 2954.81 240.622C2946.25 249.022 2930.74 261.645 2920.36 268.645C2909.98 275.667 2895.47 283.778 2888.14 286.667C2878.76 290.378 2870.18 291.955 2859.24 292.044C2845.97 292.133 2842.29 291.244 2834.24 286.066C2829.04 282.733 2821.55 275.111 2810.35 258.244L2794.79 266.089C2781.17 272.956 2777.14 273.956 2762.56 274C2749.76 274.067 2743.72 272.955 2736.45 269.267C2731.25 266.622 2723.34 261.2 2718.83 257.223C2714.34 253.245 2706.8 244 2702.09 236.667C2697.4 229.334 2691.91 218.334 2689.93 212.223C2687.95 206.112 2685.73 196.111 2683.67 178.889L2662.55 177.578C2649.95 176.778 2637.1 174.555 2619.9 167.777L2615.12 173.511C2612.48 176.644 2607.32 181.244 2603.66 183.688C2599.99 186.133 2591.5 190.2 2584.76 192.733C2578.03 195.267 2564.03 198.467 2553.65 199.845C2543.27 201.222 2529.27 202.577 2510.31 203.333L2509.2 246.667L2516.98 254.444C2521.24 258.733 2524.27 263.222 2523.65 264.444C2522.96 265.822 2504.02 266.667 2473.64 266.667C2446.75 266.667 2423.21 265.911 2421.32 265C2418.52 263.622 2419.23 262.022 2432.52 248.645L2433.17 148.223C2433.52 92.9782 2433.26 45.5329 2432.61 42.7773C2431.94 40.0217 2428.88 35.5327 2425.81 32.7773C2422.72 30.0218 2420.21 26.5333 2420.25 25C2420.28 22.8889 2431.12 22.0892 2465.3 21.667C2490.06 21.3559 2517.8 21.422 2526.98 21.7998C2536.14 22.1554 2551.14 24.0443 2560.32 25.9775C2569.47 27.9109 2582.47 32.2443 2589.21 35.6221C2595.94 38.9998 2605.94 45.6893 2611.43 50.4893C2617.46 55.7338 2624.26 64.9117 2628.5 73.4893C2633.08 82.7559 2636.1 92.8672 2637.06 102.223C2637.97 110.978 2637.5 121.911 2635.86 130C2634.37 137.333 2632.68 145.844 2632.08 148.889C2631.26 153.244 2632.28 155.045 2636.79 157.223C2639.95 158.756 2649.31 160.6 2657.55 161.333C2666.51 162.111 2675.02 161.667 2678.67 160.223C2683.58 158.245 2685.04 155.933 2686.15 148.333C2686.91 143.133 2690.02 131.888 2693.07 123.333C2696.11 114.777 2702.13 101.288 2706.42 93.333C2710.74 85.3996 2719.25 71.8885 2725.36 63.333C2731.47 54.7775 2741.83 42.5335 2748.41 36.1113C2756.59 28.1115 2763.32 23.6892 2769.79 22.0225ZM1122.91 20.0889C1125.05 20.0444 1127.31 21.5109 1127.91 23.333C1128.51 25.1775 1129.02 76.1559 1129.02 246.667L1135.69 253.333C1139.36 257 1142.36 261 1142.36 262.223C1142.36 263.445 1139.11 265 1135.14 265.667C1131.16 266.334 1112.49 267.088 1059.35 267.777L1057.53 260.556C1056.5 256.578 1055.17 253.333 1054.57 253.333C1053.97 253.334 1049.21 256.423 1044.01 260.178C1038.81 263.956 1031.08 268.466 1026.79 270.244C1022.41 272.044 1011.99 273.422 1002.9 273.378C991.852 273.356 982.762 271.823 974.005 268.489C965.893 265.423 957.492 259.934 951.047 253.489C945.424 247.912 938.312 237.845 935.2 231.111C932.111 224.378 927.866 213.888 925.799 207.777C923.754 201.666 921.509 189.178 920.82 180C920.131 170.845 920.688 156.089 922.065 147.223C923.488 138.023 927.51 125.156 931.466 117.223C935.266 109.578 943.001 98.9115 948.69 93.4893C954.358 88.0893 964.515 81.1111 971.227 78C979.428 74.2222 988.584 72.0668 999.008 71.4668C1007.9 70.9335 1018.37 71.7338 1023.46 73.3115C1028.34 74.8448 1037.35 78.4886 1043.46 81.4219C1049.57 84.3552 1055.08 86.1552 1055.68 85.4219C1056.28 84.6882 1056.55 79.6664 1056.24 74.2666C1055.84 67.0668 1053.9 62.3557 1049.01 56.667C1044.57 51.4818 1043.01 47.9632 1044.33 46.1113C1045.41 44.578 1050.15 42.0892 1054.88 40.5781C1059.59 39.0448 1072.95 35.1556 1084.57 31.9111C1096.2 28.6667 1108.69 24.6889 1112.36 23.0889C1116.02 21.489 1120.78 20.1335 1122.91 20.0889ZM856.768 79.5996C885.749 77.7996 892.861 77.9332 895.262 80.3555C897.573 82.6889 898.395 101.6 899.084 167.777C899.884 246.11 900.24 252.622 904.107 257.777C906.397 260.844 907.93 264.578 907.53 266.111C906.997 268.045 901.329 268.889 888.994 268.889C876.77 268.889 867.391 267.511 858.99 264.444C850.189 261.244 844.633 257.355 831.521 241.111L826.364 247.688C823.519 251.288 818.696 256.555 815.651 259.355C812.584 262.178 805.85 266.467 800.649 268.911C793.849 272.089 786.537 273.333 774.535 273.333C765.356 273.333 753.177 272.089 747.421 270.556C740.398 268.689 733.596 264.511 726.573 257.777C720.173 251.622 714.283 243.089 711.216 235.556C706.637 224.245 706.171 218.733 703.859 101.111L697.525 95C694.036 91.6448 691.192 87.8896 691.191 86.667C691.191 85.4448 693.436 83.8227 696.192 83.0449C698.949 82.2894 712.194 80.9111 725.64 80C739.086 79.0889 755.577 78.4665 774.535 78.8887L775.824 145.556C776.713 190.6 778.047 215.111 780.003 221.111C781.581 226 784.981 232.266 787.581 235.066C790.915 238.6 794.804 240.089 800.649 240.066C805.228 240.022 810.984 239 813.429 237.777C815.873 236.555 819.63 232.311 821.764 228.333C825.142 222.044 825.719 213.353 826.764 102.223L820.097 95.5557C816.43 91.8893 813.429 87.8896 813.429 86.667C813.429 85.4448 815.185 83.8447 817.318 83.1113C819.452 82.4002 837.21 80.7996 856.768 79.5996ZM561.175 72.0449C562.397 71.556 572.887 71.5331 584.511 71.9775C596.868 72.4664 610.247 74.3996 616.737 76.6885C622.849 78.8218 633.607 84.4444 640.63 89.1777C647.653 93.9111 656.543 102.023 660.365 107.223C664.166 112.423 669.322 121.178 671.767 126.667C674.234 132.178 677.611 141.911 679.278 148.333C680.945 154.755 682.257 165.755 682.213 172.777C682.168 179.799 680.857 191.066 679.257 197.777C677.679 204.511 673.967 215 671.011 221.111C668.055 227.222 660.121 237.778 653.409 244.578C646.675 251.356 636.184 259.289 630.072 262.2C623.96 265.089 613.959 268.778 607.848 270.378C601.736 271.978 589.734 273.289 581.178 273.289C572.621 273.289 560.62 271.978 554.508 270.378C548.396 268.778 538.883 265.355 533.394 262.777C527.882 260.2 518.392 253.666 512.28 248.267C505.546 242.311 498.301 232.845 493.878 224.223C489.877 216.401 485.165 204 483.409 196.667C481.653 189.334 480.209 178.334 480.209 172.223C480.209 166.112 481.654 155.111 483.432 147.777C485.21 140.444 489.144 129.444 492.188 123.333C495.211 117.222 501.479 108.156 506.102 103.2C510.724 98.2446 518.992 91.1108 524.504 87.333C529.994 83.5775 539.994 78.7773 546.729 76.6885C553.44 74.5997 559.952 72.5118 561.175 72.0449ZM3172.62 72.3115C3180.39 69.9115 3189.4 69.1998 3202.62 69.8887C3213 70.4442 3225.02 72.1778 3229.29 73.7334C3233.56 75.289 3242.07 79.7329 3248.18 83.5996C3254.45 87.5774 3262.92 95.8221 3267.58 102.533C3272.14 109.089 3277.38 119.445 3279.23 125.556C3281.07 131.667 3282.63 140.178 3282.67 144.444C3282.74 149.111 3281.19 153.756 3278.81 156.022C3275.34 159.356 3268.41 159.911 3172.62 161.111L3173.24 171.111C3173.57 176.622 3175.93 185.623 3178.44 191.111C3180.97 196.622 3186.2 204.423 3190.04 208.489C3193.91 212.534 3200.06 217.733 3203.73 220.044C3207.4 222.355 3215.89 225.889 3222.62 227.911C3231.22 230.467 3240.78 231.333 3254.85 230.777C3273.83 230.044 3274.81 230.222 3274.12 234.444C3273.72 236.889 3269.72 242.645 3265.23 247.223C3260.74 251.822 3252.56 258.044 3247.07 261.044C3241.58 264.066 3230.07 268.022 3221.51 269.845C3209.44 272.422 3202.46 272.666 3190.4 270.978C3181.84 269.778 3167.84 266.089 3159.28 262.8C3148.61 258.666 3139.88 253.222 3131.5 245.444C3124.77 239.178 3116.9 229.155 3113.99 223.155C3111.1 217.133 3107.16 207.222 3105.27 201.111C3103.19 194.445 3101.78 181.578 3101.76 168.889C3101.72 153.867 3102.92 144.244 3105.9 135.556C3108.21 128.845 3112.32 119.333 3115.03 114.444C3117.72 109.555 3124.88 101.067 3130.9 95.5557C3136.92 90.0669 3146.26 83.3558 3151.68 80.6445C3157.08 77.9557 3166.5 74.2004 3172.62 72.3115ZM82.7812 24.7559C85.0482 22.2892 96.8273 21.9551 146.678 22.9551C197.084 23.9773 210.731 24.9337 224.466 28.4893C233.623 30.8671 247.069 35.6667 254.292 39.1777C261.537 42.6889 271.538 49.6002 276.517 54.5557C281.517 59.489 287.829 68.2444 290.585 74C293.341 79.7333 296.742 90.6886 298.187 98.333C300.209 109.177 300.141 115.867 297.919 128.889C296.363 138.066 292.674 150.556 289.763 156.667C286.829 162.778 280.184 171.955 275.006 177.066C269.827 182.2 260.582 188.778 254.47 191.733C248.358 194.689 237.845 198.2 231.133 199.556C224.398 200.911 208.908 203.111 196.685 204.467C184.462 205.822 173.707 207.378 172.793 207.911C171.882 208.444 171.17 218.133 171.236 229.444C171.325 249.955 171.348 250.023 179.016 257.223C183.238 261.2 186.172 265.445 185.572 266.667C184.882 268.045 165.568 268.889 134.454 268.889C103.342 268.889 84.0289 268.045 83.3369 266.667C82.7146 265.445 84.7148 261.689 93.249 252.223L93.3379 40L86.6709 33.8887C81.2258 28.911 80.5144 27.2225 82.7812 24.7559ZM2085.66 26.5781C2086.97 26.5115 2089.24 27.7555 2090.68 29.3555C2092.12 30.9335 2093.64 40.2004 2094.7 67.7109L2102.64 68.8662C2107.02 69.4885 2112.3 71.4886 2114.42 73.333C2116.5 75.177 2118.17 77.1768 2118.11 77.7773C2118.04 78.3996 2117.02 80.3782 2115.84 82.2227C2114.66 84.067 2109.41 86.0664 2094.7 87.7773L2094.1 157.777C2093.66 210.576 2094.21 229.31 2096.32 233.978C2098.79 239.378 2100.37 240.156 2108.59 240.089C2116.93 240 2118.04 240.6 2118.11 245C2118.13 247.755 2115.88 252.222 2113.1 254.955C2110.3 257.666 2102.79 261.934 2096.37 264.4C2089.95 266.867 2079.94 268.889 2074.14 268.889C2068.34 268.889 2058.08 266.867 2051.36 264.378C2044.65 261.889 2037.34 258.155 2035.16 256.044C2032.96 253.933 2029.21 247.977 2026.83 242.777C2022.78 234.022 2022.47 228.132 2022.47 91.1113L2016.92 86.667C2013.65 84.0671 2011.36 79.9336 2011.36 76.667C2011.36 71.9559 2012.65 70.9109 2019.69 69.7998C2024.27 69.0665 2031.54 67.3331 2035.81 65.9775C2040.07 64.5998 2047.59 60.8445 2052.47 57.6445C2057.36 54.4445 2066.3 46.1775 2072.32 39.2441C2078.34 32.3336 2084.34 26.6235 2085.66 26.5781ZM434.492 71.1553C442.049 71.0664 448.806 72.6893 455.606 76.2227C461.963 79.5338 467.408 84.6223 470.563 90.1777C473.297 94.9555 475.542 102.645 475.564 107.223C475.587 111.8 473.741 119.311 471.452 123.889C469.185 128.466 464.429 134.178 460.896 136.556C456.739 139.356 450.539 140.911 443.183 141C436.226 141.067 430.292 139.822 427.803 137.777C425.58 135.955 421.557 129.444 418.868 123.333C416.179 117.222 412.29 110.733 410.223 108.889C407.334 106.311 405.4 106.089 401.6 107.978C398.688 109.422 396.065 113.467 395.109 117.978C394.22 122.155 393.332 152.556 393.132 185.556C392.887 226.667 393.554 247.133 395.287 250.556C396.687 253.311 400.821 256.555 404.488 257.777C408.948 259.259 410.978 261.296 410.578 263.889C410.045 267.444 405.689 267.822 360.572 268.333C318.279 268.8 310.988 268.4 310.032 265.556C309.41 263.689 311.499 260.023 320.611 252.223L319.833 116.667L313.077 110C307.565 104.578 306.876 102.845 309.299 100.733C310.922 99.311 327.501 93.0668 346.147 86.8447C364.794 80.6447 381.53 75.5557 383.375 75.5557C385.22 75.556 387.264 78.2894 387.976 81.667C388.665 85.0223 390.175 90.0218 391.309 92.7773C393.309 97.644 393.553 97.5329 399.865 88.9551C403.421 84.1108 410.178 78.1557 414.867 75.7334C419.846 73.1334 428.002 71.2442 434.492 71.1553ZM1575.75 64.6445C1581.26 64.5779 1591.99 65.9998 1599.64 67.7998C1607.29 69.622 1618.29 73.3114 1624.09 76.0225C1629.89 78.7113 1640.2 86.4664 1647 93.2441C1653.8 100.022 1662.07 111.066 1665.38 117.777C1668.67 124.511 1672.83 136 1674.6 143.333C1676.38 150.666 1677.83 161.178 1677.83 166.667C1677.83 172.156 1676.38 182.667 1674.6 190C1672.83 197.333 1668.94 208.333 1665.98 214.444C1663 220.555 1655.74 230.911 1649.82 237.489C1642.22 245.911 1634.53 251.511 1623.53 256.645C1614.97 260.644 1600.48 265.089 1591.31 266.533C1577.57 268.711 1571.7 268.6 1557.97 265.889C1548.79 264.089 1536.81 260.6 1531.3 258.134C1525.79 255.689 1516.41 249.844 1510.45 245.178C1504.47 240.489 1496.74 232.666 1493.23 227.777C1489.74 222.888 1484.74 212.889 1482.09 205.556C1479.25 197.6 1476.87 184.6 1476.25 173.333C1475.62 161.978 1476.33 149.578 1478.05 142.223C1479.62 135.512 1481.76 129 1482.8 127.777C1483.85 126.555 1484.69 124.311 1484.67 122.777C1484.65 121.243 1488.63 114 1493.51 106.667C1498.4 99.3337 1506.65 90.2446 1511.85 86.4668C1517.05 82.689 1525.3 77.5553 1530.19 75.0664C1535.08 72.5776 1545.08 69.2448 1552.41 67.667C1559.75 66.0892 1570.24 64.7334 1575.75 64.6445ZM2224.72 64.7109C2230.23 64.5999 2240.97 65.9998 2248.61 67.7998C2256.26 69.622 2266.75 73.0668 2271.95 75.4668C2277.15 77.8447 2286.28 84.089 2292.28 89.3555C2298.26 94.5998 2305.91 102.888 2309.26 107.777C2312.6 112.666 2317.53 123.178 2320.2 131.111C2323.91 142.111 2325.06 150.844 2325.09 167.777C2325.11 185.355 2324.06 192.778 2320.15 203.333C2317.42 210.666 2312.42 220.667 2309.06 225.556C2305.68 230.445 2299.59 237.8 2295.5 241.889C2291.42 246 2281.06 252.622 2272.5 256.622C2263.55 260.822 2249.88 264.978 2240.28 266.444C2226.56 268.511 2220.45 268.356 2205.83 265.489C2196.05 263.578 2182.29 259.067 2175.27 255.444C2168.24 251.844 2157.98 244.133 2152.49 238.333C2146.98 232.533 2139.46 221.778 2135.82 214.444C2132.15 207.111 2128.04 195.111 2126.68 187.777C2125.24 180 2124.8 166.578 2125.64 155.556C2126.8 140.178 2128.51 133.778 2134.84 121.111C2139.11 112.556 2145.84 102.066 2149.78 97.7773C2153.73 93.5107 2161.44 86.956 2166.96 83.2227C2172.45 79.4893 2180.94 74.7332 2185.83 72.6221C2190.71 70.511 2199.2 67.9106 2204.72 66.8662C2210.23 65.7995 2219.21 64.8443 2224.72 64.7109ZM1879.12 66.4893C1884.01 65.467 1897.5 65.0663 1909.12 65.5996C1920.75 66.1552 1935.24 67.911 1941.35 69.5332C1947.46 71.1554 1955.97 74.6002 1960.24 77.2002C1964.51 79.8003 1970.71 84.7334 1974.02 88.1777C1977.31 91.6221 1981.75 98.4442 1983.91 103.333C1987.13 110.689 1988.2 123.8 1990.13 179.2C1992.29 241.377 1992.78 246.533 1996.91 250.866C1999.69 253.799 2000.73 256.8 1999.69 258.889C1998.78 260.711 1994.27 262.755 1989.69 263.422C1985.11 264.066 1974.35 263.578 1965.8 262.312C1957.24 261.045 1947.73 258.333 1944.68 256.289C1941.62 254.245 1935.88 249.244 1924.68 237.777L1914.12 248.134C1908.32 253.823 1900.32 259.822 1896.34 261.467C1892.37 263.111 1884.12 265.445 1878.01 266.667C1870.52 268.156 1862.74 268.133 1854.12 266.6C1847.09 265.333 1837.51 262.578 1832.85 260.489C1828.16 258.378 1821.93 253.178 1818.98 248.889C1816.04 244.622 1812.62 237.622 1811.38 233.333C1810.13 229.066 1809.11 221.067 1809.13 215.556C1809.16 209.711 1811.33 200.933 1814.4 194.444C1817.27 188.333 1822.02 181.245 1824.93 178.667C1827.85 176.111 1834.71 171.023 1840.23 167.4C1845.74 163.756 1855.74 158.666 1862.45 156.066C1869.16 153.444 1883.19 148.823 1893.57 145.756C1904.23 142.623 1914.39 138.133 1916.9 135.467C1920.99 131.111 1921.21 128.977 1919.64 109.244C1918.44 94.0449 1916.75 86.1561 1913.86 82.2227C1911.64 79.1784 1907.32 76.378 1904.3 76C1901.3 75.6444 1896.39 77.2446 1893.41 79.5557C1889.12 82.9112 1887.41 87.3999 1885.1 101.333C1883.5 110.999 1880.5 121.621 1878.43 124.955C1876.36 128.288 1872.43 132.045 1869.67 133.289C1866.92 134.533 1861.16 135.556 1856.89 135.556C1852.63 135.556 1845.36 133.689 1840.78 131.422C1835.43 128.755 1831.31 124.6 1829.29 119.756C1827.56 115.623 1826.2 110.222 1826.29 107.777C1826.38 105.333 1827.56 100.578 1828.89 97.2227C1830.25 93.8671 1835.58 87.9775 1840.78 84.1553C1845.98 80.3553 1854.72 75.2218 1860.23 72.7773C1865.74 70.333 1874.23 67.5115 1879.12 66.4893ZM3403.76 72.8662C3410.14 69.8664 3416.09 68.9552 3424.87 69.5996C3432.74 70.1774 3440.07 72.3776 3445.45 75.7998C3450.05 78.711 3455.79 85.1112 3458.19 90C3460.61 94.8889 3462.59 102.4 3462.59 106.667C3462.59 110.956 3460.34 118.334 3457.61 123.111C3454.9 127.867 3449.14 133.622 3444.87 135.889C3440.61 138.155 3433.09 140.044 3428.2 140.089C3421.71 140.133 3417.67 138.622 3413.2 134.511C3409.85 131.422 3406.34 125.733 3405.42 121.866C3404.51 118 3401.51 112.489 3398.76 109.645C3395.07 105.8 3392.51 104.889 3388.98 106.111C3386.35 107.023 3383.35 110.022 3382.31 112.777C3381.26 115.533 3380.42 146.267 3380.42 181.111C3380.42 215.955 3381.29 246.199 3382.33 248.333C3383.4 250.466 3388.13 254.555 3392.89 257.422C3400.36 261.911 3401 262.911 3397.64 264.645C3395.51 265.756 3372 266.689 3345.42 266.711C3315.01 266.755 3296.45 265.911 3295.41 264.489C3294.5 263.245 3296.77 259.489 3307.21 250L3307.08 115.556L3299.85 109C3294.3 103.956 3293.21 101.778 3295.12 99.5557C3296.5 97.9779 3313.7 91.1777 3333.35 84.4443C3365.28 73.5111 3369.46 72.5779 3372.62 75.5557C3374.71 77.5112 3376.13 82.356 3376.06 87.2227C3376 93.1998 3376.93 95.5554 3379.31 95.5557C3381.15 95.5557 3382.64 94.5552 3382.64 93.333C3382.64 92.1104 3385.4 87.9327 3388.75 84.0664C3392.11 80.1776 3398.87 75.155 3403.76 72.8662ZM3070.94 17.9336C3073.69 17.8447 3076.16 18.0221 3076.43 18.333C3076.69 18.6441 3077.45 71.1333 3079.27 251.066L3085.38 256.645C3088.74 259.711 3091.01 263.222 3090.38 264.444C3089.69 265.822 3071.49 266.667 3042.6 266.667C3007.48 266.667 2995.59 265.978 2994.55 263.889C2993.79 262.355 2995.79 258.866 3004.82 251.111V57.7773L2999.26 53.333C2996.22 50.8886 2993.97 47.1333 2994.28 45C2994.64 42.6889 2998.46 39.9108 3003.73 38.1553C3008.62 36.5107 3024.6 31.3333 3039.27 26.6445C3053.93 21.9557 3068.18 18.0449 3070.94 17.9336ZM1766.88 26.667C1768.11 26.667 1770.11 28.6669 1771.33 31.1113C1772.55 33.5561 1773.57 42.3115 1773.59 50.5557C1773.59 58.7996 1774.35 66.7768 1775.26 68.2441C1776.15 69.733 1780.4 70.7998 1784.66 70.6221C1788.93 70.4665 1793.69 71.0001 1795.22 71.8223C1796.75 72.6445 1798.04 75.0893 1798.09 77.2227C1798.15 79.3559 1796.91 82.2888 1795.31 83.7109C1793.73 85.1554 1788.44 86.644 1774.66 87.7773L1774.13 158.889C1773.68 218.755 1774.13 230.8 1776.91 235C1779.24 238.533 1782.35 239.978 1787.44 239.911C1791.42 239.845 1796.15 241.378 1798 243.289C1800.98 246.422 1800.73 247.4 1795.78 252.489C1792.71 255.645 1787.22 259.845 1783.55 261.845C1778.57 264.578 1770.95 265.489 1753.55 265.511C1732.17 265.533 1729.48 265.045 1721.32 259.756C1716.43 256.578 1711.3 251.578 1709.92 248.667C1708.56 245.734 1706.3 240.578 1704.92 237.223C1703.25 233.134 1702.43 207.555 1702.43 88.8887L1696.81 86.1113C1693.25 84.3558 1691.21 81.5108 1691.25 78.333C1691.3 75.5777 1692.56 72.6668 1694.1 71.8223C1695.63 71 1702.87 68.933 1710.21 67.2441C1717.54 65.533 1728.03 61.0663 1733.54 57.333C1739.06 53.5775 1746.55 46.9552 1750.21 42.5996C1753.88 38.2218 1758.64 32.867 1760.77 30.667C1762.91 28.4671 1765.66 26.6671 1766.88 26.667ZM1310.27 17.7773C1351.81 17.7773 1373.79 18.6889 1385.17 20.9111C1394.04 22.6445 1406.79 26.1337 1413.5 28.667C1420.24 31.2225 1430.64 37.0668 1436.66 41.6445C1443.62 46.9556 1450.29 54.8664 1454.93 63.333C1459.64 71.9107 1463.2 82.5998 1464.93 93.333C1467.07 106.422 1467.07 113.333 1464.93 125.556C1463.44 134.111 1459.84 146.112 1456.93 152.223C1454.04 158.334 1447.33 167.267 1442.02 172.089C1436.73 176.911 1426.91 183.333 1420.17 186.355C1413.46 189.4 1400.46 193.177 1391.28 194.777C1382.12 196.377 1368.37 197.711 1360.72 197.733C1353.08 197.756 1344.83 198.778 1342.38 200C1338.47 201.956 1337.94 204.422 1337.96 220.556C1337.98 230.733 1339.25 241.355 1340.79 244.444C1342.32 247.511 1345.81 251 1348.52 252.223C1351.25 253.445 1353.99 255.689 1354.61 257.223C1355.23 258.8 1353.08 261.067 1349.61 262.444C1345.63 264.022 1327.78 264.6 1298.6 264.111C1267 263.556 1252.86 262.533 1250.82 260.6C1248.46 258.355 1249.26 256.199 1262.38 240V33.333L1255.15 28.0449C1250.71 24.7784 1248.62 21.7778 1249.71 20.2666C1250.93 18.5333 1269.58 17.7773 1310.27 17.7773ZM567.115 84.5332C564.27 84.4889 559.159 87.2002 555.736 90.5557C550.936 95.2889 549.135 99.689 547.824 110C546.891 117.333 546.713 130.845 547.424 140C548.135 149.178 550.335 164.667 552.313 174.444C554.292 184.222 558.981 201.222 562.715 212.222C566.449 223.222 571.383 235.978 573.672 240.556C575.961 245.133 581.095 250.889 585.073 253.333C589.051 255.755 594.785 257.799 597.853 257.844C600.897 257.888 605.032 256.133 607.01 253.955C608.988 251.777 611.854 247.511 613.388 244.444C615.055 241.133 616.055 231.066 615.899 219.444C615.744 208.755 614.188 191.755 612.433 181.666C610.677 171.577 608.187 158.577 606.876 152.777C605.587 146.977 602.92 137.977 600.942 132.777C598.964 127.577 594.741 117.844 591.519 111.11C588.318 104.399 582.673 95.6881 578.983 91.7549C575.272 87.7995 569.982 84.5776 567.115 84.5332ZM1561.13 80.0664C1556.57 80.0072 1552.49 81.9184 1548.91 85.7998C1545.44 89.5331 1542.95 95.644 1541.93 103.021C1541.04 109.31 1541.3 123.933 1542.53 135.556C1543.75 147.156 1546.64 165.178 1548.97 175.556C1551.31 185.933 1554.24 198.444 1555.51 203.333C1556.77 208.222 1561.33 219.466 1565.66 228.333C1570 237.199 1576.29 246.51 1579.64 249.021C1583.72 252.088 1588.31 253.385 1593.42 252.911C1599.51 252.356 1602.02 250.622 1605.56 244.444C1608.71 238.955 1610.27 231.466 1610.87 218.889C1611.4 207.178 1610.09 192.022 1606.96 174.444C1604.36 159.778 1601.14 144.267 1599.8 140C1598.45 135.733 1595.29 126.711 1592.78 120C1590.27 113.289 1585.29 102.777 1581.69 96.666C1578.11 90.555 1573.55 84.3326 1571.58 82.8438C1569.6 81.3549 1564.89 80.1109 1561.13 80.0664ZM2210.66 80C2205.86 80.0001 2201.61 81.7556 2198.54 85C2195.63 88.1112 2193.08 95.0443 2191.79 103.333C2190.57 111.311 2190.52 123.822 2191.68 134.444C2192.77 144.222 2194.68 157.711 2195.92 164.444C2197.17 171.178 2199.28 181.177 2200.61 186.666C2201.92 192.155 2205.03 202.667 2207.5 210C2209.97 217.333 2215.28 228.333 2219.28 234.444C2223.3 240.555 2228.41 247.333 2230.66 249.511C2233.3 252.066 2237.39 253.244 2242.28 252.844C2247.57 252.399 2251.26 250.333 2254.51 245.933C2258.75 240.222 2259.13 236.955 2258.8 210.378C2258.6 194.289 2256.93 174.111 2255.11 165.556C2253.28 157 2250.13 143.999 2248.13 136.666C2246.11 129.333 2241.11 116.333 2237.04 107.777C2232.95 99.2218 2227.01 89.4659 2223.84 86.1104C2219.79 81.8217 2215.86 80 2210.66 80ZM1022.53 93.333C1020.19 93.3332 1015.44 95.6664 1011.97 98.5107C1008.53 101.377 1004.04 107.622 1002.01 112.399C999.992 117.199 997.237 128.866 995.903 138.333C994.548 147.8 993.458 162.044 993.458 170C993.458 177.956 994.992 192.199 996.837 201.666C998.704 211.133 1002.57 222.888 1005.44 227.777C1008.3 232.666 1013.28 238.422 1016.51 240.556C1019.71 242.689 1025.35 244.444 1029.02 244.444C1033.26 244.444 1038 242.222 1042.04 238.333C1045.8 234.733 1049.84 227.2 1051.91 220C1053.84 213.267 1056.47 199.778 1057.73 190C1059.47 176.467 1059.29 167.199 1056.98 151.11C1055.29 139.511 1052.13 125.511 1049.95 120C1047.78 114.511 1044.44 107.622 1042.51 104.711C1040.6 101.8 1036.26 98.0446 1032.91 96.3779C1029.55 94.7113 1024.88 93.333 1022.53 93.333ZM2870.92 117.866C2868.16 117.933 2861.92 120.777 2857.03 124.222C2852.14 127.644 2843.38 137.355 2837.56 145.777C2831.74 154.222 2824.49 168.355 2821.45 177.222C2817.67 188.244 2815.91 198.066 2815.96 208.333C2815.96 216.577 2816.71 224.688 2817.62 226.333C2818.8 228.511 2820.47 228.733 2823.69 227.155C2826.13 225.955 2833.56 219.11 2840.18 211.933C2846.8 204.755 2856.38 192.4 2861.45 184.444C2866.54 176.489 2872.87 164.755 2875.52 158.333C2878.19 151.911 2880.36 142.155 2880.36 136.666C2880.36 131.177 2879.36 124.666 2878.14 122.222C2876.87 119.689 2873.76 117.822 2870.92 117.866ZM1916.24 160C1913.93 160 1906.02 166.244 1898.64 173.889C1888.95 183.933 1884.5 190.555 1882.57 197.777C1881.1 203.266 1880.48 210.022 1881.17 212.777C1881.88 215.533 1884.7 219.8 1887.46 222.267C1890.35 224.867 1895.53 226.733 1899.68 226.711C1904.11 226.689 1909.29 224.577 1913.02 221.311C1919 216.066 1919.15 215.332 1919.8 187.978C1920.4 161.779 1920.18 160 1916.24 160ZM176.177 40.0215C174.666 39.9997 172.887 42.2447 172.221 45C171.554 47.7581 171.288 80.5124 171.621 117.777L172.243 185.556C187.512 185.556 192.668 183.8 197.936 179.822C202.136 176.689 207.492 170.178 209.826 165.378C212.182 160.6 215.093 153.155 216.315 148.889C217.538 144.622 218.893 130.11 219.338 116.666C220.049 95.7552 219.427 89.9997 215.093 76.8887C212.315 68.4443 206.781 57.689 202.803 53C198.269 47.6222 192.468 43.6219 187.245 42.2441C182.667 41.0219 177.666 40.0215 176.177 40.0215ZM2517.36 37.7773C2514.5 37.7773 2511.34 38.4444 2510.32 39.2666C2509.29 40.0735 2508.63 73.0706 2508.83 112.6L2509.21 184.444C2521.25 184.444 2527.01 183.333 2529.76 181.955C2532.52 180.577 2537.52 176.822 2540.9 173.622C2544.28 170.4 2548.97 162.777 2551.3 156.666C2553.63 150.555 2556.68 137.555 2558.06 127.777C2560.12 113.133 2559.95 106.688 2557.03 91.1104C2555.12 80.7328 2551.48 68.2219 2548.94 63.333C2546.41 58.4442 2542.19 52.0884 2539.57 49.2217C2536.92 46.3772 2532.01 42.622 2528.65 40.8887C2525.3 39.1776 2520.21 37.7774 2517.36 37.7773ZM1348.86 34.4443C1345.1 33.489 1342.44 33.9996 1341.19 35.9326C1340.17 37.5548 1339.5 70.133 1339.75 108.333C1339.97 146.533 1340.66 178.778 1341.28 180C1341.9 181.266 1345.53 181.6 1349.61 180.8C1353.59 180 1359.59 178 1362.95 176.355C1366.31 174.689 1371.08 170.088 1373.55 166.11C1376.02 162.132 1380.09 152.4 1382.6 144.444C1385.93 133.955 1387.24 123.622 1387.4 106.666C1387.53 89.5774 1386.51 80.0658 1383.53 71.1104C1381.31 64.3993 1376.88 55.0887 1373.71 50.4443C1370.55 45.7999 1364.95 40.6217 1361.28 38.9551C1357.62 37.2662 1352.01 35.2443 1348.86 34.4443ZM2776.57 37.7109C2771.28 37.7554 2766.99 40.1772 2759.75 47.2217C2754.41 52.4216 2745.26 63.1548 2739.41 71.1104C2733.57 79.0659 2725.43 91.5553 2721.32 98.8887C2717.23 106.222 2711.32 119.222 2708.21 127.777C2705.1 136.333 2702.56 145.088 2702.56 147.222C2702.56 149.355 2703.32 151.6 2704.23 152.178C2705.14 152.777 2711.9 149.333 2719.23 144.556C2726.57 139.778 2736.66 132.045 2741.68 127.378C2746.68 122.711 2755.68 113.311 2761.68 106.488C2767.66 99.6883 2774.82 91.4441 2777.57 88.1553C2780.33 84.8885 2784.71 78.4663 2787.33 73.8887C2789.95 69.3109 2792.22 61.3999 2792.33 56.3555C2792.51 49.9557 2791.22 45.6668 2788.13 42.3779C2785.33 39.4003 2781.04 37.6666 2776.57 37.7109ZM3197.63 80C3196.09 79.9778 3191.69 82.2444 3187.82 85C3183.96 87.7556 3179.29 92.9995 3177.45 96.666C3175.62 100.333 3173.04 108.089 3171.71 113.889C3170.38 119.689 3169.29 127.955 3169.29 132.222C3169.29 138.888 3170.16 140.199 3175.4 141.399C3178.76 142.177 3188.76 142.177 3197.63 141.399C3211.05 140.244 3214.27 139.155 3216.94 135C3219.65 130.733 3219.72 127.533 3217.25 113.333C3215.65 104.178 3212.85 93.6668 3211.03 90C3209.2 86.3333 3206.05 82.5771 3204.05 81.666C3202.05 80.755 3199.16 80 3197.63 80Z" fill="#87563F"/>
</svg>
