<svg width="1493" height="1199" viewBox="0 0 1493 1199" fill="none" xmlns="http://www.w3.org/2000/svg">
<path d="M550.629 846.57C556.544 846.57 559.828 847.198 563.901 849.081C566.881 850.466 571.215 853.258 573.522 855.292C575.83 857.337 579.676 862.413 582.081 866.579C586.209 873.743 586.47 874.727 586.936 884.975C587.304 892.961 586.957 897.636 585.613 902.83C584.606 906.693 581.734 913.759 579.21 918.521C576.696 923.282 571.864 930.944 568.462 935.564C565.06 940.174 555.038 952.099 546.187 962.076C537.346 972.043 526.24 983.849 521.527 988.318C516.814 992.777 510.281 998.685 507.009 1001.44C503.737 1004.21 496.185 1009.77 490.226 1013.8C484.267 1017.84 475.004 1023.22 469.641 1025.75C464.278 1028.29 458.481 1030.77 453.627 1032.14L454.386 1041.34C454.808 1046.4 456.054 1055.16 457.159 1060.82C458.253 1066.47 460.799 1075 462.814 1079.76C464.83 1084.52 468.232 1091.58 470.377 1095.45C472.522 1099.31 476.986 1105.89 480.302 1110.06C483.617 1114.22 488.417 1119.39 490.984 1121.54C493.552 1123.69 498.818 1127.18 502.686 1129.3C506.564 1131.41 512.415 1133.92 515.688 1134.86C518.97 1135.81 525.059 1136.58 529.23 1136.58C533.402 1136.58 539.74 1135.85 543.315 1134.95C546.891 1134.05 554.691 1130.91 560.65 1127.97C566.609 1125.03 573.685 1121.21 581.236 1116.32L578.787 1106.15C577.433 1100.57 575.916 1091.85 575.418 1086.79C574.92 1081.73 574.703 1073.7 574.931 1068.94C575.158 1064.18 575.841 1057.11 576.447 1053.25C577.054 1049.37 579.275 1041.09 581.366 1034.85C583.457 1028.59 587.282 1019.1 589.871 1013.75C592.45 1008.39 597.607 999.377 601.312 993.729C605.018 988.069 611.313 979.553 615.3 974.792C619.287 970.031 625.072 963.938 628.149 961.265C631.237 958.581 636.817 954.545 640.544 952.283C644.271 950.022 650.74 947.154 654.911 945.909C660.577 944.21 664.012 943.81 668.454 944.308C672.181 944.73 676.212 946.104 679.191 947.977C681.824 949.632 685.627 953.42 687.664 956.396C689.69 959.371 692.117 964.479 693.049 967.758C694.349 972.303 694.608 976.632 694.143 986.154C693.753 994.205 692.702 1001.46 691.152 1006.71C689.841 1011.17 686.58 1019.94 683.904 1026.19C681.228 1032.44 676.83 1041.45 674.143 1046.21C671.445 1050.97 666.808 1058.52 663.839 1062.99C660.87 1067.44 654.9 1075.48 650.556 1080.84C646.222 1086.2 637.38 1095.7 630.912 1101.96C624.444 1108.23 616.101 1115.78 605.592 1124.13L610.034 1132.24C612.483 1136.7 616.752 1142.96 619.525 1146.16C623.22 1150.41 626.752 1153.01 632.7 1155.86C640.295 1159.52 641.465 1159.76 650.577 1159.63C657.294 1159.53 662.69 1158.75 667.912 1157.1C672.083 1155.79 679.159 1152.88 683.623 1150.63C688.098 1148.39 697.599 1142.68 704.75 1137.96C711.901 1133.23 722.746 1125.38 728.856 1120.52C734.967 1115.65 743.928 1107.9 748.76 1103.29C753.603 1098.67 760.504 1091.25 764.102 1086.79C767.699 1082.32 771.772 1076.24 773.159 1073.27C774.535 1070.29 775.976 1065.66 776.355 1062.99C776.724 1060.3 776.485 1056.17 775.803 1053.79C775.131 1051.41 773.257 1047.85 771.632 1045.88C769.887 1043.77 767.114 1041.92 764.882 1041.39C762.747 1040.88 759.194 1040.91 756.756 1041.46C754.199 1042.05 750.092 1044.45 746.733 1047.3C743.288 1050.25 739.984 1052.16 738.337 1052.16C736.701 1052.16 734.025 1050.62 731.565 1048.26C727.849 1044.69 727.568 1044.02 728.315 1040.41C728.803 1038.06 730.764 1034.81 733.19 1032.35C735.422 1030.09 740.417 1026.68 744.274 1024.78C749.638 1022.13 753.094 1021.23 758.901 1020.91C764.232 1020.62 768.284 1021.08 772.466 1022.45C776.41 1023.74 780.256 1026.12 783.842 1029.47C787.331 1032.75 790.375 1037.03 792.391 1041.47C794.612 1046.37 795.674 1050.72 796.053 1056.49C796.443 1062.34 796.063 1066.43 794.709 1071.1C793.669 1074.67 791.6 1080.03 790.104 1083C788.598 1085.98 785.045 1091.58 782.195 1095.45C779.346 1099.31 771.242 1108.1 764.178 1114.96C757.114 1121.82 746.463 1131.33 740.504 1136.08C734.545 1140.84 724.555 1148.11 718.293 1152.23C712.042 1156.35 701.803 1162.27 695.541 1165.39C689.29 1168.5 681.001 1172.09 677.122 1173.34C673.254 1174.6 666.786 1176.33 662.767 1177.19C658.747 1178.06 652.409 1178.77 648.682 1178.78C644.955 1178.78 639.233 1178.29 635.95 1177.67C632.678 1177.06 627.066 1175.18 623.491 1173.49C619.916 1171.81 614.433 1168.42 611.302 1165.95C608.171 1163.47 603.371 1158.41 600.619 1154.7C597.878 1150.97 594.216 1145.13 592.493 1141.71C590.771 1138.28 588.995 1135.47 588.55 1135.46C588.106 1135.44 586.523 1136.63 585.028 1138.11C583.544 1139.57 581.712 1140.56 580.965 1140.29C580.217 1140.03 579.254 1140.42 578.81 1141.17C578.214 1142.16 578.43 1142.23 579.611 1141.44C580.792 1140.64 581.009 1140.7 580.413 1141.71C579.969 1142.45 579.123 1142.81 578.527 1142.52C577.93 1142.22 573.174 1144.11 567.964 1146.72C562.752 1149.33 554.832 1152.6 550.357 1153.97C543.846 1155.98 539.762 1156.48 529.772 1156.47C520.866 1156.46 515.46 1155.9 510.812 1154.5C507.236 1153.42 501.386 1151.09 497.811 1149.33C494.235 1147.58 488.384 1144.04 484.809 1141.48C481.233 1138.93 474.895 1133.25 470.713 1128.85C466.542 1124.47 460.864 1117.47 458.112 1113.3C455.349 1109.14 451.276 1102.07 449.044 1097.61C446.823 1093.14 443.367 1084.63 441.384 1078.68C439.401 1072.72 437.028 1063.22 436.107 1057.57C435.187 1051.91 434.439 1044.98 434.439 1042.15C434.429 1037.74 434.157 1037.1 432.532 1037.64C431.492 1037.99 425.273 1038.53 418.718 1038.86C411.762 1039.21 402.748 1038.91 397.049 1038.14C391.686 1037.41 384.135 1035.85 380.256 1034.67C376.388 1033.48 369.952 1030.96 358.738 1025.65L351.349 1033.36C347.286 1037.59 340.059 1043.58 335.292 1046.66C330.525 1049.74 322.974 1053.66 318.499 1055.37C314.035 1057.08 306.472 1059.49 301.705 1060.73C296.938 1061.98 287.923 1063.68 281.661 1064.52C275.41 1065.35 259.374 1066.94 221.789 1070.02L222.32 1095.99C222.754 1117.17 223.176 1122.6 224.628 1125.48C225.603 1127.4 227.749 1129.9 229.385 1131.01C231.021 1132.12 233.339 1133.32 234.531 1133.69C235.723 1134.05 238.41 1136.02 244.282 1141.78L234.531 1147.36L176.566 1147.1C123.726 1146.87 118.287 1146.68 115.08 1144.96C113.141 1143.91 111.559 1142.58 111.559 1141.98C111.559 1141.39 112.979 1139.56 114.712 1137.92C116.435 1136.28 119.446 1133.72 121.396 1132.24C123.347 1130.75 125.709 1127.83 126.641 1125.75C128.157 1122.38 128.385 1108.59 128.634 1002.93C128.785 937.458 128.515 880.484 128.017 876.317C127.475 871.805 126.229 867.422 124.929 865.496C123.726 863.711 120.389 861.027 117.518 859.545C114.646 858.052 111.949 855.865 111.526 854.675C111.104 853.485 110.942 852.024 111.158 851.429C111.386 850.834 112.751 849.611 114.213 848.724C116.499 847.317 125.795 847.111 181.658 847.241C217.293 847.317 249.862 847.663 254.033 848.009C258.205 848.366 267.23 849.643 274.077 850.866C280.935 852.089 289.711 853.886 293.579 854.849C297.458 855.812 303.796 857.78 307.664 859.23C311.543 860.67 318.607 863.905 323.374 866.416C328.141 868.916 334.967 873.202 338.542 875.929C342.117 878.656 348.185 884.239 352.021 888.34C355.845 892.441 360.688 898.469 362.779 901.748C364.87 905.016 368.251 911.346 370.299 915.815C372.336 920.274 375.033 927.827 376.269 932.589C378.078 939.568 378.511 944.481 378.5 958.019C378.478 971.578 378.023 976.599 376.116 984.261C374.816 989.466 372.541 996.889 371.046 1000.76C369.562 1004.63 368.586 1008.28 368.879 1008.88C369.182 1009.47 373.202 1011.38 377.817 1013.12C382.433 1014.85 389.628 1016.86 393.799 1017.58C398.306 1018.36 407.321 1018.7 416.01 1018.43C424.471 1018.17 431.666 1017.43 433.074 1016.67C434.699 1015.8 435.508 1014.38 435.501 1012.4C435.49 1010.75 436.508 1003.81 437.754 996.976C439.011 990.126 440.42 983.795 440.886 982.907C441.352 982.008 443.085 977.388 444.731 972.627C446.378 967.866 449.662 959.588 452.013 954.231C454.364 948.875 459.012 939.623 462.338 933.671C465.664 927.719 471.786 917.731 475.936 911.487C480.096 905.233 487.756 894.52 492.979 887.681C498.201 880.831 505.373 872.065 508.905 868.202C512.437 864.328 518.699 858.853 522.827 856.028C526.944 853.204 533.12 849.914 536.544 848.724C540.585 847.317 545.537 846.559 550.629 846.57ZM1058.5 905.124C1061.78 905.048 1068.61 905.492 1073.67 906.108C1078.74 906.736 1086.78 908.273 1091.54 909.55C1096.31 910.816 1103.38 913.132 1107.25 914.712C1111.13 916.292 1117.71 919.787 1121.88 922.481C1126.05 925.187 1132.57 930.511 1136.37 934.32C1140.16 938.129 1145.37 944.405 1147.94 948.279C1150.49 952.143 1154.1 958.841 1155.93 963.159C1157.76 967.466 1160.05 974.283 1161.01 978.309C1161.97 982.323 1162.82 990.234 1162.91 995.894C1162.99 1001.54 1162.68 1007.5 1162.24 1009.15C1161.7 1011.13 1160.16 1012.67 1157.63 1013.75C1154.41 1015.12 1144.45 1015.37 1028.16 1015.37L1028.83 1023.76C1029.21 1028.37 1030.38 1035.55 1031.43 1039.72C1032.49 1043.89 1034.66 1050.22 1036.25 1053.79C1037.85 1057.36 1041.25 1063.2 1043.81 1066.77C1046.36 1070.34 1051.69 1076.31 1055.65 1080.03C1059.6 1083.74 1066.36 1088.74 1070.69 1091.12C1075.01 1093.5 1082.32 1096.67 1086.94 1098.15C1091.55 1099.64 1100.09 1101.4 1105.9 1102.06C1114.26 1103.02 1118.5 1102.97 1126.21 1101.8C1131.58 1100.99 1140.44 1100.32 1145.9 1100.32C1151.36 1100.32 1156.13 1100.56 1156.47 1100.86C1156.83 1101.15 1155.73 1104.56 1154.01 1108.43C1151.63 1113.81 1149.03 1117.24 1142.9 1123.07C1138.49 1127.24 1132.69 1132.18 1130.01 1134.04C1127.33 1135.9 1121.23 1139.37 1116.46 1141.78C1111.7 1144.17 1103.41 1147.43 1098.04 1149.04C1090.12 1151.4 1085.35 1152.04 1072.58 1152.51C1060.91 1152.94 1054.23 1152.64 1046.58 1151.35C1040.92 1150.4 1031.9 1148.37 1026.54 1146.83C1021.17 1145.3 1011.91 1141.68 1005.95 1138.79C999.991 1135.89 991.952 1131.11 988.073 1128.16C984.205 1125.23 977.856 1119.46 973.967 1115.35C970.077 1111.25 964.335 1103.75 961.204 1098.7C958.073 1093.63 954.01 1085.6 952.168 1080.84C950.326 1076.08 947.704 1067.8 946.339 1062.44C944.974 1057.09 943.327 1047.35 942.666 1040.8C942.016 1034.25 941.744 1024.27 942.069 1018.62C942.405 1012.96 943.825 1003.22 945.233 996.976C946.642 990.721 949.643 981.231 951.907 975.874C954.172 970.517 958.831 961.99 962.276 956.937C965.711 951.872 971.226 944.817 974.53 941.246C977.824 937.675 980.51 934.386 980.5 933.941C980.5 933.487 980.858 933.238 981.302 933.39C981.747 933.53 985.289 931.408 989.156 928.671C993.035 925.933 998.399 922.427 1001.08 920.891C1003.76 919.343 1009.61 916.584 1014.08 914.744C1018.55 912.915 1025.61 910.469 1029.79 909.301C1033.96 908.143 1040.78 906.758 1044.96 906.228C1049.13 905.697 1055.23 905.2 1058.5 905.124ZM1322.86 906.108C1325.55 905.546 1331.15 905.286 1335.32 905.535C1339.49 905.784 1346.32 907.039 1350.49 908.327C1354.66 909.626 1359.3 911.455 1360.78 912.396C1362.28 913.349 1365.36 915.599 1367.64 917.406C1369.93 919.203 1373.54 923.358 1375.68 926.637C1377.81 929.905 1380.27 935.023 1381.14 937.999C1382 940.975 1382.67 946.818 1382.61 950.984C1382.57 955.151 1381.88 960.746 1381.08 963.43C1380.29 966.103 1378.39 970.485 1376.86 973.169C1375.33 975.842 1371.69 980.127 1368.79 982.691C1365.87 985.245 1360.81 988.35 1357.53 989.573C1353.2 991.196 1348.91 991.824 1341.82 991.867C1333.98 991.91 1331.23 991.489 1327.74 989.682C1325.35 988.437 1322.11 986.046 1320.54 984.357C1318.97 982.658 1316.73 979.337 1315.55 976.956C1314.38 974.575 1312.37 969.089 1311.09 964.782C1309.79 960.356 1307.48 955.454 1305.8 953.539C1303.33 950.726 1301.99 950.129 1297.94 950.064C1295.09 950.01 1291.83 950.747 1290.09 951.829C1288.45 952.846 1286.45 955.021 1285.62 956.666C1284.81 958.3 1283.84 961.341 1283.48 963.43C1283.12 965.512 1282.52 1000.08 1282.18 1040.26C1281.7 1093.68 1281.86 1114.75 1282.78 1118.71C1283.47 1121.69 1285.09 1125.55 1286.38 1127.31C1287.68 1129.07 1291.66 1131.86 1295.23 1133.52C1298.81 1135.16 1303.11 1137.63 1307.85 1141.44L1303.72 1143.96C1301.43 1145.36 1297.62 1146.66 1295.23 1146.84C1292.85 1147.03 1267.26 1147.22 1238.35 1147.25C1188.3 1147.32 1185.59 1147.22 1181.2 1145.18C1177.44 1143.45 1176.77 1142.71 1177.54 1141.17C1178.06 1140.12 1179.97 1138.05 1181.81 1136.57C1183.64 1135.08 1186.46 1132.89 1188.11 1131.7C1189.75 1130.51 1191.84 1127.83 1192.75 1125.75C1194.17 1122.49 1194.44 1111.72 1194.68 1050C1194.83 1010.23 1194.5 974.402 1193.95 969.922C1193.33 964.955 1192.14 960.745 1190.9 959.101C1189.77 957.607 1186.95 955.335 1184.62 954.047C1182.29 952.759 1179.52 950.812 1178.47 949.719C1177.41 948.626 1176.54 947.003 1176.55 946.115C1176.55 945.217 1177.91 943.205 1179.55 941.646C1181.83 939.493 1192.92 935.358 1225.58 924.526C1249.23 916.67 1269.7 910.395 1271.07 910.589C1272.43 910.784 1274.14 912.158 1274.87 913.651C1275.6 915.134 1276.98 921.951 1277.92 928.801C1278.86 935.64 1279.76 941.733 1279.92 942.328C1280.09 942.922 1282.22 940.001 1284.66 935.835C1287.1 931.669 1290.96 926.107 1293.25 923.488C1295.54 920.859 1300.09 916.898 1303.36 914.68C1306.64 912.45 1311.27 909.853 1313.65 908.89C1316.03 907.927 1320.18 906.671 1322.86 906.108ZM907.897 842.241C909.393 842.198 911.441 843.021 912.448 844.081C914.171 845.877 914.323 855.758 914.615 983.99C914.908 1106.29 915.135 1122.38 916.63 1125.75C917.562 1127.83 920 1130.86 922.048 1132.48C924.095 1134.09 926.381 1135.43 927.129 1135.46C927.876 1135.47 929.22 1136.95 930.108 1138.73C931.007 1140.52 931.755 1142.34 931.777 1142.79C931.799 1143.24 930.217 1144.3 928.256 1145.16C925.32 1146.44 915.308 1146.74 871.602 1146.82C822.74 1146.91 818.188 1146.77 814.45 1144.99C812.218 1143.93 810.387 1142.58 810.387 1141.98C810.387 1141.39 812.023 1139.31 814.017 1137.38C816.01 1135.44 819.022 1132.89 820.723 1131.7C822.413 1130.51 824.44 1127.95 825.22 1126.02C826.357 1123.2 826.639 1100.24 826.639 1009.96C826.639 919.224 826.367 896.738 825.208 893.902C824.384 891.868 821.059 888.297 817.354 885.462C812.175 881.491 810.929 879.943 810.929 877.454C810.929 875.441 811.86 873.688 813.637 872.357C815.132 871.243 836.336 864.036 860.768 856.331C885.199 848.627 906.412 842.285 907.897 842.241ZM661.683 965.637C658.92 965.669 654.911 966.817 651.661 968.505C648.638 970.063 641.92 975.679 636.471 981.165C631.097 986.586 623.61 995.644 619.84 1001.3C616.059 1006.95 611.139 1015.48 608.896 1020.24C606.654 1025 603.544 1032.79 601.995 1037.56C600.435 1042.32 598.42 1050.59 597.51 1055.95C596.589 1061.31 595.852 1069.94 595.852 1075.16C595.862 1080.36 596.405 1088.16 597.065 1092.47C597.715 1096.78 598.626 1101.04 599.07 1101.94C599.699 1103.2 602.04 1101.59 609.525 1094.81C614.823 1090.01 622.863 1081.97 627.402 1076.96C631.931 1071.94 638.519 1063.96 642.04 1059.2C645.561 1054.44 650.946 1046.4 654.001 1041.34C657.045 1036.28 661.249 1028.74 663.318 1024.57C665.399 1020.4 668.335 1013.59 669.852 1009.42C671.358 1005.25 673.211 997.7 673.947 992.646C674.771 987.074 674.966 981.306 674.457 978.038C673.829 973.926 672.734 971.772 669.96 969.11C666.959 966.232 665.442 965.593 661.683 965.637ZM232.364 868.613C228.193 868.256 224.336 868.332 223.783 868.797C223.198 869.295 222.873 905.611 222.971 958.191L223.154 1046.75C231.974 1046.73 236.969 1046.05 239.948 1045.23C242.928 1044.41 247.077 1043.01 249.157 1042.12C251.248 1041.23 255.636 1038.1 258.908 1035.14C262.624 1031.8 266.363 1026.97 268.854 1022.31C271.043 1018.18 274.11 1010.45 275.659 1005.09C277.198 999.734 279.147 991.208 279.971 986.154C280.794 981.09 281.759 971.957 282.105 965.864C282.463 959.761 282.236 949.773 281.618 943.681C280.99 937.578 279.277 927.232 277.814 920.686C276.341 914.139 273.644 905.611 271.812 901.748C269.992 897.874 266.384 891.793 263.806 888.222C261.227 884.651 257.49 880.17 255.496 878.266C253.503 876.361 249.19 873.558 245.907 872.043C242.245 870.344 237.034 869.025 232.364 868.613ZM550.357 867.391C546.23 867.153 543.066 867.661 540.064 869.057C537.681 870.161 532.383 874.197 528.288 878.017C524.182 881.836 516.706 890.082 511.657 896.337C506.619 902.581 497.94 914.517 492.382 922.85C486.835 931.182 479.651 943.107 476.434 949.361C473.216 955.605 468.601 965.831 466.185 972.086C463.758 978.33 460.767 987.582 459.532 992.646C458.297 997.7 457.018 1003.66 456.693 1005.9L456.098 1009.96C463.237 1006.84 468.719 1003.85 472.891 1001.3C477.062 998.761 483.888 994.086 488.06 990.915C492.231 987.744 499.056 981.977 503.228 978.092L518.125 962.834C518.277 963.105 524.734 956.233 532.48 947.565C540.227 938.898 549.372 928.087 552.796 923.542C556.209 918.986 560.477 912.222 562.275 908.511C564.063 904.788 566.078 899.183 566.739 896.066C567.411 892.939 567.65 887.95 567.26 884.975C566.881 881.999 565.558 877.854 564.345 875.776C563.131 873.688 560.824 871.026 559.221 869.857C557.39 868.505 554.128 867.607 550.357 867.391ZM1062.29 920.22C1059.22 920.231 1055 921.151 1052.54 922.33C1050.16 923.466 1046.25 926.042 1043.87 928.033C1041.03 930.414 1037.98 934.796 1035 940.78C1032.51 945.791 1029.66 952.824 1028.67 956.396C1027.66 960.064 1026.58 969.63 1026.17 978.396L1025.45 993.913C1076.21 993.21 1078.03 993.047 1080.9 990.926C1082.58 989.681 1084.65 987.247 1085.5 985.516C1086.79 982.886 1086.83 980.7 1085.77 972.356C1085.08 966.848 1083.75 958.571 1082.83 953.961C1081.91 949.34 1080.09 941.916 1078.78 937.458C1076.98 931.279 1075.37 928.249 1072.06 924.765C1068.06 920.577 1067.26 920.198 1062.29 920.22ZM1134.34 453.984C1136.33 454.201 1137.7 455.565 1139.5 459.157C1141.76 463.669 1141.93 465.402 1141.89 482.964C1141.84 499.531 1142.08 502.215 1143.78 504.487C1145.56 506.868 1146.41 507.063 1154.38 506.922C1163.04 506.76 1163.06 506.77 1167.14 510.817C1169.67 513.35 1171.21 515.904 1171.22 517.592C1171.22 519.258 1169.75 521.736 1163.47 527.872H1142.47L1142.13 610.655C1141.88 671.795 1142.14 695.418 1143.1 701.013C1144.12 706.921 1145.1 709.237 1147.5 711.563C1150.22 714.182 1151.43 714.539 1157.63 714.539C1161.51 714.539 1166.88 715.026 1169.55 715.621C1172.24 716.216 1174.44 716.823 1174.44 716.975C1174.45 717.119 1173.74 719.682 1172.89 722.655C1171.74 726.583 1169.9 729.408 1166.11 733.022C1163.24 735.749 1158.81 739.038 1156.28 740.326C1153.74 741.614 1147.41 743.962 1142.19 745.542C1134.12 747.988 1130.62 748.42 1118.63 748.485C1107.16 748.55 1102.99 748.118 1096.15 746.159C1091.53 744.839 1084.83 742.296 1081.25 740.511C1077.67 738.725 1072.68 735.37 1070.14 733.065C1067.61 730.75 1064.23 726.497 1062.62 723.597C1061 720.697 1058.88 715.892 1057.88 712.916C1056.38 708.414 1055.92 699.605 1055.11 660.974C1054.56 635.381 1054.38 595.57 1054.68 572.51C1055.21 533.068 1055.14 530.577 1053.35 530.609C1052.31 530.631 1048.9 527.959 1045.77 524.658C1041.35 520.005 1040.07 517.884 1040.05 515.157C1040.03 513.166 1040.85 510.817 1041.94 509.757C1043.19 508.545 1047.71 507.301 1054.71 506.24C1060.67 505.331 1069.2 503.372 1073.67 501.9C1078.14 500.418 1085.45 497.052 1089.92 494.423C1094.39 491.782 1101.41 486.307 1105.54 482.238C1109.67 478.169 1115.76 470.974 1119.08 466.256C1122.41 461.527 1126.59 456.765 1128.38 455.683C1130.17 454.59 1132.86 453.833 1134.34 453.984ZM1301.46 501.468C1308.46 501.403 1317.97 501.89 1322.59 502.539C1327.21 503.188 1335.14 504.909 1340.2 506.37C1345.27 507.82 1353.55 510.98 1358.61 513.394C1363.68 515.807 1371.43 520.297 1375.84 523.37C1380.24 526.433 1388 533.337 1393.06 538.693C1398.85 544.818 1404.5 552.231 1408.28 558.713C1411.58 564.362 1415.84 573.376 1417.75 578.732C1419.66 584.089 1422.09 592.605 1423.17 597.669C1424.55 604.216 1425.13 611.835 1425.17 624.182C1425.21 634.408 1424.63 644.807 1423.75 649.611C1422.94 654.07 1420.93 661.861 1419.29 666.926C1417.65 671.979 1414.48 679.771 1412.23 684.24C1409.99 688.699 1406.2 695.278 1403.82 698.849C1401.42 702.42 1395.27 709.475 1390.14 714.539C1385.02 719.603 1377.17 726.042 1372.7 728.845C1368.24 731.647 1360.43 735.695 1355.36 737.838C1350.3 739.98 1342.5 742.664 1338.03 743.8C1333.57 744.947 1326.49 746.365 1322.32 746.96C1318.15 747.555 1309.37 748.042 1302.82 748.042C1296.26 748.042 1287.49 747.555 1283.31 746.96C1279.14 746.365 1271.83 744.882 1267.06 743.659C1262.3 742.426 1254.98 740.013 1250.81 738.292C1246.64 736.561 1239.81 733.087 1235.64 730.576C1231.47 728.066 1226.72 724.885 1225.08 723.521C1223.44 722.147 1221.86 721.032 1221.56 721.032C1221.27 721.032 1217.28 717.006 1212.72 712.104C1208.16 707.192 1202.62 700.494 1200.41 697.226C1198.2 693.947 1194.86 688.222 1193 684.511C1191.12 680.788 1188.15 673.483 1186.4 668.278C1184.63 663.062 1182.45 654.178 1181.52 648.529C1180.6 642.87 1179.84 632.157 1179.84 624.723C1179.83 617.278 1180.58 606.814 1181.51 601.457C1182.45 596.1 1184.68 587.335 1186.48 581.979C1188.27 576.622 1191.67 568.581 1194.01 564.123C1196.35 559.654 1200.65 552.837 1203.56 548.974C1206.47 545.1 1212.44 538.509 1216.82 534.332C1221.22 530.144 1227.73 524.734 1231.31 522.299C1234.88 519.875 1240.85 516.358 1244.58 514.486C1248.31 512.625 1255.62 509.649 1260.83 507.885C1266.04 506.121 1274.46 503.979 1279.52 503.124C1284.59 502.269 1294.46 501.522 1301.46 501.468ZM897.604 501.003C899.392 500.819 906.955 500.775 914.398 500.916C921.853 501.068 931.603 501.738 936.067 502.431C940.542 503.112 948.95 504.855 954.757 506.305C960.564 507.744 968.614 510.428 972.634 512.246C976.653 514.075 982.873 517.656 986.448 520.199C990.024 522.753 995.073 527.223 997.673 530.134C1000.27 533.055 1003.8 537.882 1005.52 540.857C1007.24 543.833 1009.85 549.915 1011.32 554.384C1012.8 558.842 1014.51 565.66 1015.12 569.534C1015.72 573.398 1016.5 604.563 1016.84 638.79C1017.19 673.007 1017.87 705.147 1018.36 710.211C1018.84 715.264 1020.09 721.108 1021.12 723.196C1022.15 725.274 1024.44 728.445 1029.47 733.477L1025.45 742.134H1003.24C987.564 742.134 979.438 741.69 975.613 740.619C972.634 739.797 966.827 737.361 962.699 735.208C956.892 732.189 952.915 728.867 945.093 720.491C939.535 714.54 934.844 709.908 934.67 710.211C934.497 710.503 932.936 712.938 931.214 715.621C929.48 718.294 926.089 722.612 923.673 725.209C921.257 727.806 917.085 731.539 914.398 733.498C911.722 735.467 906.598 738.53 903.022 740.305C899.447 742.09 893.596 744.352 890.021 745.326C886.402 746.333 877.279 747.382 869.435 747.707C857.712 748.205 853.53 747.923 844.516 746.04C838.557 744.796 830.268 742.155 826.097 740.186C821.286 737.902 816.238 734.331 812.283 730.436C808.849 727.038 804.601 721.357 802.803 717.786C801.015 714.215 798.578 707.754 797.386 703.447C795.956 698.286 795.219 692.258 795.208 685.863C795.208 680.507 795.944 673.321 796.844 669.901C797.732 666.471 799.758 661.115 801.329 657.998C802.9 654.871 806.237 649.633 808.74 646.365C811.243 643.086 817.147 637.308 821.86 633.51C826.573 629.711 833.606 624.766 837.474 622.504C841.353 620.242 849.392 616.444 855.351 614.053C861.31 611.672 878.136 605.98 892.729 601.402C907.334 596.836 921.105 592.183 923.337 591.058C925.569 589.932 928.006 587.908 928.754 586.577C929.686 584.9 930.065 579.251 929.946 568.452C929.86 559.817 929.22 547.155 928.537 540.316C927.768 532.709 926.457 526.075 925.168 523.272C923.835 520.351 921.777 518.014 919.545 516.878C917.497 515.828 913.532 515.092 910.064 515.113C906.793 515.135 902.643 515.893 900.855 516.802C899.068 517.721 896.543 519.604 895.243 521C893.943 522.396 892.35 524.875 891.722 526.52C891.082 528.154 889.544 537.157 888.298 546.539C887.052 555.91 885.134 566.017 884.029 568.993C882.805 572.283 880.205 576.113 877.355 578.797C874.528 581.47 870.334 584.002 866.727 585.214C863.097 586.437 857.593 587.226 852.642 587.248C847.669 587.27 842.425 586.556 839.099 585.42C836.119 584.381 831.493 581.957 828.806 580.009C825.382 577.531 822.879 574.392 820.397 569.49C818.458 565.638 816.574 560.304 816.205 557.631C815.837 554.947 816.075 550.326 816.747 547.351C817.419 544.375 819.423 539.624 821.222 536.8C823.042 533.921 828.405 528.532 833.41 524.55C838.329 520.643 846.736 515.32 852.1 512.733C857.463 510.136 865.513 507.052 869.977 505.872C874.451 504.682 881.765 503.188 886.229 502.539C890.703 501.879 895.816 501.198 897.604 501.003ZM510.541 501.489C517.54 501.414 527.052 501.89 531.668 502.539C536.283 503.188 544.215 504.931 549.274 506.402C554.345 507.874 562.384 510.893 567.151 513.111C571.919 515.33 579.676 519.8 584.389 523.046C589.091 526.292 597.141 533.391 602.266 538.812C607.488 544.353 613.935 552.653 616.947 557.75C619.905 562.739 623.642 570.237 625.257 574.403C626.871 578.57 629.223 585.874 630.479 590.636C631.725 595.397 633.317 605.136 634 612.278C634.943 621.996 634.943 628.391 634.033 637.708C633.361 644.547 631.552 655.022 630.014 660.974C628.475 666.925 625.138 676.178 622.592 681.534C620.035 686.891 615.798 694.434 613.154 698.308C610.521 702.171 605.43 708.436 601.844 712.234C598.258 716.022 592.157 721.508 588.278 724.408C584.41 727.308 577.585 731.594 573.11 733.942C568.647 736.28 560.596 739.623 555.233 741.365C549.87 743.107 542.07 745.218 537.898 746.04C533.229 746.96 523.228 747.544 511.896 747.544C500.563 747.544 490.562 746.96 485.893 746.04C481.721 745.218 473.92 743.107 468.557 741.365C463.194 739.623 455.154 736.28 450.68 733.942C446.216 731.594 439.39 727.308 435.512 724.397C431.644 721.497 425.078 715.535 420.939 711.152C416.801 706.759 411.209 699.769 408.522 695.603C405.825 691.436 401.838 683.883 399.66 678.829C397.482 673.765 394.654 665.486 393.376 660.433C392.108 655.368 390.526 646.853 389.865 641.496C389.15 635.772 388.945 626.172 389.356 618.229C389.736 610.784 390.96 600.558 392.076 595.505C393.203 590.44 395.76 581.924 397.775 576.567C399.791 571.211 403.864 562.738 406.833 557.75C409.834 552.696 416.345 544.31 421.535 538.812C426.649 533.391 434.699 526.292 439.412 523.046C444.114 519.8 452.36 515.114 457.723 512.625C463.086 510.136 471.374 507.074 476.142 505.818C480.909 504.563 487.734 503.102 491.31 502.572C494.885 502.053 503.542 501.554 510.541 501.489ZM745.921 453.822C746.517 453.779 748.348 456.181 749.984 459.157C752.953 464.535 752.964 464.677 752.964 506.771L766.062 507.041C778.576 507.29 779.26 507.43 781.351 510.017C783.008 512.073 783.441 513.913 783.148 517.722C782.91 520.806 781.924 523.63 780.592 525.059C778.62 527.19 777.363 527.396 754.589 527.288L753.787 531.367C753.354 533.607 752.985 571.839 752.975 616.336C752.964 673.277 753.332 698.902 754.21 702.906C755.023 706.629 756.518 709.605 758.544 711.563C761.22 714.128 762.509 714.539 768.132 714.539C771.707 714.539 777.103 715.146 780.115 715.893C785.207 717.148 785.554 717.429 784.904 719.95C784.514 721.433 783.593 724.116 782.856 725.901C782.12 727.687 778.381 731.529 774.557 734.439C770.721 737.35 765.152 740.857 762.173 742.221C758.792 743.768 752.79 745.132 746.192 745.846C740.385 746.484 730.753 747.003 724.794 747.003C718.835 747.003 710.178 746.224 705.562 745.271C700.947 744.33 694.555 742.264 691.358 740.673C688.162 739.093 683.341 735.608 680.654 732.936C677.967 730.252 674.543 725.631 673.048 722.655C671.553 719.679 669.571 715.048 668.628 712.375C667.133 708.122 666.872 696.186 666.255 530.036L660.307 528.143C657.046 527.093 653.937 525.394 653.395 524.355C652.864 523.306 652.321 521.238 652.191 519.756C652.072 518.263 652.018 515.709 652.083 514.075C652.159 512.268 653.167 510.46 654.641 509.497C655.985 508.621 661.716 507.106 667.371 506.132C673.038 505.158 681.813 502.843 686.873 501.003C691.944 499.152 699.496 495.408 703.667 492.659C707.838 489.911 714.1 484.782 717.589 481.254C721.078 477.726 726.625 471.017 729.93 466.342C734.448 459.925 737.026 457.35 740.385 455.867C742.833 454.785 745.324 453.866 745.921 453.822ZM149.479 442.708C167.064 442.524 195.58 442.459 212.861 442.557C230.142 442.643 249.157 443.239 255.116 443.866C261.075 444.494 271.564 445.987 278.411 447.178C285.269 448.368 295.258 450.619 300.621 452.166C305.984 453.713 313.786 456.44 317.957 458.204C322.128 459.979 328.954 463.453 333.125 465.931C337.296 468.409 344.296 473.863 348.684 478.051C353.072 482.239 358.944 489.078 361.75 493.244C364.545 497.41 368.359 504.714 370.212 509.476C372.075 514.237 374.633 523.24 375.911 529.495C377.58 537.676 378.219 544.785 378.219 554.925C378.208 563.019 377.503 572.662 376.55 577.65C375.64 582.412 373.657 590.073 372.151 594.693C370.656 599.303 368.142 605.634 366.582 608.762C365.022 611.878 361.674 617.365 359.139 620.936C356.603 624.507 352.151 629.636 349.247 632.341C346.333 635.046 341.771 638.747 339.084 640.587C336.408 642.416 331.045 645.5 327.166 647.437C323.298 649.374 315.985 652.317 310.914 653.973C305.854 655.628 297.567 657.76 292.496 658.712C287.436 659.664 272.321 661.406 258.908 662.586C245.506 663.765 231.974 664.74 223.154 664.762L223.165 689.38C223.165 702.917 223.62 715.698 224.173 717.786C224.747 719.95 226.947 723.154 229.309 725.264C231.584 727.287 234.672 729.332 236.156 729.809C237.651 730.285 240.208 732.406 241.844 734.505C243.48 736.615 244.704 738.531 244.553 738.747C244.4 738.975 242.699 739.948 240.761 740.911C237.64 742.469 230.565 742.675 178.191 742.675C127.876 742.675 118.666 742.437 115.893 741.052C114.105 740.154 112.643 738.812 112.643 738.076C112.643 737.33 114.831 734.039 117.518 730.771C120.194 727.493 123.726 722.905 128.353 716.314V464.719L126.066 461.667C124.81 459.99 121.722 457.393 119.197 455.91C116.673 454.417 113.986 451.983 113.228 450.5C111.971 448.055 112.111 447.556 114.679 445.414C117.442 443.109 118.395 443.033 149.479 442.708ZM493.715 518.674C490.833 518.674 487.377 519.626 484.636 521.195C482.187 522.591 478.676 525.87 476.812 528.5C474.667 531.541 472.782 536.237 471.623 541.398C470.41 546.809 469.818 554.204 469.847 563.582C469.879 571.319 470.464 582.758 471.168 589.013C471.861 595.257 473.638 607.798 475.101 616.877C476.563 625.945 479.272 639.58 481.114 647.177C482.956 654.762 486.651 667.543 489.327 675.583C491.992 683.612 496.033 694.087 498.298 698.849C500.551 703.61 504.907 711.033 507.962 715.351C511.017 719.657 515.59 724.679 518.125 726.486C520.66 728.304 524.561 730.252 526.793 730.814C529.415 731.485 532.394 731.464 535.189 730.771C537.573 730.176 541.104 728.293 543.044 726.605C544.983 724.917 547.715 720.892 549.123 717.678C550.629 714.237 552.395 706.694 553.392 699.39C554.973 687.93 554.963 685.387 553.283 667.467C552.276 656.754 550.238 640.684 548.765 631.757C547.291 622.829 544.637 609.681 542.882 602.539C541.127 595.397 538.136 584.684 536.24 578.732C534.333 572.781 530.498 563.042 527.703 557.09C524.908 551.138 520.13 542.124 517.074 537.07C514.008 532.006 509.891 526.314 507.908 524.42C505.936 522.515 502.967 520.449 501.331 519.821C499.695 519.183 496.261 518.674 493.715 518.674ZM1284.69 518.351C1282.07 518.351 1278.17 519.358 1275.62 520.688C1273.1 522.02 1269.68 525.201 1267.77 527.992C1265.91 530.719 1263.92 535.145 1263.37 537.829C1262.82 540.502 1261.81 546.832 1261.14 551.896C1260.47 556.95 1260.06 563.735 1260.25 566.981L1260.58 572.868L1261.13 577.598C1261.13 579.232 1262.11 588.365 1263.33 597.888C1264.53 607.41 1266.99 622.506 1268.78 631.434C1270.56 640.361 1273.53 653.022 1275.37 659.569C1277.22 666.116 1280.39 676.094 1282.44 681.753C1284.49 687.402 1287.9 695.441 1290.01 699.607C1292.14 703.774 1295.96 710.105 1298.53 713.676C1301.08 717.247 1305.05 721.964 1307.35 724.172C1309.63 726.368 1313.46 728.976 1315.84 729.95C1318.71 731.13 1321.64 731.509 1324.51 731.076C1327.1 730.687 1330.54 729.009 1333.06 726.921C1335.39 724.984 1338.12 721.705 1339.14 719.627C1340.17 717.538 1341.91 712.182 1343.03 707.724C1344.61 701.404 1345.02 696.123 1344.87 683.917C1344.77 675.282 1343.9 661.409 1342.95 653.076C1342 644.744 1340.23 632.569 1339.02 626.022C1337.81 619.476 1335.35 608.276 1333.56 601.134C1331.76 593.992 1328.44 582.543 1326.19 575.704C1323.93 568.854 1319.83 558.747 1317.07 553.25C1314.31 547.742 1310.05 539.95 1307.61 535.936C1305.16 531.91 1301.86 527.246 1300.29 525.547C1298.71 523.859 1295.59 521.543 1293.36 520.407C1291.13 519.271 1287.23 518.351 1284.69 518.351ZM927.989 614.281C927.112 613.978 920.568 618.901 912.583 625.87C904.956 632.525 896.873 640.403 894.63 643.357C890.924 648.249 890.708 648.909 892.192 650.641L890.849 653.659C889.343 652.837 888.66 653.216 887.512 655.553C886.721 657.165 885.388 661.408 884.554 664.979C883.709 668.55 883.026 673.17 883.016 675.259C883.016 677.336 883.492 680.864 884.088 683.104C884.673 685.334 886.504 688.699 888.14 690.593C889.776 692.476 893.07 694.899 895.453 695.971C897.945 697.096 902.322 697.93 905.746 697.93C909.267 697.93 913.482 697.107 916.039 695.928C918.423 694.824 921.684 692.518 923.298 690.809C924.901 689.099 926.927 685.994 927.794 683.916C928.769 681.6 929.679 674.025 930.167 664.438C930.59 655.802 930.623 641.106 930.222 631.768C929.669 618.663 929.159 614.682 927.989 614.281ZM223.154 642.037C241.172 641.453 244.401 640.835 249.157 638.639C252.44 637.113 257.241 633.737 259.841 631.107C262.712 628.218 266.407 622.515 269.245 616.606C271.813 611.25 275.128 602.722 276.612 597.669C278.097 592.604 280.134 582.865 281.152 576.026C282.572 566.482 282.875 559.156 282.463 544.645C282.008 528.738 281.466 523.976 279.05 514.887C277.479 508.935 274.109 499.683 271.585 494.326C268.519 487.844 264.997 482.477 261.054 478.268C257.045 474.004 252.83 470.887 248.074 468.647C242.635 466.083 239.038 465.206 232.256 464.795L223.479 464.265L223.154 642.037ZM953.402 103.266C957.097 103.157 960.185 103.688 961.528 104.651C963.652 106.166 963.707 107.811 964.324 182.856C964.855 247.763 965.234 261.03 966.762 269.514C967.758 275.011 969.535 282.077 970.705 285.204C971.886 288.342 974.671 292.671 976.936 294.89C979.189 297.086 982.981 299.705 985.364 300.689C987.748 301.674 992.385 302.476 995.657 302.476C998.94 302.476 1003.33 301.772 1005.41 300.906C1007.5 300.041 1010.84 297.908 1012.83 296.188C1014.82 294.456 1017.68 290.366 1019.19 287.098C1020.7 283.819 1022.64 277.975 1023.5 274.112C1024.75 268.561 1025.19 253.671 1025.6 203.774C1025.94 162.21 1025.73 138.792 1025 135.6C1024.27 132.429 1022.64 129.562 1020.34 127.408C1018.38 125.59 1015.69 123.762 1014.35 123.351C1013 122.95 1011.18 121.154 1010.28 119.368C1009.4 117.583 1008.66 115.385 1008.66 114.498C1008.66 113.6 1009.88 112.139 1011.37 111.252C1013.13 110.191 1020.59 109.077 1032.77 108.038C1043.05 107.162 1063.41 105.658 1078 104.673C1097.73 103.353 1105.17 103.211 1106.98 104.099C1108.33 104.759 1110.41 106.88 1111.61 108.817C1113.75 112.28 1113.79 113.784 1113.56 210.267C1113.36 297.984 1113.53 308.816 1115.1 314.151C1116.17 317.755 1118.6 322.127 1121.27 325.243C1123.69 328.067 1125.67 331.109 1125.67 332.007C1125.67 332.894 1124.33 334.441 1122.69 335.447C1120.07 337.049 1117.18 337.19 1098.59 336.638C1083.68 336.194 1075.54 335.48 1070.96 334.182C1067.38 333.175 1061.53 330.827 1057.96 328.955C1054.38 327.094 1048.51 322.625 1044.9 319.043C1041.29 315.461 1036.9 309.964 1031.95 301.145L1027.35 307.918C1024.81 311.64 1020.66 316.857 1018.14 319.519C1015.6 322.17 1011.1 326.304 1008.12 328.717C1005.14 331.119 999.287 334.658 995.115 336.584C990.944 338.51 983.75 340.825 979.135 341.724C974.519 342.622 967.206 343.369 962.883 343.369C958.56 343.369 950.889 342.86 945.818 342.232C940.759 341.605 933.684 340.349 930.108 339.44C926.533 338.531 920.444 336.26 916.565 334.398C911.831 332.115 906.803 328.327 901.234 322.852C894.658 316.38 892.014 312.788 888.515 305.494C886.077 300.43 883.097 292.4 881.895 287.639C880.692 282.877 879.23 274.113 878.645 268.161C878.059 262.209 877.301 229.821 876.954 196.199C876.402 141.931 876.131 134.637 874.506 131.282C873.509 129.205 870.985 126.424 868.894 125.104C866.813 123.772 864.007 121.943 862.663 121.023C861.32 120.114 860.215 118.264 860.204 116.934C860.182 115.592 861.276 113.395 862.642 112.042C864.668 110.018 866.64 109.488 873.769 109.044C878.536 108.752 893.163 107.746 906.272 106.815C919.382 105.885 934.009 104.738 938.776 104.272C943.543 103.818 950.13 103.363 953.402 103.266ZM1387.33 31.7588C1387.92 31.748 1388.98 32.0945 1389.68 32.5381C1390.38 32.9709 1391.48 34.6697 1392.12 36.3037C1392.93 38.3723 1393.3 80.208 1393.31 173.193C1393.33 300.819 1393.43 307.313 1395.32 311.436C1396.42 313.816 1398.24 316.586 1399.36 317.593C1400.49 318.599 1403.24 320.179 1405.47 321.109C1407.71 322.04 1409.97 323.891 1410.49 325.232C1411.04 326.639 1411.04 328.468 1410.49 329.561C1409.97 330.599 1407.71 331.898 1405.47 332.439C1403.24 332.991 1393.86 333.749 1384.62 334.149C1375.38 334.539 1356.85 335.555 1343.45 336.389C1330.03 337.233 1317 337.937 1314.46 337.937C1310.87 337.947 1309.51 337.417 1308.29 335.513C1307.42 334.171 1306.32 329.052 1305.85 324.14C1305.37 319.227 1304.74 315.212 1304.44 315.233C1304.14 315.247 1300.73 317.984 1296.86 321.315C1292.98 324.648 1287.38 328.965 1284.4 330.902C1281.42 332.85 1275.82 335.729 1271.94 337.298C1268.06 338.867 1261.36 340.88 1257.04 341.757C1252.72 342.633 1245.4 343.358 1240.79 343.348C1236.17 343.348 1229.23 342.838 1225.35 342.232C1221.47 341.626 1215.14 340.101 1211.26 338.846C1207.39 337.59 1201.3 335.101 1197.72 333.326C1194.15 331.541 1189.03 328.565 1186.36 326.715C1183.67 324.854 1179 320.904 1175.96 317.928C1172.91 314.952 1168.06 308.86 1165.17 304.401C1162.28 299.932 1158.25 292.876 1156.2 288.71C1154.16 284.544 1151.05 277.24 1149.29 272.479C1147.54 267.717 1144.95 259.19 1143.53 253.541C1142.11 247.892 1140.37 237.904 1139.68 231.357C1138.91 224.194 1138.71 214.714 1139.16 207.551C1139.57 201.004 1140.84 190.54 1141.97 184.285C1143.1 178.03 1145.2 169.514 1146.62 165.348C1148.03 161.182 1150.8 154.603 1152.75 150.739C1154.71 146.876 1158.12 141.032 1160.35 137.753C1162.57 134.474 1166.57 129.366 1169.24 126.391C1171.89 123.415 1177.69 118.242 1182.11 114.909C1186.52 111.565 1193.06 107.367 1196.64 105.593C1200.21 103.807 1206.06 101.34 1209.64 100.117C1213.22 98.8944 1219.55 97.2924 1223.72 96.5674C1228.63 95.7125 1236.27 95.4745 1245.39 95.8965C1254.32 96.3077 1262.06 97.3028 1266.52 98.623C1270.4 99.7593 1276.73 102.032 1280.61 103.666C1284.48 105.311 1291.06 108.73 1295.23 111.273C1299.4 113.816 1303.18 115.699 1303.63 115.462C1304.07 115.224 1304.99 112.475 1305.67 109.348C1306.35 106.22 1306.64 101.47 1306.34 98.7969C1306.02 96.1241 1304.71 91.4925 1303.41 88.5166C1302.11 85.5408 1298.16 80.0653 1294.63 76.3428C1291.08 72.6204 1288.19 68.8436 1288.19 67.9561C1288.19 67.0579 1289.9 64.8715 1291.98 63.0859C1294.07 61.3015 1296.02 59.8414 1296.32 59.8398C1296.62 59.8398 1308.93 56.6583 1323.67 52.7627C1338.42 48.8778 1352.93 44.9171 1355.91 43.9648C1358.89 43.0125 1364.49 40.7728 1368.37 38.9766C1372.24 37.1803 1377.85 34.8213 1380.83 33.75C1383.8 32.6679 1386.73 31.7696 1387.33 31.7588ZM725.877 95.7021C732.139 95.6264 742.129 96.3186 748.088 97.2168C754.047 98.1258 763.192 100.311 768.403 102.086C773.615 103.85 780.927 106.826 784.654 108.688C788.381 110.56 794.351 114.055 797.927 116.457C801.502 118.859 808.48 124.757 813.432 129.562C818.383 134.366 824.775 141.714 827.646 145.88C830.518 150.046 834.331 156.377 836.13 159.948C837.918 163.519 840.842 170.823 842.619 176.18C844.396 181.536 846.531 189.328 847.354 193.494C848.275 198.137 848.85 208.179 848.85 219.465C848.85 230.784 848.276 240.773 847.344 245.437C846.52 249.603 844.516 257.145 842.88 262.209C841.244 267.263 838.329 274.567 836.39 278.441C834.45 282.305 830.518 288.884 827.646 293.05C824.786 297.216 818.632 304.315 813.973 308.816C809.325 313.329 802.347 319.14 798.469 321.737C794.601 324.334 787.775 328.122 783.301 330.146C778.837 332.18 774.2 334.29 773.008 334.831C771.816 335.372 765.965 337.071 760.006 338.607C751.588 340.772 745.433 341.518 732.378 341.994C721.522 342.384 712.323 342.114 706.375 341.248C701.315 340.512 693.027 338.705 687.956 337.233C682.896 335.762 674.846 332.742 670.079 330.513C665.312 328.294 658.248 324.345 654.369 321.748C650.501 319.151 643.394 313.091 638.572 308.286C633.762 303.471 627.695 296.372 625.095 292.509C622.494 288.635 618.29 281.092 615.766 275.735C613.23 270.379 609.893 261.126 608.344 255.175C606.784 249.223 605.126 240.459 604.639 235.697C604.162 230.936 603.924 221.435 604.119 214.596C604.314 207.746 605.213 198.256 606.112 193.494C607.001 188.733 608.767 181.666 610.023 177.803C611.28 173.929 614.119 166.874 616.34 162.112C618.55 157.351 622.483 150.284 625.062 146.421C627.651 142.547 634.207 134.994 639.635 129.638C645.052 124.27 653.156 117.594 657.62 114.802C662.095 111.999 669.646 108.027 674.413 105.96C679.18 103.893 686.981 101.188 691.748 99.9434C696.515 98.6989 703.591 97.2713 707.459 96.7627C711.338 96.2541 719.626 95.7779 725.877 95.7021ZM190.109 37.4072C252.505 37.8617 259.581 38.0895 272.452 40.1455C280.199 41.3899 291.163 43.6083 296.829 45.0908C302.485 46.5733 310.773 49.1055 315.248 50.707C319.712 52.3086 326.3 55.0787 329.875 56.875C333.45 58.6605 338.564 61.6147 341.251 63.4326C343.927 65.2506 348.5 68.7137 351.393 71.1377C354.296 73.5509 358.988 78.4526 361.837 82.0234C364.675 85.5944 368.749 91.6758 370.884 95.5498C373.007 99.413 375.77 105.506 377.005 109.077C378.251 112.648 379.758 117.756 380.364 120.439C380.96 123.112 381.891 129.93 382.422 135.589C383.007 141.865 382.975 150.501 382.336 157.772C381.751 164.319 380.061 174.545 378.565 180.497C377.059 186.449 373.712 195.701 371.122 201.058C368.522 206.414 363.722 214.206 360.439 218.372C357.157 222.538 352.345 227.678 349.756 229.799C347.166 231.92 342.605 235.297 339.626 237.31C336.646 239.333 331.283 242.287 327.708 243.889C324.133 245.49 317.307 248.033 312.54 249.537C307.773 251.041 299.484 253.011 294.121 253.92C288.758 254.818 281.445 255.835 277.869 256.171C274.294 256.506 268.194 257.026 264.326 257.329C260.447 257.632 251.433 258.346 244.282 258.941C237.132 259.526 230.426 260.013 229.385 260.013C227.619 260.034 227.511 261.906 227.76 286.275C228.009 310.851 228.171 312.755 230.327 316.305C231.671 318.512 234.791 321.218 237.835 322.798C240.695 324.28 244.163 326.844 245.55 328.479C246.937 330.113 248.074 331.942 248.074 332.537C248.073 333.132 246.362 334.355 244.282 335.242C241.064 336.616 231.638 336.865 182.525 336.865C126.728 336.865 124.398 336.79 115.893 332.537L118.06 329.29C119.251 327.505 121.57 325.363 123.206 324.529C124.842 323.685 127.269 321.856 128.602 320.471C129.923 319.075 131.516 316.229 132.134 314.141C132.871 311.63 133.239 268.528 133.206 62.5449L130.779 57.6758C128.992 54.0831 127.074 52.1568 123.477 50.3389C120.79 48.9863 117.995 46.6709 117.247 45.1992C116.034 42.7969 116.196 42.2333 118.872 39.7119L121.852 36.9092L190.109 37.4072ZM546.565 95.6689C550.737 95.6257 557.324 96.2538 561.192 97.0654C565.071 97.877 570.673 99.7596 573.652 101.253C576.632 102.746 581.507 106.134 584.486 108.796C587.867 111.804 591.334 116.424 593.696 121.045C597.358 128.187 597.488 128.869 597.488 140.415C597.488 151.691 597.293 152.763 594.01 159.407C592.092 163.27 588.918 168.107 586.968 170.142C585.007 172.187 581.702 174.936 579.611 176.256C577.531 177.576 573.143 179.502 569.86 180.541C565.516 181.915 561.55 182.293 555.233 181.958C548.69 181.601 545.374 180.833 541.69 178.82C538.657 177.154 535.46 174.102 533.229 170.747C531.257 167.782 528.645 161.949 527.421 157.783C526.197 153.617 524.333 148.499 523.282 146.421C522.231 144.332 520.096 142.017 518.525 141.281C516.965 140.535 514.224 139.929 512.437 139.929C510.649 139.929 507.724 140.654 505.937 141.552C504.149 142.439 501.884 144.754 500.898 146.691C499.837 148.78 498.785 154.581 498.319 161.03C497.875 166.983 497.464 202.043 497.388 238.943C497.312 280.854 497.669 307.551 498.352 310.094C498.948 312.323 500.779 315.677 502.415 317.538C504.051 319.41 507.225 321.845 509.457 322.949C511.689 324.064 514.257 324.973 515.146 324.973C516.045 324.973 518.114 326.682 519.75 328.781C521.386 330.881 522.491 332.764 522.188 332.98C521.894 333.187 520.064 334.15 518.125 335.112C515.005 336.671 508.038 336.876 456.91 336.865C401.156 336.865 399.096 336.79 395.694 334.701C393.756 333.522 392.175 332.3 392.174 332.007C392.174 331.704 393.268 329.994 394.611 328.197C395.955 326.39 397.537 324.919 398.133 324.919C398.729 324.908 400.896 323.587 402.943 321.964C404.991 320.341 407.31 317.43 408.09 315.504C409.217 312.711 409.509 295.818 409.52 233.803C409.52 158.292 409.454 155.468 407.396 151.291C405.89 148.229 403.582 145.989 399.53 143.662C396.031 141.649 393.376 139.246 392.715 137.482C391.794 135.026 392.044 134.161 394.341 131.812C396.443 129.648 406.899 125.774 441.2 114.455C476.055 102.952 485.806 100.117 487.518 100.972C488.709 101.567 490.107 103.147 490.627 104.488C491.136 105.819 492.48 112.648 493.606 119.649C494.722 126.66 495.762 132.373 495.914 132.364C496.066 132.364 498.503 128.577 501.331 123.967C504.159 119.346 508.926 113.146 511.938 110.17C514.94 107.194 520.064 103.331 523.314 101.589C526.565 99.8359 531.429 97.812 534.105 97.0869C536.792 96.3511 542.394 95.7123 546.565 95.6689ZM708.542 112.854C705.866 112.864 702.204 113.644 700.416 114.574C698.628 115.505 696.191 117.16 694.999 118.253C693.807 119.346 691.435 123.091 689.723 126.575C687.404 131.272 686.375 135.384 685.703 142.634C685.194 148.066 685.237 161.441 685.79 172.934C686.343 184.242 687.805 200.311 689.051 208.644C690.698 219.67 694.869 241.67 696.147 242.46C696.483 244.689 699.355 254.309 702.54 263.832C705.715 273.355 710.687 286.666 713.58 293.407C716.473 300.16 720.547 307.908 722.627 310.646C725.238 314.065 728.857 316.889 734.274 319.746C740.017 322.776 743.44 323.891 747.005 323.891C751.013 323.891 752.606 323.241 755.943 320.244C758.175 318.253 761.555 313.74 763.451 310.234C765.401 306.631 767.407 300.808 768.057 296.837C768.685 292.963 769.193 285.908 769.183 281.146C769.183 276.385 768.479 265.672 767.634 257.34C766.778 249.007 765.304 236.833 764.34 230.286C763.386 223.739 761.1 211.804 759.28 203.774C757.449 195.734 754.037 183.073 751.686 175.639C749.334 168.194 744.036 155.294 739.93 146.962C735.813 138.63 730.222 128.89 727.503 125.319C724.794 121.748 720.504 117.474 717.99 115.818C714.664 113.632 712.096 112.821 708.542 112.854ZM1265.45 123.383C1261.38 123.372 1257.99 124.129 1254.71 125.796C1252.08 127.138 1248.55 129.811 1246.86 131.748C1245.17 133.685 1242.37 138.068 1240.64 141.487C1238.92 144.907 1236.75 150.631 1235.84 154.202C1234.93 157.773 1233.07 167.026 1231.71 174.763C1229.64 186.623 1229.25 192.65 1229.27 213.178C1229.29 233.706 1229.66 239.561 1231.7 250.512C1233.03 257.654 1235.35 267.144 1236.87 271.613C1238.38 276.072 1241.39 282.651 1243.57 286.222C1245.73 289.793 1249.47 294.846 1251.88 297.443C1254.28 300.04 1258.19 303.136 1260.58 304.326C1262.96 305.527 1266.86 306.512 1269.24 306.522C1271.63 306.544 1275.16 306.241 1277.1 305.852C1280.37 305.213 1280.62 304.845 1280.62 300.831L1287.39 299.792C1287.83 299.77 1289.69 297.682 1291.5 295.149C1293.31 292.617 1296.2 287.142 1297.93 282.976C1299.66 278.809 1301.8 271.267 1302.7 266.202C1303.59 261.138 1305.17 248.964 1306.21 239.149C1307.87 223.415 1307.92 219.292 1306.72 204.521C1305.96 195.291 1304.68 183.614 1303.86 178.55C1303.05 173.486 1301.34 165.944 1300.06 161.777C1298.78 157.611 1295.86 150.544 1293.57 146.086C1291.27 141.617 1287.3 135.579 1284.74 132.646C1282.18 129.714 1278.13 126.446 1275.74 125.363C1273.28 124.26 1268.83 123.394 1265.45 123.383ZM236.099 58.7061C229.587 58.2732 227.821 58.4797 227.713 59.6592C227.711 59.6781 227.712 59.6979 227.713 59.7178L227.54 81.7129C227.551 231.355 227.659 235.937 229.446 236.327C230.486 236.554 235.243 236.295 240.01 235.765C246.489 235.029 250.292 233.903 255.07 231.295C258.591 229.369 263.911 225.117 266.891 221.849C269.881 218.57 273.955 212.487 275.938 208.321C277.92 204.155 280.769 195.877 282.275 189.926C283.781 183.974 285.493 175.209 286.078 170.447C286.663 165.686 287.141 156.304 287.141 149.616C287.141 142.918 286.393 131.718 285.482 124.728C284.572 117.726 282.569 107.868 281.041 102.814C279.513 97.7501 276.501 89.9584 274.345 85.5C271.712 80.0136 268.321 75.252 263.9 70.8369C259.177 66.1081 255.525 63.5758 250.845 61.7578C246.998 60.2645 240.974 59.0199 236.099 58.7061Z" fill="#FF8E87"/>
</svg>
