<svg width="319" height="263" viewBox="0 0 319 263" fill="none" xmlns="http://www.w3.org/2000/svg">
<path d="M140.31 72.1682C139.76 72.5409 138.999 73.2535 138.622 73.7505C138.244 74.2497 137.755 75.0514 137.532 75.5296C137.2 76.2515 137.005 76.4039 136.427 76.4109C136.04 76.4156 135.467 76.2328 135.153 76.0078C134.839 75.7804 134.443 75.253 134.274 74.8334C134.106 74.4138 133.862 74.0716 133.733 74.0716C133.605 74.0716 133.497 74.2568 133.492 74.4818C133.49 74.7068 133.729 75.26 134.026 75.7124C134.415 76.3055 134.886 76.6407 135.729 76.9219C136.867 77.3017 136.898 77.3345 136.968 78.3284C137.008 78.8886 137.219 79.709 137.436 80.152C137.654 80.595 138.148 81.1553 138.535 81.3967C139.081 81.7366 139.509 81.8045 140.467 81.7038C141.463 81.5983 141.697 81.6405 141.697 81.9241C141.697 82.1163 141.987 82.496 142.341 82.7679C142.84 83.1477 143.221 83.2367 144.039 83.1571C144.617 83.1008 145.714 82.7492 146.472 82.3718C147.229 81.9968 148.1 81.399 148.405 81.0451C148.709 80.6911 148.96 80.2153 148.962 79.9903C148.964 79.7652 148.831 79.3879 148.669 79.1534C148.468 78.8628 148.147 78.7503 147.672 78.8018C147.22 78.8511 146.95 79.0222 146.91 79.2871C146.864 79.6012 147.016 79.6973 147.552 79.6973C147.955 79.6973 148.257 79.8215 148.262 79.9903C148.264 80.152 148.028 80.513 147.735 80.7943C147.44 81.0732 146.674 81.5631 146.03 81.8819C145.386 82.2007 144.517 82.5242 144.097 82.6015C143.484 82.7164 143.221 82.6296 142.751 82.1585C142.427 81.8374 142.163 81.4928 142.16 81.3967C142.158 81.3006 142.631 80.8787 143.214 80.4591C143.798 80.0395 144.404 79.6996 144.566 79.7043C144.727 79.7066 144.779 79.6551 144.683 79.5871C144.587 79.5191 144.826 79.0152 145.217 78.4666C145.622 77.8971 145.927 77.1704 145.929 76.7672C145.931 76.3805 145.77 75.9328 145.571 75.771C145.374 75.6093 144.945 75.5319 144.624 75.5952C144.301 75.6585 143.643 76.0664 143.161 76.4977C142.678 76.929 142.097 77.6673 141.872 78.1385C141.648 78.6096 141.463 79.3621 141.463 79.8145C141.463 80.4005 141.329 80.7029 140.994 80.8693C140.736 80.9982 140.261 81.1037 139.94 81.1037C139.617 81.1037 139.144 80.9982 138.886 80.8693C138.629 80.7404 138.209 80.1872 137.954 79.6387C137.699 79.0902 137.488 78.3518 137.486 77.9978C137.481 77.4329 137.661 77.2712 138.945 76.6875C139.75 76.3195 140.961 75.5296 141.638 74.9295C142.734 73.9544 142.868 73.7364 142.868 72.8996C142.868 72.1964 142.751 71.9034 142.399 71.7276C142.142 71.5986 141.79 71.4932 141.622 71.4932C141.451 71.4932 140.861 71.7979 140.31 72.1682Z" fill="#DA9978"/>
<path d="M190.945 237.455C191.184 237.453 191.402 237.673 191.468 237.978C191.529 238.269 192.006 241.248 192.533 244.6C193.057 247.945 193.509 250.713 193.536 250.764C193.56 250.801 194.635 250.67 195.923 250.471C197.211 250.274 198.396 250.113 198.558 250.11C198.722 250.11 198.852 250.394 198.854 251.397L193.29 252.28C190.23 252.768 187.542 253.165 187.315 253.16C187.055 253.158 186.884 252.946 186.847 252.585C186.805 252.182 186.927 251.978 187.257 251.894C187.515 251.828 188.648 251.636 189.776 251.47C191.303 251.24 191.828 251.073 191.833 250.811C191.835 250.614 191.385 247.63 190.835 244.178C189.959 238.693 189.878 237.87 190.185 237.678C190.379 237.556 190.72 237.457 190.945 237.455ZM238.608 218.939C239.569 218.935 240.536 219.11 241.419 219.45C242.285 219.785 243.143 220.355 243.819 221.049C244.4 221.642 245.138 222.648 245.459 223.285C245.955 224.263 246.045 224.765 246.045 226.551C246.045 228.304 245.953 228.838 245.499 229.715C245.199 230.296 244.461 231.274 243.859 231.888C243.258 232.502 242.187 233.28 241.478 233.617C240.684 233.995 239.575 234.285 236.98 234.52L237.062 233.816C237.142 233.142 237.203 233.109 238.55 232.966C239.323 232.884 240.376 232.605 240.892 232.35C241.407 232.092 242.145 231.62 242.531 231.299C242.918 230.978 243.519 230.199 243.868 229.571C244.217 228.941 244.574 227.952 244.658 227.371C244.761 226.675 244.686 225.859 244.433 224.968C244.14 223.927 243.772 223.332 242.824 222.353C241.827 221.321 241.332 221.007 240.189 220.684C239.283 220.423 238.432 220.334 237.788 220.428C237.24 220.507 236.346 220.796 235.798 221.067C235.25 221.339 234.45 221.892 234.02 222.298C233.591 222.703 233.038 223.43 232.79 223.913C232.544 224.396 232.343 224.951 232.343 225.144C232.343 225.385 232.142 225.476 231.699 225.437C231.149 225.387 231.057 225.277 231.071 224.675C231.081 224.288 231.357 223.498 231.683 222.917C232.008 222.338 232.739 221.471 233.306 220.99C233.87 220.51 234.966 219.854 235.739 219.53C236.721 219.12 237.587 218.942 238.608 218.939ZM100.246 218.939C100.97 218.942 101.946 219.127 102.471 219.361C102.986 219.591 104.277 220.432 105.34 221.231C106.403 222.028 107.352 222.687 107.448 222.694C107.545 222.698 108.231 221.909 108.971 220.937C110.259 219.244 110.34 219.181 110.844 219.495C111.134 219.676 111.364 219.966 111.357 220.14C111.346 220.315 109.398 223.019 107.024 226.149C104.649 229.281 102.625 231.839 102.529 231.834C102.432 231.828 101.484 231.168 100.422 230.369C99.3585 229.567 97.9738 228.432 97.3438 227.849C96.7114 227.263 96.0018 226.362 95.7676 225.847C95.5311 225.331 95.3389 224.436 95.3389 223.854C95.3389 223.276 95.5336 222.378 95.7725 221.862C96.0113 221.347 96.5075 220.641 96.8799 220.294C97.2499 219.949 97.8684 219.501 98.2549 219.3C98.646 219.098 99.5294 218.937 100.246 218.939ZM100.827 220.43C100.005 220.355 99.4293 220.442 98.8955 220.723C98.4763 220.943 97.8763 221.502 97.5625 221.961C97.2487 222.423 96.9207 223.116 96.834 223.503C96.738 223.941 96.8175 224.56 97.0469 225.144C97.2506 225.659 97.764 226.41 98.1855 226.811C98.6071 227.209 99.6911 228.083 100.593 228.749C101.494 229.415 102.299 229.877 102.376 229.778C102.456 229.68 103.458 228.343 104.601 226.812L106.683 224.025C105.411 222.966 104.357 222.181 103.521 221.6C102.343 220.777 101.733 220.514 100.827 220.43ZM268.218 184.119C270.719 179.745 270.855 179.557 271.321 179.857C271.593 180.032 274.47 181.691 277.722 183.544C280.974 185.4 283.634 187.001 283.636 187.103C283.636 187.206 282.531 189.241 278.718 195.961L278.132 195.609C277.811 195.417 277.587 195.178 277.633 195.082C277.682 194.986 278.631 193.298 279.741 191.331C280.853 189.366 281.735 187.719 281.703 187.668C281.67 187.619 280.696 187.041 279.537 186.383C278.379 185.725 277.352 185.184 277.254 185.181C277.158 185.181 276.324 186.524 275.401 188.167C274.479 189.809 273.636 191.285 273.527 191.448C273.387 191.659 273.197 191.676 272.862 191.507C272.605 191.378 272.394 191.167 272.394 191.038C272.394 190.908 273.212 189.378 274.209 187.635C275.206 185.891 275.934 184.389 275.822 184.295C275.712 184.201 274.659 183.579 273.48 182.911C272.306 182.246 271.261 181.745 271.164 181.798C271.068 181.852 270.039 183.585 268.88 185.647C266.864 189.236 266.749 189.386 266.245 189.133C265.955 188.985 265.694 188.828 265.66 188.781C265.627 188.734 266.78 186.637 268.218 184.119ZM72.6064 173.214C72.6721 173.21 72.8662 173.501 73.0371 173.859C73.325 174.469 73.2574 174.692 70.7354 179.787L73.0771 184.475L75.0684 183.42C76.1641 182.841 77.138 182.363 77.2344 182.358C77.3304 182.356 77.5462 182.644 77.7148 183.003C77.963 183.537 77.9628 183.69 77.7148 183.842C77.5462 183.945 74.564 185.455 71.0859 187.196C67.608 188.938 64.6972 190.278 64.6152 190.173C64.535 190.068 63.8205 188.717 63.0293 187.171C62.2377 185.624 61.4761 183.779 61.3379 183.068C61.1576 182.143 61.1601 181.5 61.3428 180.783C61.4856 180.235 61.9431 179.41 62.3623 178.948C62.7815 178.487 63.5443 177.909 64.0596 177.663C64.6076 177.401 65.5075 177.213 66.2266 177.213C66.9032 177.211 67.7974 177.379 68.2168 177.588C68.636 177.797 69.138 178.111 69.3301 178.287C69.6367 178.565 69.8644 178.258 71.084 175.915C71.8569 174.436 72.5409 173.219 72.6064 173.214ZM66.3301 178.615C65.9717 178.615 65.208 178.856 64.6318 179.151C63.88 179.538 63.4378 179.984 63.0537 180.734C62.644 181.531 62.5525 182.002 62.6602 182.717C62.7374 183.232 63.3485 184.726 64.0137 186.036L65.2266 188.418L71.8623 185.061C70.2139 181.792 69.5392 180.552 69.2979 180.197C69.0543 179.843 68.4352 179.342 67.9199 179.084C67.4047 178.826 66.6907 178.615 66.3301 178.615ZM187.395 135.129C187.512 135.197 187.233 136.12 186.774 137.185C186.315 138.249 185.283 140.384 184.475 141.931C183.669 143.478 182.139 146.115 181.078 147.791C180.017 149.467 178.549 151.696 177.815 152.741C177.082 153.789 175.78 155.583 174.923 156.727C174.063 157.873 173.101 159.335 172.782 159.979C172.464 160.624 172.135 161.363 172.056 161.621C171.962 161.923 172.08 162.28 172.382 162.617C172.642 162.908 173.194 163.318 173.613 163.531C174.033 163.742 175.377 164.575 176.6 165.381C177.825 166.187 179.512 167.465 180.348 168.222C181.186 168.979 182.503 170.233 183.275 171.009C184.048 171.782 185.076 172.598 185.559 172.82C186.041 173.043 186.568 173.226 186.729 173.23C186.891 173.233 187.413 172.945 187.894 172.586C188.371 172.227 188.768 171.778 188.772 171.583C188.777 171.391 188.529 170.863 188.22 170.411C187.911 169.961 186.671 168.808 185.467 167.854C184.261 166.897 182.462 165.21 181.472 164.104C180.479 162.995 179.202 161.405 178.635 160.565C178.07 159.729 177.443 158.725 176.879 157.636L179.211 155.058C180.492 153.639 182.415 151.319 183.483 149.9C184.549 148.482 185.985 146.479 186.671 145.447C187.359 144.416 188.273 143.044 188.704 142.399C189.132 141.755 189.484 141.308 189.484 141.403C189.482 141.499 189.22 142.001 188.896 142.517C188.576 143.032 188.316 143.585 188.322 143.747C188.327 143.909 188.154 144.2 187.934 144.393C187.716 144.587 187.395 145.086 187.222 145.506C187.07 145.873 186.881 146.177 186.771 146.244L186.688 146.271C186.576 146.339 186.376 146.648 186.21 147.02C186.02 147.444 184.875 149.11 183.664 150.721C182.451 152.333 181.367 153.677 181.254 153.71C181.141 153.743 180.879 154.111 180.671 154.53C180.462 154.95 179.778 155.74 179.148 156.288C178.521 156.836 178.006 157.415 178.003 157.577C178.001 157.739 178.502 158.618 179.115 159.532C179.729 160.449 180.917 162.015 181.753 163.016C182.613 164.042 184.235 165.564 185.483 166.511C186.699 167.432 188.201 168.632 188.821 169.181C189.739 169.992 189.979 170.364 190.096 171.173C190.178 171.745 190.128 172.394 189.979 172.696C189.751 173.153 189.847 173.402 190.699 174.571C191.24 175.312 191.74 175.999 191.812 176.098C191.884 176.196 192.469 176.16 193.112 176.018C194.119 175.795 194.41 175.821 195.176 176.191C195.665 176.428 196.116 176.781 196.178 176.974C196.239 177.168 196.194 177.591 196.082 177.912C195.969 178.236 195.414 178.887 194.845 179.36C194.278 179.834 192.655 180.802 191.238 181.508C189.821 182.216 187.924 183.071 187.022 183.408C186.121 183.748 184.699 184.236 183.86 184.496C183.024 184.754 182.286 184.913 182.221 184.848C182.158 184.782 182.526 184.561 183.041 184.357C183.556 184.154 184.399 183.805 184.914 183.587C185.429 183.367 187.116 182.553 188.662 181.779C190.207 181.006 191.842 180.118 192.292 179.804C192.744 179.492 193.459 178.858 193.883 178.396C194.306 177.938 194.65 177.456 194.648 177.326C194.646 177.181 194.29 177.157 193.702 177.268C193.184 177.364 191.681 177.952 190.36 178.57C189.039 179.191 187.17 180.162 186.203 180.729C185.182 181.327 183.837 182.4 182.994 183.291C182.194 184.137 181.59 184.905 181.647 185.002C181.706 185.098 181.542 185.178 181.284 185.178C181.027 185.178 180.818 185.047 180.82 184.885C180.821 184.722 181.228 183.907 181.722 183.068C182.218 182.232 182.999 181.229 183.458 180.842C183.917 180.455 185.461 179.532 189.481 177.443L189.004 176.798C188.742 176.444 188.294 175.812 188.009 175.395C187.662 174.886 187.299 174.635 186.905 174.63C186.584 174.625 185.898 174.496 185.383 174.344C184.692 174.137 183.741 173.373 181.753 171.428C180.273 169.977 178.48 168.355 177.771 167.823C177.063 167.291 175.534 166.297 174.375 165.615C173.216 164.933 171.925 164.045 171.506 163.642C170.869 163.03 170.744 162.739 170.744 161.855C170.744 161.152 170.963 160.39 171.4 159.569C171.759 158.892 173.092 156.916 174.358 155.175C175.625 153.436 177.656 150.482 178.867 148.611C180.08 146.743 181.977 143.736 183.085 141.931C184.19 140.126 185.566 137.831 186.14 136.828C186.711 135.827 187.277 135.064 187.395 135.129ZM102.822 151.658C104.593 151.658 104.736 151.698 105.398 152.361C105.911 152.875 106.102 153.288 106.102 153.886C106.101 154.42 105.904 154.931 105.534 155.351C105.031 155.925 104.789 156.002 101.651 156.112V157.167C101.651 157.948 101.56 158.222 101.3 158.222C101.005 158.221 100.948 157.701 100.948 154.94V151.658H102.822ZM128.703 151.685C129.453 151.678 130.13 151.829 130.577 152.108C130.964 152.348 131.478 152.95 131.72 153.449C132.036 154.099 132.121 154.619 132.018 155.292C131.938 155.808 131.713 156.466 131.519 156.757C131.322 157.047 130.821 157.495 130.401 157.753C129.982 158.011 129.244 158.222 128.762 158.222C128.279 158.222 127.593 158.109 127.239 157.971C126.886 157.835 126.354 157.493 126.059 157.209C125.761 156.928 125.42 156.302 125.298 155.819C125.155 155.262 125.155 154.622 125.298 154.062C125.422 153.579 125.817 152.906 126.176 152.568C126.536 152.229 126.989 151.896 127.181 151.825C127.375 151.753 128.059 151.692 128.703 151.685ZM153.179 151.658C154.739 151.658 155.753 151.752 155.755 151.893C155.755 152.021 155.253 152.153 153.529 152.244L153.472 155.233C153.437 157.03 153.319 158.22 153.179 158.222C153.038 158.222 152.921 157.031 152.827 152.244L151.715 152.186C151.104 152.153 150.603 152.021 150.603 151.893C150.605 151.752 151.618 151.658 153.179 151.658ZM195.688 151.424C195.986 151.424 196.04 151.959 196.04 154.823C196.04 157.687 195.986 158.222 195.688 158.222C195.393 158.222 195.337 157.687 195.337 154.823C195.337 151.959 195.393 151.424 195.688 151.424ZM247.216 151.658C247.511 151.659 247.566 152.18 247.566 154.94C247.566 157.412 247.494 158.219 247.274 158.215C247.113 158.21 246.087 157.057 243 153.093L242.941 155.657C242.895 157.755 242.819 158.222 242.531 158.222C242.236 158.222 242.18 157.702 242.18 154.94C242.18 152.465 242.253 151.661 242.473 151.67C242.634 151.677 243.693 152.863 246.881 156.933L246.874 154.296C246.867 152.104 246.925 151.658 247.216 151.658ZM269.632 151.654C270.341 151.652 271.073 151.794 271.34 151.986C271.597 152.171 271.756 152.378 271.691 152.441C271.628 152.507 271.131 152.437 270.588 152.287C269.904 152.095 269.41 152.082 268.972 152.244C268.627 152.373 268.226 152.665 268.086 152.89C267.899 153.185 267.899 153.415 268.079 153.71C268.218 153.935 268.969 154.331 269.744 154.589C270.522 154.847 271.337 155.217 271.553 155.409C271.775 155.608 271.941 156.094 271.937 156.522C271.927 157.071 271.745 157.422 271.281 157.776C270.761 158.173 270.379 158.252 269.302 158.187C268.445 158.135 267.814 157.959 267.545 157.701C267.313 157.479 267.178 157.247 267.241 157.184C267.307 157.123 267.834 157.233 268.412 157.425C268.993 157.619 269.757 157.72 270.11 157.647C270.464 157.577 270.908 157.282 271.096 156.991C271.332 156.626 271.367 156.34 271.213 156.054C271.089 155.829 270.384 155.477 269.642 155.273C268.885 155.067 268.065 154.655 267.768 154.336C267.477 154.024 267.246 153.553 267.253 153.29C267.258 153.025 267.517 152.552 267.826 152.235C268.283 151.769 268.627 151.659 269.632 151.654ZM219.094 151.661C219.869 151.661 220.546 151.823 221.042 152.13C221.461 152.385 221.962 152.967 222.154 153.417C222.349 153.869 222.506 154.554 222.506 154.94C222.506 155.327 222.344 155.986 222.147 156.405C221.951 156.825 221.501 157.373 221.152 157.624C220.801 157.875 220.042 158.124 219.461 158.178C218.81 158.236 218.073 158.131 217.529 157.896C217.047 157.69 216.44 157.176 216.185 156.757C215.897 156.29 215.716 155.587 215.719 154.94C215.721 154.362 215.852 153.628 216.011 153.312C216.17 152.993 216.662 152.493 217.103 152.197C217.679 151.811 218.246 151.659 219.094 151.661ZM128.523 152.142C128.233 152.151 127.77 152.24 127.493 152.341C127.217 152.444 126.743 152.814 126.438 153.168C126.043 153.627 125.889 154.094 125.889 154.825C125.889 155.491 126.057 156.072 126.378 156.506C126.65 156.869 127.282 157.3 127.783 157.467C128.437 157.678 128.9 157.697 129.401 157.533C129.788 157.404 130.343 157.059 130.636 156.764C130.928 156.471 131.231 155.808 131.309 155.292C131.405 154.652 131.329 154.113 131.069 153.593C130.842 153.138 130.36 152.69 129.87 152.479C129.418 152.285 128.814 152.135 128.523 152.142ZM219.047 152.137C218.822 152.142 218.311 152.292 217.913 152.47C217.515 152.648 216.993 153.091 216.754 153.456C216.515 153.822 216.321 154.488 216.321 154.94C216.321 155.39 216.499 156.051 216.717 156.405C216.937 156.759 217.351 157.172 217.642 157.319C217.932 157.467 218.548 157.598 219.012 157.612C219.475 157.624 220.146 157.476 220.502 157.284C220.858 157.09 221.296 156.642 221.474 156.288C221.654 155.934 221.799 155.327 221.799 154.94C221.799 154.554 221.64 153.921 221.448 153.534C221.249 153.136 220.74 152.679 220.276 152.479C219.824 152.285 219.272 152.132 219.047 152.137ZM101.647 155.409C104.214 155.423 104.673 155.322 104.978 155.006C105.2 154.776 105.39 154.272 105.397 153.886C105.404 153.454 105.214 153 104.907 152.714C104.558 152.388 103.992 152.219 103.058 152.158L101.708 152.071L101.647 155.409ZM186.896 127.981C186.966 127.979 187.418 128.507 187.9 129.153C188.383 129.8 189.238 131.251 189.8 132.379C190.362 133.506 191.274 135.591 191.824 137.009C192.375 138.427 193.206 140.527 193.672 141.676C194.138 142.824 194.754 144.01 195.044 144.312C195.334 144.615 195.836 144.861 196.157 144.861C196.48 144.861 197.021 144.676 197.36 144.451C197.7 144.226 198.543 143.222 199.234 142.224C199.925 141.225 200.487 140.381 200.482 140.349C200.478 140.315 201.088 139.183 201.837 137.829C202.586 136.477 203.378 134.866 203.601 134.254C203.823 133.643 204.129 133.061 204.281 132.965C204.49 132.834 204.513 133.08 204.38 133.961C204.279 134.606 203.808 136.137 203.333 137.36C202.858 138.586 201.977 140.431 201.38 141.462C200.78 142.493 199.834 143.853 199.276 144.481C198.721 145.112 197.975 145.77 197.621 145.946C197.267 146.124 196.66 146.268 196.273 146.268C195.887 146.267 195.308 146.162 194.985 146.033C194.665 145.904 194.142 145.457 193.826 145.037C193.51 144.618 192.765 143.114 192.168 141.696C191.571 140.278 190.973 138.75 190.84 138.298C190.704 137.848 190.302 136.738 189.938 135.836C189.578 134.934 188.899 133.511 188.426 132.672C187.955 131.835 187.447 131.015 187.297 130.851C187.077 130.609 186.973 130.633 186.77 130.968C186.629 131.195 185.852 132.648 185.039 134.195C184.226 135.742 183.383 137.274 183.165 137.595C182.947 137.918 182.207 139.235 181.519 140.524C180.83 141.813 179.931 143.395 179.519 144.04C179.109 144.685 178.202 145.907 177.509 146.753C176.816 147.599 175.881 148.623 175.429 149.028C174.979 149.431 174.53 149.769 174.434 149.774C174.338 149.779 174.206 148.993 174.141 148.025C174.077 147.06 173.918 146.216 173.789 146.15C173.66 146.087 173.239 146.35 172.853 146.736C172.467 147.122 172.071 147.438 171.975 147.441C171.879 147.441 171.562 147.812 171.271 148.262C170.782 149.023 170.768 149.134 171.089 149.842C171.276 150.261 171.473 151.29 171.524 152.127C171.611 153.554 171.576 153.691 170.948 154.296C170.552 154.676 170.011 154.943 169.632 154.945C169.278 154.948 168.751 154.737 168.461 154.477C168.171 154.217 167.934 153.924 167.934 153.827C167.936 153.731 167.275 152.943 166.47 152.078C165.666 151.213 164.713 150.107 164.353 149.617C163.994 149.13 163.119 147.833 162.409 146.736C161.7 145.642 161.001 144.375 160.86 143.923C160.671 143.323 160.673 142.913 160.865 142.399C161.01 142.013 161.42 141.561 161.778 141.395C162.233 141.181 162.606 141.157 163.016 141.314C163.339 141.439 164.36 142.313 165.285 143.26C166.21 144.204 167.238 145.531 168.168 147.439L170.276 145.799C171.602 144.767 172.602 144.157 172.97 144.157C173.454 144.157 173.555 144.047 173.541 142.868L174.025 143.337C174.426 143.726 174.506 144.069 174.478 145.33C174.459 146.169 174.464 147.064 174.485 147.322C174.506 147.58 174.637 148.002 174.777 148.26C175.014 148.698 175.097 148.654 176.05 147.557C176.61 146.912 177.251 146.026 177.479 145.59C177.703 145.152 178.083 144.573 178.319 144.301C178.554 144.029 179.385 142.594 180.165 141.11C180.945 139.629 182.158 137.254 182.86 135.836C183.563 134.418 184.729 132.072 185.453 130.621C186.173 129.173 186.821 127.988 186.896 127.981ZM162.726 142.714C162.426 142.552 162.283 142.604 162.168 142.918C162.084 143.148 162.145 143.602 162.302 143.923C162.459 144.246 163.152 145.353 163.838 146.385C164.526 147.416 165.517 148.841 166.042 149.549C166.564 150.259 167.276 151.26 167.623 151.775C167.97 152.291 168.525 153.006 168.853 153.362C169.183 153.721 169.637 154.009 169.862 154.007C170.089 154.004 170.438 153.663 170.646 153.241C170.902 152.721 170.975 152.162 170.881 151.482C170.804 150.934 170.635 150.224 170.506 149.9C170.302 149.39 170.216 149.352 169.827 149.607C169.459 149.849 169.277 149.83 168.773 149.49C168.439 149.265 168.159 148.895 168.154 148.67C168.149 148.445 167.016 147.06 165.637 145.595C164.257 144.127 162.948 142.831 162.726 142.714ZM282.872 133.643C283.024 133.141 283.137 133.101 284.1 133.218C284.683 133.29 287.884 133.539 291.215 133.771C294.545 134.006 297.392 134.271 297.539 134.362C297.738 134.487 297.73 135.634 297.501 138.933C297.335 141.353 297.15 143.572 297.092 143.864C297.017 144.242 296.82 144.393 296.4 144.393C295.869 144.393 295.815 144.303 295.815 143.396C295.815 142.847 295.927 140.923 296.065 139.118C296.204 137.313 296.281 135.813 296.241 135.787C296.198 135.759 294.9 135.633 293.355 135.504C291.81 135.377 290.528 135.295 290.505 135.32C290.484 135.346 290.328 137.083 289.843 142.99H288.438L288.608 141.406C288.702 140.534 288.861 138.806 289.14 135.309L288.438 135.173C288.051 135.098 286.601 134.98 285.217 134.91C283.425 134.819 282.702 134.697 282.704 134.488C282.704 134.326 282.781 133.947 282.872 133.643ZM193.932 114.154C194.035 114.154 193.901 114.55 193.637 115.033C193.374 115.516 192.819 116.439 192.404 117.084C191.99 117.729 190.978 118.877 190.156 119.637C189.334 120.394 188.372 121.158 187.374 121.655L188.06 122.534C188.437 123.017 189.247 124.362 189.863 125.522C190.477 126.683 191.407 128.44 191.93 129.43C192.452 130.417 193.415 131.999 194.07 132.946C194.723 133.89 195.284 134.768 195.313 134.898C195.344 135.027 195.6 135.251 195.881 135.394C196.161 135.534 196.286 135.717 196.157 135.797C196.028 135.879 195.526 135.525 195.044 135.012C194.561 134.498 194.246 134.079 194.342 134.081C194.438 134.081 194.306 133.938 194.049 133.76C193.791 133.584 193.166 132.766 192.66 131.943C192.155 131.119 191.602 130.366 191.431 130.27C191.262 130.173 191.122 129.962 191.119 129.801C191.119 129.639 190.697 128.849 190.182 128.043C189.669 127.237 189.081 126.181 188.875 125.698C188.671 125.215 188.119 124.367 187.646 123.813C187.175 123.26 186.472 122.705 186.086 122.578C185.699 122.454 185.172 122.348 184.914 122.344C184.656 122.342 184.024 122.75 183.509 123.249C182.946 123.798 181.359 126.264 179.542 129.414C177.874 132.302 175.956 135.509 175.281 136.54C174.607 137.571 173.721 138.785 173.312 139.235C172.902 139.688 172.424 140.267 172.248 140.524C172.072 140.782 171.845 140.911 171.747 140.808C171.647 140.706 171.918 139.914 172.349 139.05C172.782 138.185 174.213 135.684 175.534 133.492C176.853 131.301 178.832 127.979 179.931 126.108C181.029 124.241 182.31 122.368 182.778 121.948C183.244 121.529 183.917 121.12 184.271 121.038C184.624 120.956 185.257 120.956 185.676 121.038C186.308 121.16 186.666 121.031 187.783 120.274C188.523 119.775 189.875 118.587 190.784 117.638C191.693 116.688 192.73 115.516 193.091 115.033C193.451 114.551 193.831 114.155 193.932 114.154ZM54.0986 121.859C54.4241 121.754 55.588 121.697 56.6816 121.732C58.3772 121.786 58.8601 121.899 59.9326 122.487C60.6258 122.867 61.5137 123.549 61.9072 123.999C62.3007 124.451 62.8656 125.347 63.1631 125.991C63.4605 126.636 63.7741 127.851 63.8584 128.688C63.9801 129.892 63.9055 130.567 63.5098 131.91C63.114 133.248 62.7648 133.872 61.875 134.84C61.1817 135.595 60.2489 136.294 59.4736 136.646C58.4738 137.098 57.8086 137.219 56.3311 137.224C54.8134 137.228 54.2135 137.116 53.1689 136.636C52.4616 136.31 51.4663 135.625 50.958 135.119C50.4521 134.61 49.7658 133.616 49.4355 132.906C48.925 131.807 48.8359 131.289 48.8359 129.391C48.8359 127.64 48.9389 126.938 49.3184 126.108C49.5854 125.529 50.2178 124.592 50.7236 124.029C51.2318 123.465 52.0656 122.79 52.5762 122.527C53.0866 122.265 53.773 121.965 54.0986 121.859ZM56.9121 123.207C56.3313 123.134 55.3832 123.207 54.8047 123.366C54.2239 123.528 53.3804 123.872 52.9307 124.135C52.4786 124.397 51.7689 125.054 51.3496 125.596C50.9305 126.135 50.4711 127.025 50.3281 127.573C50.1853 128.122 50.1178 129.203 50.1787 129.977C50.2396 130.75 50.4993 131.805 50.7568 132.32C51.0168 132.836 51.6967 133.68 52.2705 134.195C52.8982 134.76 53.7741 135.265 54.4697 135.464C55.1653 135.663 56.1347 135.743 56.9121 135.67C57.6194 135.602 58.6224 135.334 59.1377 135.074C59.6529 134.816 60.4698 134.17 60.9521 133.638C61.5213 133.012 61.9646 132.199 62.2129 131.324C62.4447 130.504 62.5497 129.517 62.4795 128.805C62.4163 128.151 62.0646 127.072 61.6875 126.366C61.3152 125.67 60.695 124.86 60.3086 124.564C59.9221 124.269 59.2358 123.872 58.7861 123.685C58.3341 123.495 57.4906 123.282 56.9121 123.207ZM135.554 79.6943C137.067 79.692 137.154 79.7225 137.545 80.3975C137.77 80.7866 138.297 81.2748 138.716 81.4834C139.261 81.7576 139.794 81.8232 140.59 81.7178C141.487 81.6006 141.702 81.6402 141.702 81.9238C141.702 82.1184 141.992 82.4981 142.346 82.7676C142.845 83.1496 143.227 83.2359 144.044 83.1562C144.625 83.1 145.719 82.7485 146.478 82.3711C147.234 81.996 148.106 81.3989 148.41 81.0449C148.714 80.6912 148.963 80.2435 148.963 80.0488C148.963 79.7582 149.42 79.6973 151.656 79.6973C153.139 79.6973 154.354 79.7769 154.358 79.873C154.362 79.9702 153.782 80.6026 153.07 81.2793C152.337 81.9754 151.035 82.866 150.075 83.3301C149.141 83.7825 147.639 84.3078 146.737 84.5C145.836 84.6899 144.941 85.0113 144.747 85.2129C144.447 85.5269 144.443 85.6529 144.719 86.0957C144.899 86.384 144.969 86.8185 144.883 87.0811C144.796 87.3403 144.627 89.3435 144.51 91.5342C144.39 93.7258 144.358 96.4168 144.576 99.5039H147.295C149.883 99.5039 150.08 99.5391 151.276 100.207C151.967 100.594 152.891 101.252 153.326 101.672C153.759 102.091 154.326 102.856 154.584 103.372C154.877 103.959 155.317 106.007 155.753 108.821C156.139 111.304 156.666 114.126 156.926 115.092C157.186 116.06 157.612 117.536 157.87 118.373C158.13 119.212 158.788 121.268 159.331 122.944C159.877 124.62 160.646 126.467 161.039 127.046C161.435 127.627 161.882 128.076 162.034 128.043C162.189 128.01 162.312 128.09 162.312 128.219C162.312 128.347 162.182 128.45 162.021 128.448C161.859 128.444 161.54 128.258 161.311 128.038C161.081 127.815 160.898 127.526 160.905 127.397C160.914 127.268 160.652 126.9 160.327 126.577C159.999 126.256 159.671 125.675 159.594 125.288C159.519 124.901 159.257 124.243 159.011 123.823C158.767 123.404 158.619 122.956 158.683 122.827C158.748 122.698 158.544 121.986 158.232 121.245C157.921 120.504 157.488 119.264 157.272 118.49C157.055 117.717 156.792 116.821 156.685 116.498C156.579 116.177 156.268 114.911 155.994 113.686C155.72 112.462 155.343 110.931 155.16 110.286C154.977 109.641 154.773 108.376 154.71 107.474C154.644 106.571 154.427 105.36 154.226 104.778C154.022 104.199 153.598 103.381 153.284 102.961C152.968 102.541 152.263 101.9 151.715 101.534C151.167 101.169 150.192 100.737 149.548 100.575C148.904 100.416 147.587 100.294 146.62 100.308C145.655 100.319 144.775 100.407 144.665 100.503C144.555 100.599 144.515 100.781 144.578 100.91C144.644 101.039 145.208 101.215 145.833 101.3C146.458 101.384 147.71 101.632 148.611 101.853C149.513 102.073 150.357 102.348 150.485 102.465C150.622 102.591 148.937 102.683 146.27 102.694C143.822 102.704 140.765 102.692 139.477 102.671C138.189 102.647 137.189 102.687 137.252 102.758C137.319 102.828 138.002 102.999 138.774 103.135C139.547 103.273 140.415 103.435 140.706 103.496C140.996 103.557 141.233 103.712 141.233 103.841C141.233 103.97 140.996 104.075 140.706 104.072C140.416 104.07 139.835 104.15 139.414 104.248C138.992 104.346 138.65 104.506 138.652 104.603C138.656 104.699 139.316 104.778 140.121 104.778C140.927 104.776 143.431 104.947 145.684 105.153C148.769 105.439 149.885 105.627 150.201 105.917C150.431 106.128 150.975 107.04 151.408 107.942C151.844 108.845 152.429 110.216 152.71 110.989C152.991 111.763 153.378 112.872 153.567 113.451C153.757 114.033 154.595 116.881 155.427 119.78C156.26 122.682 157.366 126.108 157.884 127.397C158.399 128.687 159.237 130.455 159.748 131.324C160.256 132.193 160.778 132.959 160.907 133.023C161.036 133.089 163.198 131.085 170.276 123.999L169.749 123.537C169.459 123.284 169.143 123.074 169.047 123.068C168.951 123.066 168.449 122.534 167.934 121.89C167.402 121.227 166.997 120.465 166.997 120.132C166.997 119.811 167.103 119.493 167.231 119.428C167.361 119.365 167.726 119.76 168.042 120.308C168.358 120.856 169.106 121.831 170.787 123.647L171.814 122.593C172.379 122.014 172.925 121.615 173.023 121.709C173.122 121.803 172.808 122.356 172.325 122.939C171.843 123.523 171.452 124.024 171.454 124.058C171.459 124.09 170.906 124.697 170.225 125.405C169.545 126.116 167.17 128.673 160.907 135.484L159.818 134.02C159.221 133.213 158.256 131.554 157.68 130.328C157.101 129.105 156.233 126.994 155.748 125.64C155.266 124.287 154.691 122.441 154.474 121.538C154.258 120.636 153.888 119.264 153.656 118.49C153.422 117.717 152.998 116.294 152.717 115.326C152.433 114.361 151.991 112.99 151.735 112.279C151.478 111.571 150.83 110.064 150.291 108.932C149.42 107.094 149.239 106.862 148.611 106.777C148.225 106.726 146.749 106.571 145.332 106.433C143.915 106.294 140.924 106.105 138.683 106.009C134.936 105.847 134.593 105.795 134.385 105.364C134.226 105.031 134.264 104.692 134.517 104.192C134.861 103.52 134.849 103.461 134.249 102.847C133.905 102.495 133.676 102.156 133.738 102.092C133.804 102.031 134.593 101.82 135.495 101.625C136.397 101.43 138.032 101.274 139.126 101.276C140.711 101.281 141.189 101.201 141.468 100.885C141.662 100.667 142.161 100.345 143.342 99.8555L143.479 96.9844C143.557 95.4045 143.576 92.0567 143.424 84.9707L141.627 84.5605C140.636 84.3355 139.121 83.8082 138.259 83.3887C137.395 82.9691 136.076 82.0739 135.331 81.3965C134.585 80.7196 133.974 80.0613 133.973 79.9316C133.973 79.798 134.659 79.6967 135.554 79.6943ZM206.345 125.874C206.473 125.874 206.574 125.954 206.567 126.05C206.56 126.146 205.98 126.673 205.279 127.222C204.577 127.77 203.923 128.216 203.827 128.211C203.731 128.207 203.441 128.434 203.184 128.715C202.926 128.996 201.977 129.566 201.075 129.983C200.173 130.401 198.698 130.97 197.796 131.249C196.894 131.528 195.758 131.727 195.273 131.688C194.789 131.65 194.384 131.512 194.377 131.383C194.37 131.254 195.241 130.926 196.313 130.651C197.386 130.377 198.791 129.939 199.436 129.679C200.08 129.416 201.344 128.805 202.246 128.319C203.148 127.834 204.282 127.19 204.765 126.89C205.247 126.59 205.748 126.343 205.877 126.343C206.006 126.343 206.111 126.237 206.111 126.108C206.111 125.98 206.216 125.874 206.345 125.874ZM205.073 96.3838C206.162 96.44 206.685 96.5978 207.299 97.0596C207.741 97.3903 208.364 98.18 208.685 98.8174C209.134 99.708 209.289 100.43 209.357 101.965C209.404 103.062 209.313 104.696 209.151 105.599C208.992 106.501 208.708 107.661 208.523 108.177C208.338 108.692 208.129 110.275 207.933 114.271L209.292 114.975C210.041 115.361 211.083 116.1 211.61 116.615C212.285 117.276 212.657 117.9 212.87 118.725C213.121 119.69 213.119 120.08 212.863 120.929C212.692 121.494 212.289 122.157 211.966 122.4C211.509 122.747 210.996 122.841 209.624 122.832C208.022 122.823 207.767 122.888 206.718 123.587C206.083 124.006 205.082 124.658 204.492 125.03C203.902 125.403 202.93 125.773 202.333 125.851C201.546 125.954 201.138 125.895 200.841 125.64C200.499 125.347 200.457 125.047 200.579 123.823C200.698 122.636 200.693 122.404 200.399 122.365L200.051 122.349C199.838 122.33 199.615 122.287 199.494 122.236C199.332 122.169 198.997 122.454 198.742 122.881C198.489 123.303 198.12 123.848 197.923 124.095C197.724 124.341 197.194 124.958 196.742 125.469C196.293 125.977 195.29 126.809 194.518 127.315C193.745 127.822 192.875 128.232 192.585 128.228C192.283 128.223 192.092 128.094 192.136 127.926C192.176 127.764 192.677 127.374 193.248 127.056C193.817 126.739 195.269 125.528 196.476 124.36C197.764 123.116 198.9 121.782 199.228 121.128C199.602 120.385 200.312 119.6 201.368 118.763C202.237 118.074 203.07 117.256 203.221 116.946C203.371 116.635 203.633 114.853 203.807 112.982C203.98 111.114 204.12 108.191 204.12 106.489C204.12 104.752 204.017 103.283 203.886 103.14C203.745 102.985 202.187 102.841 196.273 102.668L196.157 103.372C196.089 103.784 195.918 104.042 195.747 103.995C195.585 103.948 195.396 103.66 195.323 103.351C195.251 103.039 194.8 102.073 194.327 101.203C193.852 100.334 193.463 99.5156 193.463 99.3867C193.463 99.2461 193.693 99.2695 194.03 99.4453C194.344 99.607 194.583 99.7922 194.562 99.8555C194.543 99.9211 194.702 100.184 194.915 100.441C195.128 100.699 195.576 101.252 196.508 102.434L204.115 102.316L204.53 103.137C204.893 103.859 204.928 104.457 204.827 108.06C204.762 110.317 204.643 113.217 204.561 114.506C204.441 116.404 204.305 117.018 203.855 117.729C203.551 118.211 203.01 118.793 202.656 119.016C202.303 119.241 201.874 119.531 201.703 119.66C201.532 119.791 201.19 120.083 200.941 120.308C200.693 120.533 200.49 120.823 200.49 120.952C200.491 121.081 200.912 121.187 201.427 121.187C202.218 121.187 202.342 121.25 202.221 121.597C202.141 121.822 201.984 122.377 201.874 122.827C201.764 123.28 201.668 123.858 201.663 124.116C201.654 124.533 201.75 124.566 202.534 124.414C203.021 124.32 203.682 124.032 204.003 123.774C204.326 123.519 205.221 122.878 205.994 122.355C207.359 121.43 207.453 121.404 209.331 121.411C211.034 121.421 211.292 121.365 211.498 120.952C211.627 120.694 211.732 120.141 211.734 119.722C211.734 119.302 211.489 118.591 211.187 118.139C210.819 117.588 210.026 116.999 208.785 116.348C207.167 115.499 206.907 115.274 206.753 114.59C206.655 114.156 206.575 113.064 206.577 112.162C206.579 111.25 206.83 109.478 207.142 108.177C207.451 106.888 207.781 105.36 207.875 104.778C207.971 104.199 208.041 103.09 208.031 102.316C208.022 101.534 207.827 100.454 207.591 99.877C207.357 99.3074 206.874 98.595 206.521 98.2949C206.08 97.9199 205.581 97.7461 204.939 97.7461C204.424 97.7462 202.869 98.011 201.485 98.332C200.101 98.6555 198.284 99.0753 197.445 99.2676C196.609 99.4574 195.716 99.6162 195.466 99.6162C195.166 99.6178 195.088 99.5408 195.231 99.3848C195.353 99.2535 197.3 98.5077 199.553 97.7295C203.113 96.4989 203.839 96.3229 205.073 96.3838ZM197.313 117.077C197.328 117.11 197.248 117.441 197.136 117.813C197.023 118.186 196.466 119.15 195.899 119.956C195.333 120.762 194.384 121.869 193.791 122.417C193.199 122.965 192.276 123.706 191.742 124.064C191.208 124.423 190.48 124.711 190.126 124.709C189.772 124.704 189.535 124.597 189.599 124.468C189.664 124.339 190.322 123.844 191.062 123.366C191.803 122.888 193.095 121.796 193.932 120.936C194.77 120.075 195.868 118.842 196.372 118.195C196.877 117.549 197.301 117.046 197.313 117.077ZM169.339 116.029C169.468 116.029 169.827 116.477 170.136 117.025C170.445 117.574 171.393 118.68 172.243 119.486C173.093 120.293 173.684 120.952 173.555 120.952C173.426 120.952 173.401 121.084 173.494 121.245C173.59 121.407 173.304 121.275 172.857 120.952C172.41 120.631 171.911 120.235 171.747 120.073C171.583 119.912 171.342 119.78 171.213 119.78C171.084 119.78 170.557 119.252 170.042 118.607C169.418 117.826 169.105 117.201 169.105 116.732C169.105 116.346 169.21 116.03 169.339 116.029ZM189.744 113.111C189.859 113.17 189.861 113.346 189.751 113.51C189.641 113.672 189.074 114.541 188.491 115.443C187.908 116.346 186.811 117.675 186.055 118.396C185.298 119.116 184.233 119.935 183.685 120.214C183.137 120.49 182.478 120.718 182.221 120.718C181.964 120.718 181.783 120.612 181.82 120.483C181.86 120.352 182.57 119.801 183.401 119.257C184.235 118.713 185.582 117.579 186.395 116.737C187.209 115.898 188.249 114.712 188.706 114.107C189.165 113.5 189.632 113.053 189.744 113.111ZM185.788 112.213C186.348 111.388 186.706 111.041 186.783 111.25C186.851 111.43 186.36 112.394 185.692 113.393C185.025 114.391 184.156 115.561 183.76 115.992C183.364 116.421 182.408 117.279 181.636 117.893C180.863 118.509 179.888 119.185 179.469 119.396C179.05 119.609 178.417 119.752 178.063 119.719C177.481 119.662 177.584 119.548 179.176 118.498C180.143 117.86 181.83 116.475 182.924 115.42C184.02 114.365 185.308 112.923 185.788 112.213ZM172.307 114.623C172.349 114.623 172.66 115.071 172.995 115.619C173.332 116.168 174.202 117.22 174.928 117.958C175.654 118.694 176.173 119.382 176.082 119.482C175.987 119.58 175.329 119.266 174.618 118.783C173.871 118.277 173.021 117.431 172.616 116.791C172.228 116.179 171.892 115.512 171.873 115.308C171.854 115.104 171.925 114.865 172.032 114.78C172.14 114.694 172.262 114.623 172.307 114.623ZM183.217 109.642C183.312 109.675 183.211 109.991 182.989 110.345C182.769 110.699 182.207 111.518 181.743 112.162C181.279 112.807 180.434 113.718 179.862 114.187C179.293 114.655 178.457 115.26 178.005 115.532C177.555 115.804 176.949 116.029 176.658 116.029C176.352 116.029 176.164 115.907 176.209 115.736C176.249 115.575 176.75 115.188 177.321 114.874C177.89 114.56 179.41 113.24 180.698 111.943C181.986 110.645 183.121 109.609 183.217 109.642ZM181.329 105.634C181.432 105.679 181.387 105.952 181.226 106.24C181.064 106.529 180.495 107.345 179.961 108.058C179.427 108.768 178.635 109.677 178.204 110.078C177.773 110.481 176.998 111.088 176.482 111.428C175.951 111.779 175.218 112.047 174.785 112.047C174.367 112.045 174.062 111.965 174.107 111.869C174.154 111.773 174.761 111.362 175.454 110.959C176.15 110.556 177.455 109.49 178.356 108.59C179.258 107.69 180.254 106.639 180.567 106.252C180.879 105.868 181.224 105.589 181.329 105.634ZM184.1 104.544C184.093 104.342 184.54 104.642 185.146 105.247C185.73 105.828 186.416 106.803 186.674 107.415C186.929 108.027 187.088 108.739 187.022 108.997C186.959 109.255 186.774 109.431 186.612 109.389C186.451 109.348 186.181 108.899 186.013 108.393C185.842 107.889 185.345 106.895 184.907 106.185C184.469 105.477 184.107 104.739 184.1 104.544ZM187.783 102.666C187.879 102.664 188.353 103.057 188.835 103.545C189.315 104.03 189.918 104.954 190.173 105.599C190.569 106.599 190.589 106.838 190.322 107.239C190.013 107.703 190.008 107.703 189.746 107.181C189.601 106.89 189.482 106.522 189.479 106.36C189.477 106.199 189.055 105.355 188.542 104.485C188.029 103.616 187.608 102.851 187.608 102.785C187.609 102.722 187.688 102.666 187.783 102.666ZM174.904 75.6699C175.815 76.1504 176.223 76.2303 177.186 76.1201C177.83 76.0451 178.593 75.9227 178.884 75.8477C179.331 75.733 179.453 75.8434 179.694 76.5908C179.849 77.0737 180.523 78.0519 181.192 78.7598C181.862 79.4677 182.467 80.3136 182.535 80.6348C182.603 80.9559 182.72 81.5114 182.793 81.8652C182.915 82.4651 183.006 82.5098 184.095 82.5098C184.928 82.5098 185.298 82.6106 185.383 82.8613C185.446 83.0535 185.5 83.5293 185.5 83.916C185.5 84.3028 185.554 84.6191 185.617 84.6191C185.681 84.619 186.048 84.3824 186.435 84.0918C186.818 83.8016 187.181 83.6191 187.242 83.6816C187.303 83.7449 187.191 84.3262 186.992 84.9707C186.725 85.8403 186.666 86.7012 186.77 88.3115C186.844 89.5045 186.816 90.7162 186.706 91.0068C186.596 91.2974 186.439 91.799 186.357 92.1201C186.219 92.6663 186.308 92.7388 187.639 93.1748C188.425 93.4323 189.107 93.7228 189.158 93.8193C189.207 93.9154 188.641 94.0517 187.9 94.1221C187.16 94.1901 185.921 94.4029 185.148 94.5928C184.041 94.8647 183.451 95.1981 182.364 96.166C181.608 96.8411 180.736 97.8421 180.432 98.3906C180.127 98.9391 179.933 99.546 179.996 99.7383C180.059 99.9305 179.956 100.144 179.762 100.207C179.537 100.282 179.359 100.765 179.27 101.555C179.192 102.232 179.249 103.419 179.398 104.192C179.546 104.966 179.612 105.653 179.539 105.716C179.469 105.778 179.234 105.411 179.017 104.896C178.799 104.38 178.563 103.062 178.356 99.9727L177.42 99.6631C176.905 99.492 176.061 99.0352 175.546 98.6484C175.026 98.2593 174.415 97.5116 174.176 96.9678C173.937 96.4288 173.738 95.6205 173.735 95.168C173.733 94.7156 173.883 93.9788 174.07 93.5264C174.382 92.7836 174.527 92.6896 175.623 92.5303C176.288 92.4342 176.94 92.3006 177.068 92.2373C177.197 92.1739 177.307 91.7779 177.312 91.3584C177.316 90.8287 177.12 90.3971 176.668 89.9424C176.195 89.4713 175.787 89.2912 174.375 89.3076V87.7256C174.375 86.5676 174.242 85.8919 173.881 85.2051C173.609 84.6893 172.817 83.5053 170.861 80.8779L170.276 81.457C169.956 81.7781 169.321 82.0997 168.871 82.1748C168.295 82.2686 167.456 82.1039 166.061 81.6211C164.967 81.2414 163.331 80.6579 162.43 80.3203C161.528 79.9829 160.456 79.7036 160.046 79.7012C159.636 79.6988 159.136 79.8566 158.933 80.0488C158.731 80.2412 158.502 80.6373 158.423 80.9277C158.346 81.2184 158.355 81.7715 158.446 82.1582C158.552 82.6083 159.275 83.4965 160.453 84.6191C161.711 85.8169 162.458 86.7505 162.805 87.5498C163.235 88.5434 163.29 88.982 163.016 92.1201L163.659 92.2441C164.104 92.3309 164.536 92.202 165.049 91.834C165.456 91.5409 165.983 90.9554 166.22 90.5312C166.454 90.1095 166.777 89.7135 166.938 89.6523C167.1 89.5914 167.389 89.5959 167.583 89.6592C167.777 89.7226 167.934 89.9358 167.934 90.1279C167.934 90.3202 167.644 90.8756 167.29 91.3584C166.936 91.8413 166.496 92.3967 166.311 92.5889C166.109 92.8021 165.552 92.9404 164.905 92.9404C164.318 92.9404 163.599 92.8607 163.309 92.7646C162.819 92.6006 162.762 92.6851 162.519 93.9365C162.373 94.6772 162.313 95.8663 162.381 96.5742C162.451 97.2821 162.664 98.1797 162.856 98.5664C163.051 98.9532 163.718 99.7764 164.341 100.397C164.964 101.016 166.095 101.965 166.852 102.507C167.61 103.046 168.559 103.779 168.96 104.136C169.588 104.691 169.625 104.78 169.222 104.771C168.964 104.763 168.543 104.518 168.285 104.223C168.028 103.927 167.58 103.615 167.29 103.528C167 103.442 166.709 103.212 166.646 103.02C166.582 102.827 166.14 102.483 165.667 102.258C165.194 102.033 164.271 101.257 163.617 100.535C162.851 99.6867 162.28 98.7727 162.011 97.957C161.669 96.9303 161.619 96.2922 161.748 94.5811C161.835 93.4209 161.997 92.2865 162.109 92.0615C162.222 91.8361 162.325 90.9926 162.339 90.1865C162.353 89.3053 162.217 88.396 161.994 87.9014C161.793 87.449 161.287 86.7637 160.875 86.377C160.46 85.9902 159.635 85.2004 159.043 84.6191C158.329 83.9231 157.858 83.2058 157.652 82.5098C157.479 81.9215 157.406 81.0661 157.485 80.5762C157.579 79.9973 157.87 79.4957 158.331 79.1113C158.767 78.748 159.322 78.527 159.795 78.5293C160.214 78.5316 161.505 78.7925 162.664 79.1113C163.823 79.4301 165.456 79.9545 166.295 80.2803C167.133 80.606 168.053 80.8734 168.344 80.8711C168.702 80.8687 169.375 80.3037 170.452 79.0918C171.321 78.1144 172.185 77.034 172.37 76.6895C172.555 76.3449 172.951 75.8438 173.251 75.5742L173.794 75.084L174.904 75.6699ZM190.594 100.565C190.69 100.57 191.112 100.887 191.531 101.269C191.95 101.651 192.557 102.547 192.878 103.255C193.201 103.965 193.412 104.755 193.347 105.013C193.283 105.27 193.115 105.455 192.977 105.423C192.836 105.39 192.597 104.996 192.444 104.544C192.292 104.094 191.774 103.064 191.292 102.258C190.812 101.452 190.419 100.741 190.419 100.676C190.419 100.613 190.498 100.561 190.594 100.565ZM173.926 76.8838C173.874 76.8838 173.65 77.1745 173.425 77.5283C173.202 77.8822 172.586 78.7285 172.057 79.4082C171.525 80.088 171.146 80.6769 171.209 80.7168C171.273 80.757 171.741 81.0427 172.246 81.3564C172.752 81.6682 173.544 82.3529 174.003 82.8779C174.462 83.403 175.076 84.4318 175.366 85.1631C175.657 85.8968 175.893 86.7857 175.891 87.1396C175.891 87.6386 176.08 87.8898 176.738 88.2529C177.207 88.5108 177.837 89.1435 178.142 89.6592C178.444 90.1748 178.697 90.9388 178.699 91.3584C178.702 91.7779 178.615 92.3567 178.505 92.6475C178.395 92.9381 177.947 93.3303 177.509 93.5225C177.071 93.7122 176.312 93.8693 175.825 93.874C175.074 93.8787 174.917 93.9674 174.8 94.4639C174.723 94.7873 174.708 95.421 174.767 95.8711C174.825 96.3235 175.13 97.0522 175.441 97.4951C175.755 97.9381 176.38 98.5287 176.83 98.8076C177.28 99.0889 177.886 99.3867 178.177 99.4688C178.629 99.6 178.727 99.5134 178.863 98.8594C178.95 98.4398 179.416 97.5165 179.898 96.8086C180.378 96.101 181.118 95.2574 181.542 94.9336C181.964 94.6125 182.826 94.0842 183.456 93.7607C184.505 93.2217 184.636 93.06 185.044 91.7686C185.407 90.6248 185.459 90.0247 185.318 88.5527C185.154 86.8392 185.116 86.7504 184.617 86.8535C184.327 86.9142 184.103 86.8838 184.119 86.7881C184.133 86.692 184.133 86.0044 184.119 85.2637L184.091 83.916C182.276 83.916 181.749 83.8902 181.751 83.8574C181.751 83.8228 181.633 83.165 181.493 82.3926C181.287 81.2817 181.041 80.7776 180.32 79.9902C179.819 79.4417 179.221 78.6252 178.996 78.1729C178.617 77.4162 178.525 77.3649 177.767 77.4961C177.3 77.5757 176.317 77.4744 175.483 77.2588C174.678 77.0525 173.977 76.8838 173.926 76.8838ZM287.233 78.7734C287.343 78.7664 287.959 80.2103 288.604 81.9824C289.245 83.754 289.826 85.6803 289.892 86.2598C289.957 86.8411 289.882 87.7911 289.728 88.3701C289.54 89.0708 289.119 89.7434 288.473 90.3691C287.829 90.995 287.104 91.4215 286.329 91.6348C285.645 91.8222 284.72 91.8974 284.104 91.8154C283.477 91.7334 282.647 91.3866 282.055 90.96C281.507 90.5689 281.032 90.2715 280.994 90.3037C280.959 90.3365 280.202 91.4714 277.698 95.2852L277.39 94.5225C277.085 93.7797 277.116 93.7043 280.296 88.7217L279.645 87.1982C279.289 86.3614 278.828 85.2779 278.249 83.916L276.258 84.7363C275.165 85.1885 274.189 85.5594 274.092 85.5645C273.996 85.5691 273.782 85.2776 273.618 84.9189C273.452 84.5605 273.347 84.2486 273.385 84.2275C273.442 84.1954 276.518 82.9657 280.24 81.4873C283.976 80.0013 287.123 78.7805 287.233 78.7734ZM286.267 80.8896C286.041 80.9015 284.487 81.4741 282.812 82.1631C280.199 83.2367 279.777 83.4802 279.826 83.8975C279.859 84.1671 280.304 85.3599 280.816 86.5527C281.425 87.9756 282.03 88.9841 282.573 89.4834C283.273 90.1302 283.573 90.2451 284.568 90.2451C285.212 90.2451 286.124 90.06 286.595 89.835C287.063 89.6099 287.67 89.1084 287.941 88.7217C288.297 88.2131 288.433 87.6621 288.431 86.7295C288.431 85.8083 288.18 84.7881 287.553 83.1543C286.892 81.4338 286.576 80.8732 286.267 80.8896ZM146.211 79.7129C147.7 79.7012 148.262 79.7769 148.267 79.9902C148.269 80.1521 148.033 80.5129 147.74 80.7939C147.447 81.0729 146.679 81.563 146.035 81.8818C145.391 82.2006 144.522 82.5238 144.103 82.6035C143.491 82.716 143.227 82.6293 142.756 82.1582C142.435 81.8375 142.196 81.4745 142.229 81.3545C142.261 81.2326 142.709 80.8174 143.225 80.4307C144.093 79.7815 144.312 79.727 146.211 79.7129ZM65.5303 67.0459C65.6216 67.0482 67.4908 67.9911 69.6807 69.1396C71.8703 70.2881 74.084 71.5273 74.5996 71.8955C75.1734 72.3057 75.7868 73.0638 76.1826 73.8467C76.59 74.6529 76.8294 75.494 76.8271 76.1221C76.8271 76.6705 76.6115 77.6712 76.3516 78.3486C76.0939 79.0261 75.5929 79.9833 75.2393 80.4756C74.888 80.97 74.1783 81.6538 73.6631 81.9961C72.8574 82.5329 72.4776 82.6197 70.9482 82.6221C69.1987 82.6268 69.1072 82.5964 65.4443 80.7939C63.3954 79.7839 61.2713 78.7036 60.7227 78.3916C59.7272 77.822 59.7269 77.8214 60.4834 76.5322L65.0811 78.8438C69.2471 80.939 69.7956 81.1546 70.9102 81.1289C71.5869 81.1148 72.4562 80.9441 72.8428 80.752C73.2292 80.5597 73.8364 80.0043 74.1924 79.5215C74.5484 79.0386 74.981 78.1682 75.1543 77.5869C75.3557 76.9189 75.4075 76.19 75.2998 75.5947C75.1827 74.9549 74.8192 74.341 74.1611 73.666C73.4702 72.9558 71.9833 72.0527 64.6924 68.3281L65.0273 67.6836C65.2097 67.3303 65.4363 67.0422 65.5303 67.0459ZM139.697 79.6973C141.311 79.6973 141.468 79.7394 141.468 80.166C141.468 80.4238 141.257 80.7403 140.999 80.8691C140.741 80.998 140.268 81.1035 139.945 81.1035C139.625 81.1035 139.149 80.998 138.892 80.8691C138.634 80.7403 138.313 80.4238 138.175 80.166C137.938 79.716 138.002 79.6973 139.697 79.6973ZM254.041 34.457C254.097 34.466 255.831 36.0291 261.632 41.3721L260.694 42.3096L260.16 41.8271C259.867 41.5622 258.441 40.244 254.35 36.4492L253.745 37.0352C253.413 37.3563 252.598 38.2427 250.729 40.3828L256.35 45.6621L255.413 46.6348L252.661 44.0635C251.148 42.648 249.825 41.5155 249.722 41.5479C249.619 41.5807 248.775 42.4243 247.848 43.4229C246.922 44.4198 246.159 45.3165 246.152 45.415C246.145 45.5111 247.572 46.9088 249.321 48.5215C251.066 50.1299 252.496 51.4998 252.499 51.5684C252.501 51.634 252.312 51.8681 252.082 52.0908C251.684 52.4776 251.49 52.3371 247.918 49.0859C245.859 47.2125 244.148 45.5802 244.112 45.458C244.08 45.3385 246.281 42.8138 249.005 39.8486C251.729 36.8834 253.994 34.457 254.041 34.457ZM103.525 26.7871C104.132 26.6161 105.202 26.5395 106.043 26.6074C106.914 26.6754 107.956 26.9465 108.619 27.2793C109.23 27.5864 110.201 28.3513 110.774 28.9795C111.348 29.6077 112.03 30.5969 112.292 31.1758C112.634 31.9328 112.768 32.7251 112.768 33.9883C112.768 35.2514 112.634 36.0438 112.292 36.8008C112.03 37.3798 111.385 38.3322 110.86 38.9111C110.333 39.4903 108.672 40.8612 107.169 41.958C104.766 43.7088 104.394 43.908 104.105 43.5986C103.923 43.4037 101.931 40.6568 95.5879 31.7617L98.208 29.9053C99.6508 28.8833 101.199 27.8303 101.651 27.5654C102.103 27.3006 102.945 26.9488 103.525 26.7871ZM105.863 28.0459C105.282 27.9826 104.631 28.0016 104.413 28.0859C104.197 28.1727 103.565 28.3858 103.008 28.5615C102.453 28.7374 101.05 29.5656 99.8906 30.4023C98.733 31.2379 97.8109 32.0148 97.8408 32.1338C97.8736 32.251 99.3898 34.431 101.212 36.9766C103.032 39.5191 104.583 41.6808 104.666 41.7842C104.746 41.8826 105.915 41.1445 107.264 40.1436C109.016 38.845 109.92 37.994 110.426 37.1689C110.978 36.2667 111.151 35.6783 111.222 34.4736C111.287 33.3157 111.196 32.6712 110.852 31.8789C110.601 31.2999 110.034 30.4204 109.594 29.9258C109.151 29.4336 108.369 28.8338 107.854 28.5947C107.338 28.3557 106.444 28.1092 105.863 28.0459ZM204.39 8.67285C204.564 8.67314 205.892 9.02903 207.341 9.46484C208.79 9.90304 210.345 10.4139 210.795 10.6016C211.245 10.7914 211.971 11.2509 212.409 11.626C212.845 11.9987 213.397 12.7027 213.639 13.1855C213.889 13.6896 214.074 14.5638 214.074 15.2363C214.074 15.8809 213.91 16.8043 213.711 17.2871C213.51 17.77 213.062 18.4664 212.716 18.832C212.367 19.1977 211.767 19.6668 211.381 19.873C210.92 20.1214 210.118 20.2433 209.039 20.2363C207.908 20.2246 206.673 19.9989 205.057 19.502C203.769 19.1082 202.703 18.8037 202.687 18.8271C202.67 18.852 202.377 19.8193 202.033 20.9785C201.689 22.1388 201.387 23.1172 201.358 23.1523C201.331 23.1892 201.017 23.1615 200.665 23.0938C200.312 23.0281 200.017 22.8403 200.015 22.6787C200.01 22.517 200.921 19.3007 202.04 15.5293C203.401 10.942 204.179 8.67285 204.39 8.67285ZM205.376 10.3184C205.296 10.3174 204.743 11.8971 204.146 13.8301L203.062 17.3457C203.88 17.6668 204.908 18.0025 205.873 18.2979C206.84 18.5931 208.227 18.8432 208.96 18.8525C209.964 18.8642 210.449 18.7496 210.95 18.377C211.313 18.105 211.812 17.5239 212.061 17.0879C212.313 16.6403 212.52 15.8108 212.529 15.1943C212.543 14.4255 212.401 13.8997 212.059 13.4355C211.789 13.0723 211.208 12.533 210.771 12.2354C210.33 11.94 208.971 11.3872 207.746 11.0098C206.521 10.6301 205.456 10.3207 205.376 10.3184Z" fill="white"/>
</svg>
