<svg id="visual" viewBox="0 0 900 600" width="900" height="600" xmlns="http://www.w3.org/2000/svg" xmlns:xlink="http://www.w3.org/1999/xlink" version="1.1"><path d="M0 462L21.5 458.8C43 455.7 86 449.3 128.8 434.7C171.7 420 214.3 397 257.2 401.3C300 405.7 343 437.3 385.8 455.7C428.7 474 471.3 479 514.2 468.7C557 458.3 600 432.7 642.8 431.5C685.7 430.3 728.3 453.7 771.2 449.2C814 444.7 857 412.3 878.5 396.2L900 380L900 601L878.5 601C857 601 814 601 771.2 601C728.3 601 685.7 601 642.8 601C600 601 557 601 514.2 601C471.3 601 428.7 601 385.8 601C343 601 300 601 257.2 601C214.3 601 171.7 601 128.8 601C86 601 43 601 21.5 601L0 601Z" fill="#952E10" stroke-linecap="round" stroke-linejoin="miter"></path></svg>