<svg width="893" height="181" viewBox="0 0 893 181" fill="none" xmlns="http://www.w3.org/2000/svg">
<g clip-path="url(#clip0_1228_694)">
<path d="M0 130L21.5 117.73C43 105.388 86 80.8483 128.8 70.8427C171.7 60.8371 214.3 65.5112 257.2 72.8146C300 80.118 343 90.0506 385.8 98.0843C428.7 106.118 471.3 112.253 514.2 110.865C557 109.551 600 100.787 642.8 96.1854C685.7 91.5112 728.3 91.073 771.2 92.9719C814 94.9438 857 99.3258 878.5 101.517L900 103.708V0H878.5C857 0 814 0 771.2 0C728.3 0 685.7 0 642.8 0C600 0 557 0 514.2 0C471.3 0 428.7 0 385.8 0C343 0 300 0 257.2 0C214.3 0 171.7 0 128.8 0C86 0 43 0 21.5 0H0V130Z" fill="#BC3B25"/>
</g>
<defs>
<clipPath id="clip0_1228_694">
<rect width="893" height="181" fill="white"/>
</clipPath>
</defs>
</svg>
