<svg width="893" height="130" viewBox="0 0 893 130" fill="none" xmlns="http://www.w3.org/2000/svg">
<g clip-path="url(#clip0_1226_692)">
<path d="M-2 65.9606L19.5 61.0295C41 56.1625 84 46.3005 126.8 38.2955C169.7 30.2906 212.3 24.1428 255.2 24.8473C298 25.6157 341 33.3005 383.8 40.0246C426.7 46.7488 469.3 52.5123 512.2 48.4778C555 44.3793 598 30.5468 640.8 31.5074C683.7 32.468 726.3 48.2217 769.2 45.468C812 42.7143 855 21.3251 876.5 10.6946L898 0V131.281H876.5C855 131.281 812 131.281 769.2 131.281C726.3 131.281 683.7 131.281 640.8 131.281C598 131.281 555 131.281 512.2 131.281C469.3 131.281 426.7 131.281 383.8 131.281C341 131.281 298 131.281 255.2 131.281C212.3 131.281 169.7 131.281 126.8 131.281C84 131.281 41 131.281 19.5 131.281H-2V65.9606Z" fill="#BC3B25"/>
</g>
<defs>
<clipPath id="clip0_1226_692">
<rect width="893" height="130" fill="white"/>
</clipPath>
</defs>
</svg>
