<svg xmlns="http://www.w3.org/2000/svg" xmlns:xlink="http://www.w3.org/1999/xlink" id="visual" viewBox="2 396 893 203" width="893" height="203" version="1.1"><path d="M0 499L21.5 491.3C43 483.7 86 468.3 128.8 455.8C171.7 443.3 214.3 433.7 257.2 434.8C300 436 343 448 385.8 458.5C428.7 469 471.3 478 514.2 471.7C557 465.3 600 443.7 642.8 445.2C685.7 446.7 728.3 471.3 771.2 467C814 462.7 857 429.3 878.5 412.7L900 396L900 601L878.5 601C857 601 814 601 771.2 601C728.3 601 685.7 601 642.8 601C600 601 557 601 514.2 601C471.3 601 428.7 601 385.8 601C343 601 300 601 257.2 601C214.3 601 171.7 601 128.8 601C86 601 43 601 21.5 601L0 601Z" fill="#952E10" stroke-linecap="round" stroke-linejoin="miter"/></svg>