<svg xmlns="http://www.w3.org/2000/svg" xmlns:xlink="http://www.w3.org/1999/xlink" id="visual" viewBox="0 0 893 181" width="893" height="181" version="1.1"><path d="M0 178L21.5 161.2C43 144.3 86 110.7 128.8 97C171.7 83.3 214.3 89.7 257.2 99.7C300 109.7 343 123.3 385.8 134.3C428.7 145.3 471.3 153.7 514.2 151.8C557 150 600 138 642.8 131.7C685.7 125.3 728.3 124.7 771.2 127.3C814 130 857 136 878.5 139L900 142L900 0L878.5 0C857 0 814 0 771.2 0C728.3 0 685.7 0 642.8 0C600 0 557 0 514.2 0C471.3 0 428.7 0 385.8 0C343 0 300 0 257.2 0C214.3 0 171.7 0 128.8 0C86 0 43 0 21.5 0L0 0Z" fill="#952E10" stroke-linecap="round" stroke-linejoin="miter"/></svg>