<?xml version="1.0" encoding="UTF-8"?>
<svg id="Layer_1" data-name="Layer 1" xmlns="http://www.w3.org/2000/svg" version="1.1" viewBox="0 0 184.5 107.03">
  <defs>
    <style>
      .cls-1 {
        fill: #692819;
        stroke-width: 0px;
      }
    </style>
  </defs>
  <path class="cls-1" d="M21.49,7.68c-.39,0-.68-.18-.82-.57-1.04-2.68-2.14-4.86-4.86-4.86h-.79v20.69c0,1.36.11,2.11.93,2.32.43.11.68.25.68.61s-.25.54-.75.5c-.86-.07-2.47-.14-4.9-.14s-4,.07-4.86.14c-.5.04-.75-.14-.75-.5s.25-.5.68-.61c.82-.21.93-.96.93-2.32V2.25h-.79c-2.72,0-3.82,2.18-4.86,4.86-.14.39-.43.57-.82.57S-.06,7.39.02,6.93C.3,4.68.48,3.18.59.93c.04-.43.36-.64.82-.61.79.07,2.25.14,4.79.14h9.61c2.54,0,4-.07,4.79-.14.46-.04.79.18.82.61.11,2.25.29,3.75.57,6,.07.46-.11.75-.5.75Z"/>
  <path class="cls-1" d="M46.76,25.87c0,.36-.29.54-.75.5-.79-.07-2.25-.14-4.61-.14s-3.82.07-4.61.14c-.46.04-.75-.14-.75-.5s.25-.5.68-.61c.82-.21.93-.96.93-2.32v-8.97c0-2.5-.5-4.86-2.72-4.86s-3,2.32-3,4.72v9.11c0,1.36.11,2.11.93,2.32.43.11.68.25.68.61s-.29.54-.75.5c-.79-.07-2.25-.14-4.61-.14s-3.82.07-4.61.14c-.46.04-.75-.14-.75-.5s.25-.5.68-.61c.82-.21.93-.96.93-2.32V6.07c0-1.36-.11-2.11-.93-2.32-.43-.11-.68-.29-.68-.64s.21-.57.64-.64c1.36-.21,4.65-.89,7.61-2.36.5-.25.86-.04.86.5v8.22c1.04-1.71,2.82-3.29,6-3.29,5.07,0,7.22,2.93,7.22,8.43v8.97c0,1.36.11,2.11.93,2.32.43.11.68.25.68.61Z"/>
  <path class="cls-1" d="M66.67,14.33c-.07.43-.32.64-.75.64h-11.04c.07.43.14.89.25,1.32,1.25,5.04,4.93,7.29,10.15,5.82.39-.11.68-.11.89.11.18.21.18.5-.07.86-.82,1.14-3.25,3.75-7.86,3.75-5.86,0-10.22-4.07-10.65-9.9-.46-6.15,3.79-11.33,10.08-11.4,7.72-.07,9.4,6.18,9.01,8.79ZM57.34,13.18c2.32,0,2.82-.07,2.82-1.93,0-1.97-.86-4.61-2.5-4.61-1.79,0-3,3.07-2.93,6.54h2.61Z"/>
  <path class="cls-1" d="M14.19,56.73v4.77c0,1.93.3,2.99,1.83,3.3.61.1.96.36.96.86s-.36.76-1.07.71c-1.57-.1-3.96-.2-7.41-.2s-5.73.1-6.95.2c-.3,0-.56,0-.76-.1-.2-.1-.3-.3-.3-.61,0-.51.36-.71.96-.86,1.01-.25,1.27-1.12,1.32-2.59v-27.65c0-1.98-.1-3.09-1.32-3.4-.61-.15-.96-.36-.96-.81s.25-.76.91-.76h13.39c8.93,0,18.52,2.64,18.52,13.5,0,12.12-9.59,13.65-18.52,13.65h-.61ZM14.8,32.12h-.61v22.07h.61c4.41,0,6.85-3.8,6.85-11.11,0-7.76-3.04-10.96-6.85-10.96Z"/>
  <path class="cls-1" d="M64.78,51.91c0,8.37-5.78,15.12-15.12,15.12s-15.12-6.75-15.12-15.12c.05-8.32,5.73-15.12,15.12-15.12s15.12,6.8,15.12,15.12ZM45.44,52.82c1.37,6.95,3.81,12.79,7.1,12.12,3.2-.86,2.69-7.1,1.37-13.95-1.37-6.95-3.81-12.79-7.1-12.13-3.25.86-2.74,7.1-1.37,13.95Z"/>
  <path class="cls-1" d="M83.24,64.24c-1.37,1.83-3.3,2.79-6.7,2.79-4.87,0-7.81-2.08-7.81-7.31v-19.74h-.81c-.81,0-1.01-.35-1.01-1.32,0-.91.2-1.22,1.01-1.22h.2c3.65,0,7.56-2.74,8.98-5.78.25-.56.61-.81,1.17-.81s1.12.15,1.12,1.01v5.58h2.74c.76,0,1.02.3,1.02,1.22,0,.96-.25,1.32-1.02,1.32h-2.74v20.24c0,1.62.41,2.33,1.01,2.64.51.25,1.12.15,1.67,0,.56-.15.96-.15,1.27.15.25.3.25.71-.1,1.22Z"/>
  <path class="cls-1" d="M113.69,65.56c0,.51-.46.81-1.17.81h-.81c-2.89,0-7.96.36-9.74-4.62-1.47,3.65-5.28,5.28-8.52,5.28-5.43,0-8.62-2.79-8.78-6.95-.35-10.6,13.95-10.45,16.64-12.84v-.71c0-5.23.05-8.17-2.44-8.17-5.58,0,.36,9.39-7.76,8.88-5.83-.36-6.39-10.45,7.76-10.45,8.68,0,12.94,3.45,12.94,10.81,0,0,.15,10.86.15,12.74,0,1.37,0,3.5.76,4.26.41.41.96.46.96.96ZM101.31,57.49v-7.05c-1.78,1.07-6.49,3.86-5.94,8.02.25,1.73,1.52,2.59,2.89,2.54,1.52,0,3.04-1.17,3.04-3.5Z"/>
  <path class="cls-1" d="M131.14,64.24c-1.37,1.83-3.3,2.79-6.7,2.79-4.87,0-7.81-2.08-7.81-7.31v-19.74h-.81c-.81,0-1.01-.35-1.01-1.32,0-.91.2-1.22,1.01-1.22h.2c3.65,0,7.56-2.74,8.98-5.78.25-.56.61-.81,1.17-.81s1.12.15,1.12,1.01v5.58h2.74c.76,0,1.02.3,1.02,1.22,0,.96-.25,1.32-1.02,1.32h-2.74v20.24c0,1.62.41,2.33,1.01,2.64.51.25,1.12.15,1.67,0,.56-.15.96-.15,1.27.15.25.3.25.71-.1,1.22Z"/>
  <path class="cls-1" d="M162.3,51.91c0,8.37-5.78,15.12-15.12,15.12s-15.12-6.75-15.12-15.12c.05-8.32,5.73-15.12,15.12-15.12s15.12,6.8,15.12,15.12ZM142.97,52.82c1.37,6.95,3.81,12.79,7.1,12.12,3.2-.86,2.69-7.1,1.37-13.95-1.37-6.95-3.81-12.79-7.1-12.13-3.25.86-2.74,7.1-1.37,13.95Z"/>
  <path class="cls-1" d="M40.17,105.66c0,.51-.36.76-1.07.71-1.22-.1-3.5-.2-6.95-.2s-5.68.1-6.9.2c-.71.05-1.07-.2-1.07-.71s.36-.71.96-.86c1.17-.3,1.32-1.37,1.32-3.3v-10.3h-12.28v10.3c0,1.93.15,2.99,1.32,3.3.61.15.96.36.96.86s-.36.76-1.07.71c-1.22-.1-3.5-.2-6.95-.2s-5.68.1-6.9.2c-.71.05-1.07-.2-1.07-.71s.36-.71.96-.86c1.17-.3,1.32-1.37,1.32-3.3v-27.04c0-1.93-.15-2.99-1.32-3.3-.61-.15-.96-.36-.96-.86s.36-.76,1.07-.71c1.22.1,3.45.2,6.9.2s5.73-.1,6.95-.2c.71-.05,1.07.2,1.07.71s-.36.71-.96.86c-1.17.3-1.32,1.37-1.32,3.3v14.21h12.28v-14.21c0-1.93-.15-2.99-1.32-3.3-.61-.15-.96-.36-.96-.86s.36-.76,1.07-.71c1.22.1,3.45.2,6.9.2s5.73-.1,6.95-.2c.71-.05,1.07.2,1.07.71s-.36.71-.96.86c-1.17.3-1.32,1.37-1.32,3.3v27.04c0,1.93.15,2.99,1.32,3.3.61.15.96.36.96.86Z"/>
  <path class="cls-1" d="M68.43,89.27c-.1.61-.46.91-1.07.91h-15.68c.1.61.2,1.27.36,1.88,1.78,7.15,7,10.35,14.41,8.27.56-.15.96-.15,1.27.15.25.3.25.71-.1,1.22-1.17,1.62-4.62,5.33-11.16,5.33-8.32,0-14.51-5.78-15.12-14.05-.66-8.73,5.38-16.08,14.31-16.18,10.96-.1,13.34,8.78,12.79,12.48ZM55.19,87.65c3.3,0,4.01-.1,4.01-2.74,0-2.79-1.22-6.54-3.55-6.54-2.54,0-4.26,4.36-4.16,9.28h3.7Z"/>
  <path class="cls-1" d="M90.4,87.4c-4.82-.15-2.44-5.33-5.58-5.33-1.52,0-1.73,2.99-1.73,5.02v14.41c0,2.18.61,3.09,2.23,3.35.66.1,1.01.3,1.01.81s-.35.76-1.07.71c-1.27-.1-3.65-.2-7.15-.2s-5.73.1-6.95.2c-.71.05-1.07-.2-1.07-.71s.36-.71.96-.86c1.22-.3,1.37-1.32,1.37-3.3v-15.58c0-1.98-.15-2.99-1.37-3.3-.61-.15-.96-.41-.96-.91s.3-.81.91-.91c1.93-.3,5.94-1.27,10.2-3.35.71-.41,1.12-.05,1.22.71l.46,3.7c1.02-2.79,2.89-5.07,6.39-5.07,8.57,0,7.81,10.81,1.12,10.6Z"/>
  <path class="cls-1" d="M126.33,91.91c0,8.37-5.78,15.12-15.12,15.12s-15.12-6.75-15.12-15.12c.05-8.32,5.73-15.12,15.12-15.12s15.12,6.8,15.12,15.12ZM106.99,92.82c1.37,6.95,3.81,12.79,7.1,12.12,3.2-.86,2.69-7.1,1.37-13.95-1.37-6.95-3.81-12.79-7.1-12.13-3.25.86-2.74,7.1-1.37,13.95Z"/>
  <path class="cls-1" d="M156.21,89.27c-.1.61-.46.91-1.07.91h-15.68c.1.61.2,1.27.35,1.88,1.78,7.15,7,10.35,14.41,8.27.56-.15.96-.15,1.27.15.25.3.25.71-.1,1.22-1.17,1.62-4.62,5.33-11.16,5.33-8.32,0-14.51-5.78-15.12-14.05-.66-8.73,5.38-16.08,14.31-16.18,10.96-.1,13.34,8.78,12.79,12.48ZM142.97,87.65c3.3,0,4.01-.1,4.01-2.74,0-2.79-1.22-6.54-3.55-6.54-2.54,0-4.26,4.36-4.16,9.28h3.7Z"/>
  <path class="cls-1" d="M179.7,85.72c-6.65,0-3.2-6.9-8.07-7.31-4.36-.36-5.07,4.11-2.99,5.78,5.68,4.67,16.49,4.77,15.83,13.65-.25,4.06-3.2,9.18-13.75,9.18-13.95,0-14.51-9.99-8.88-10.2,6.29-.25,3.09,8.62,8.88,8.62,3.75,0,4.82-3.81,3.3-5.94-3.09-4.41-15.07-4.11-15.02-13.5,0-5.48,5.17-9.23,12.63-9.23,13.95,0,13.14,8.93,8.07,8.93Z"/>
</svg>