<svg xmlns="http://www.w3.org/2000/svg" xmlns:xlink="http://www.w3.org/1999/xlink" id="visual" viewBox="2 0 893 199" width="893" height="199" version="1.1"><path d="M0 85L21.5 93.8C43 102.7 86 120.3 128.8 139.7C171.7 159 214.3 180 257.2 183.2C300 186.3 343 171.7 385.8 175C428.7 178.3 471.3 199.7 514.2 188.2C557 176.7 600 132.3 642.8 125.2C685.7 118 728.3 148 771.2 152.5C814 157 857 136 878.5 125.5L900 115L900 0L878.5 0C857 0 814 0 771.2 0C728.3 0 685.7 0 642.8 0C600 0 557 0 514.2 0C471.3 0 428.7 0 385.8 0C343 0 300 0 257.2 0C214.3 0 171.7 0 128.8 0C86 0 43 0 21.5 0L0 0Z" fill="#ffd166" stroke-linecap="round" stroke-linejoin="miter"/></svg>