<svg width="893" height="130" viewBox="0 0 893 130" fill="none" xmlns="http://www.w3.org/2000/svg">
<g clip-path="url(#clip0_1229_698)">
<path d="M-2 55.5276L19.5 61.2764C41 67.0905 84 78.5879 126.8 91.2613C169.7 103.869 212.3 117.588 255.2 119.678C298 121.704 341 112.166 383.8 114.322C426.7 116.477 469.3 130.457 512.2 122.945C555 115.432 598 86.4271 640.8 81.7889C683.7 77.0854 726.3 96.6834 769.2 99.6231C812 102.563 855 88.8442 876.5 81.9849L898 75.1256V0H876.5C855 0 812 0 769.2 0C726.3 0 683.7 0 640.8 0C598 0 555 0 512.2 0C469.3 0 426.7 0 383.8 0C341 0 298 0 255.2 0C212.3 0 169.7 0 126.8 0C84 0 41 0 19.5 0H-2V55.5276Z" fill="#F0C241"/>
</g>
<defs>
<clipPath id="clip0_1229_698">
<rect width="893" height="130" fill="white"/>
</clipPath>
</defs>
</svg>
