<svg id="visual" viewBox="0 0 900 600" width="900" height="600" xmlns="http://www.w3.org/2000/svg" xmlns:xlink="http://www.w3.org/1999/xlink" version="1.1"><path d="M0 412L21.5 406.5C43 401 86 390 128.8 406.3C171.7 422.7 214.3 466.3 257.2 484.3C300 502.3 343 494.7 385.8 495.7C428.7 496.7 471.3 506.3 514.2 494.2C557 482 600 448 642.8 446.8C685.7 445.7 728.3 477.3 771.2 488C814 498.7 857 488.3 878.5 483.2L900 478L900 601L878.5 601C857 601 814 601 771.2 601C728.3 601 685.7 601 642.8 601C600 601 557 601 514.2 601C471.3 601 428.7 601 385.8 601C343 601 300 601 257.2 601C214.3 601 171.7 601 128.8 601C86 601 43 601 21.5 601L0 601Z" fill="#ffd166" stroke-linecap="round" stroke-linejoin="miter"></path></svg>