<svg width="901" height="130" viewBox="0 0 901 130" fill="none" xmlns="http://www.w3.org/2000/svg">
<g clip-path="url(#clip0_1229_696)">
<path d="M0 13.7875L21.4952 10.4021C42.9905 7.01669 85.9809 0.245847 128.771 10.279C171.662 20.3737 214.252 47.2108 257.143 58.2904C299.933 69.3699 342.924 64.6919 385.714 65.3074C428.605 65.9229 471.195 71.832 514.086 64.3841C556.876 56.8746 599.867 35.9466 642.657 35.208C685.548 34.5309 728.138 53.9816 771.029 60.5678C813.819 67.154 856.81 60.7525 878.305 57.6133L899.8 54.4125V130.123H878.305C856.81 130.123 813.819 130.123 771.029 130.123C728.138 130.123 685.548 130.123 642.657 130.123C599.867 130.123 556.876 130.123 514.086 130.123C471.195 130.123 428.605 130.123 385.714 130.123C342.924 130.123 299.933 130.123 257.143 130.123C214.252 130.123 171.662 130.123 128.771 130.123C85.9809 130.123 42.9905 130.123 21.4952 130.123H0V13.7875Z" fill="#F0C241"/>
</g>
<defs>
<clipPath id="clip0_1229_696">
<rect width="901" height="130" fill="white"/>
</clipPath>
</defs>
</svg>
